<?xml version="1.0" encoding="UTF-8"?>
<svg width="125px" height="125px" viewBox="0 0 125 125" version="1.1" xmlns="http://www.w3.org/2000/svg" xmlns:xlink="http://www.w3.org/1999/xlink">
    <title>F1F78E67-6108-497F-A471-0C82F49B47E9</title>
    <g id="Green-on-White" stroke="none" stroke-width="1" fill="none" fill-rule="evenodd">
        <g id="Assets" transform="translate(-776.000000, -251.000000)">
            <g id="Profile" transform="translate(776.000000, 251.000000)">
                <rect id="Rectangle" fill="#6b727c" opacity="0.100000001" x="0" y="0" width="125" height="125" rx="62.5"></rect>
                <g id="user" transform="translate(36.458333, 29.017857)" fill="currentColor">
                    <path d="M26.9056759,0.0683622946 C17.8228681,0.0683622946 10.4536774,7.38312782 10.4536774,16.4411319 L10.4536774,16.4411319 L10.4536774,16.4069507 L10.4536774,16.4069507 C10.4195229,25.4307736 17.7200439,32.7797203 26.7685769,32.8139014 L26.7685769,32.8139014 L26.8371264,32.8139014 C35.9199342,32.8139014 43.2890047,25.4649548 43.2890047,16.4069507 C43.2890047,7.31476553 35.9199342,0 26.8371264,0 L26.9056759,0.0683622946 Z" id="Path"></path>
                    <path d="M8.56868659,42.452985 C13.4014258,39.4792252 19.9136276,37.6334432 26.8714012,37.6334432 C33.7606252,37.6334432 40.272827,39.445044 45.139841,42.3880408 C49.869756,45.2592572 53.5714286,49.5660817 53.5714286,54.727435 C53.5714286,57.3593833 52.5774609,59.5811579 50.8637236,61.3243964 C49.184261,62.9650915 46.9564025,64.1272505 44.5571703,64.9134169 C39.724431,66.4857497 33.383603,66.9642857 26.8028517,66.9642857 C20.2563751,66.9642857 13.915547,66.4857497 9.08280779,64.9134169 C6.6493008,64.1272505 4.42144228,62.9992726 2.74197971,61.3243964 C0.993967645,59.5811579 0,57.3593833 0,54.6932538 C0,49.5319006 3.66739786,45.1567137 8.39731286,42.2854973 L8.56868659,42.452985 Z" id="Path" fill-rule="nonzero"></path>
                </g>
            </g>
        </g>
    </g>
</svg>