<?xml version="1.0" encoding="UTF-8"?>
<svg width="72px" height="72px" viewBox="0 0 72 72" version="1.1" xmlns="http://www.w3.org/2000/svg" xmlns:xlink="http://www.w3.org/1999/xlink">
    <title>52B79A99-1409-43C7-A0B7-4D3A879517E1</title>
    <defs>
        <linearGradient x1="10.2374417%" y1="10.4471997%" x2="109.528783%" y2="66.024847%" id="linearGradient-1">
            <stop stop-color="#51D3FF" offset="0%"></stop>
            <stop stop-color="#32A1C7" offset="100%"></stop>
        </linearGradient>
        <path d="M39.9512195,2.28123765 L63.225695,15.7187624 C65.6707182,17.1303971 67.1769145,19.7392058 67.1769145,22.5624753 L67.1769145,49.4375247 C67.1769145,52.2607942 65.6707182,54.8696029 63.225695,56.2812376 L39.9512195,69.7187624 C37.5061964,71.1303971 34.4938036,71.1303971 32.0487805,69.7187624 L8.77430498,56.2812376 C6.32928183,54.8696029 4.82308546,52.2607942 4.82308546,49.4375247 L4.82308546,22.5624753 C4.82308546,19.7392058 6.32928183,17.1303971 8.77430498,15.7187624 L32.0487805,2.28123765 C34.4938036,0.869602879 37.5061964,0.869602879 39.9512195,2.28123765 Z" id="path-2"></path>
    </defs>
    <g id="Green-on-White" stroke="none" stroke-width="1" fill="none" fill-rule="evenodd">
        <g id="Awards---B" transform="translate(-214.000000, -229.000000)">
            <g id="B---Award---1.23" transform="translate(214.000000, 229.000000)">
                <g id="Polygon">
                    <use fill="#CC48C8" xlink:href="#path-2"></use>
                    <path stroke="#24A0CB" stroke-width="0.87804878" d="M32.2682927,2.66144392 C34.5774812,1.32823331 37.4225188,1.32823331 39.7317073,2.66144392 L39.7317073,2.66144392 L63.0061828,16.0989686 C64.1607771,16.7655739 65.0937039,17.7148453 65.7379822,18.830768 C66.3822604,19.9466907 66.7378901,21.2292647 66.7378901,22.5624753 L66.7378901,22.5624753 L66.7378901,49.4375247 C66.7378901,50.7707353 66.3822604,52.0533093 65.7379822,53.169232 C65.0937039,54.2851547 64.1607771,55.2344261 63.0061828,55.9010314 L63.0061828,55.9010314 L39.7317073,69.3385561 C37.4225188,70.6717667 34.5774812,70.6717667 32.2682927,69.3385561 L32.2682927,69.3385561 L8.99381717,55.9010314 C6.68462865,54.5678208 5.26210985,52.1039459 5.26210985,49.4375247 L5.26210985,49.4375247 L5.26210985,22.5624753 C5.26210985,21.2292647 5.61773955,19.9466907 6.26201782,18.830768 C6.90629608,17.7148453 7.83922291,16.7655739 8.99381717,16.0989686 L8.99381717,16.0989686 Z" stroke-linejoin="square" fill="url(#linearGradient-1)"></path>
                </g>
                <g id="cup-2261264" transform="translate(27.000000, 21.000000)" fill="#FFFFFF" fill-rule="nonzero">
                    <path d="M16.5301703,24.8483242 L1.47017027,24.8483242 C0.650286064,24.8753086 -0.000273672797,25.5479962 8.24122739e-05,26.3683242 L8.24122739e-05,28.8583242 C-0.00256602024,29.0156248 0.0587154436,29.1672887 0.169960601,29.2785339 C0.281205759,29.389779 0.432869654,29.4510605 0.590170267,29.4483242 L17.4601703,29.4483242 C17.6174709,29.4510605 17.7691348,29.389779 17.8803799,29.2785339 C17.9916251,29.1672887 18.0529066,29.0156248 18.0502581,28.8583242 L18.0502581,26.3683242 C18.0502581,25.9651951 17.8900279,25.5785772 17.6049726,25.2935219 C17.3199173,25.0084666 16.9332993,24.8483242 16.5301703,24.8483242 Z M4.28017027,21.6983242 C3.4523436,21.7036991 2.7810455,22.3705515 2.77017027,23.1983242 L2.77017027,24.2583242 C2.7653173,24.2881279 2.7653173,24.3185205 2.77017027,24.3483242 L15.2201703,24.3483242 C15.2250232,24.3185205 15.2250232,24.2881279 15.2201703,24.2583242 L15.2201703,23.1983242 C15.2093986,22.3744001 14.5440944,21.7090958 13.7201703,21.6983242 L4.28017027,21.6983242 L4.28017027,21.6983242 Z M4.82017027,20.6383242 L4.82017027,21.0983242 C4.81528104,21.1247668 4.81528104,21.1518816 4.82017027,21.1783242 L13.1601703,21.1783242 C13.1650595,21.1518816 13.1650595,21.1247668 13.1601703,21.0983242 L13.1601703,20.6383242 C13.1601884,19.8027412 12.4857352,19.1238215 11.6501703,19.1183242 L10.4601703,19.1183242 C9.6011866,19.7855583 8.39915394,19.7855583 7.54017027,19.1183242 L6.33017027,19.1183242 C5.49460532,19.1238215 4.82015218,19.8027412 4.82017027,20.6383242 Z M7.23017027,17.8883242 C7.24147041,17.9382577 7.26180473,17.9857044 7.29017027,18.0283242 C7.31838059,18.1024381 7.35530667,18.1729334 7.40017027,18.2383242 L7.47017027,18.3283242 C7.52164707,18.4140598 7.58569294,18.491589 7.66017027,18.5583242 L7.71017027,18.6183242 L7.84017027,18.7183242 L7.84017027,18.7183242 C7.91265444,18.7794494 7.99346356,18.8299551 8.08017027,18.8683242 C8.16970084,18.9166717 8.26341479,18.9568348 8.36017027,18.9883242 C8.45018492,19.0254737 8.54411659,19.0523113 8.64017027,19.0683242 L8.72017027,19.0683242 C8.88445244,19.1081948 9.05588809,19.1081948 9.22017027,19.0683242 L9.30017027,19.0683242 C9.39622395,19.0523113 9.49015561,19.0254737 9.58017027,18.9883242 C9.67692574,18.9568348 9.77063969,18.9166717 9.86017027,18.8683242 C9.94687697,18.8299551 10.0276861,18.7794494 10.1001703,18.7183242 L10.1001703,18.7183242 L10.2301703,18.6183242 L10.2801703,18.5583242 C10.3546476,18.491589 10.4186935,18.4140598 10.4701703,18.3283242 L10.5401703,18.2383242 C10.5850339,18.1729334 10.6219599,18.1024381 10.6501703,18.0283242 C10.6785358,17.9857044 10.6988701,17.9382577 10.7101703,17.8883242 C10.7486153,17.8022416 10.7755149,17.7114556 10.7901703,17.6183242 C10.8054578,17.4921188 10.8054578,17.3645296 10.7901703,17.2383242 C10.7780576,16.5510087 10.3956368,15.9238385 9.79017027,15.5983242 C9.57185592,15.696492 9.33861855,15.7573365 9.10017027,15.7783242 C8.94700002,15.7883254 8.79334052,15.7883254 8.64017027,15.7783242 C8.40172198,15.7573365 8.16848461,15.696492 7.95017027,15.5983242 C7.34470375,15.9238385 6.96228289,16.5510087 6.95017027,17.2383242 C6.93488273,17.3645296 6.93488273,17.4921188 6.95017027,17.6183242 C6.96482567,17.7114556 6.99172523,17.8022416 7.03017027,17.8883242 L7.23017027,17.8883242 Z M2.71017027,10.4583242 L2.71017027,11.7683242 C2.71567675,13.078855 3.77962792,14.1383358 5.09017027,14.1383242 L6.40017027,14.1383242 L7.32017027,15.0683242 C7.40093785,15.1523113 7.4916008,15.2261848 7.59017027,15.2883242 L7.83017027,15.1383242 L8.04017027,15.0083242 L8.27017027,15.1083242 C8.73625674,15.3084811 9.26408379,15.3084811 9.73017027,15.1083242 L9.96017027,15.0083242 L10.1701703,15.1383242 L10.4101703,15.2883242 C10.5087397,15.2261848 10.5994027,15.1523113 10.6801703,15.0683242 L11.6001703,14.1383242 L12.9101703,14.1383242 C14.2207126,14.1383358 15.2846638,13.078855 15.2901703,11.7683242 L15.2901703,10.4583242 L16.2101703,9.52832419 C16.6565785,9.08524181 16.9076496,8.48229347 16.9076496,7.85332419 C16.9076496,7.22435492 16.6565785,6.62140658 16.2101703,6.17832419 L15.2901703,5.24832419 L15.2901703,3.93832419 C15.2846638,2.62779342 14.2207126,1.56831263 12.9101703,1.56832419 L11.6001703,1.56832419 L10.6801703,0.698324194 C10.2353754,0.251314475 9.63077326,0 9.00017027,0 C8.36956727,0 7.76496511,0.251314475 7.32017027,0.698324194 L6.40017027,1.61832419 L5.09017027,1.61832419 C3.79881192,1.61791377 2.74272546,2.64737621 2.71017027,3.93832419 L2.71017027,5.24832419 L1.79017027,6.17832419 C1.34376199,6.62140658 1.09269094,7.22435492 1.09269094,7.85332419 C1.09269094,8.48229347 1.34376199,9.08524181 1.79017027,9.52832419 L2.71017027,10.4583242 Z M4.59017027,6.82832419 L5.16017027,6.25832419 L5.16017027,5.45832419 C5.16017027,4.65751131 5.80935738,4.00832419 6.61017027,4.00832419 L7.41017027,4.00832419 L8.00017027,3.43832419 C8.56636068,2.87247029 9.48397985,2.87247029 10.0501703,3.43832419 L10.6201703,4.00832419 L11.4201703,4.00832419 C12.2209832,4.00832419 12.8701703,4.65751131 12.8701703,5.45832419 L12.8701703,6.25832419 L13.4401703,6.82832419 C14.0060242,7.39451461 14.0060242,8.31213378 13.4401703,8.87832419 L12.8701703,9.44832419 L12.8701703,10.2483242 C12.8702537,10.6381428 12.713375,11.0115763 12.4349239,11.2843831 C12.1564728,11.5571899 11.7799055,11.7063894 11.3901703,11.6983242 L10.5901703,11.6983242 L10.0201703,12.2683242 C9.45397985,12.8341781 8.53636068,12.8341781 7.97017027,12.2683242 L7.41017027,11.6983242 L6.61017027,11.6983242 C5.80935738,11.6983242 5.16017027,11.0491371 5.16017027,10.2483242 L5.16017027,9.44832419 L4.59017027,8.87832419 C4.02431637,8.31213378 4.02431637,7.39451461 4.59017027,6.82832419 L4.59017027,6.82832419 Z" id="Shape"></path>
                    <circle id="Oval" cx="9.00017027" cy="7.85832419" r="2.17"></circle>
                </g>
            </g>
        </g>
    </g>
</svg>