<?xml version="1.0" encoding="UTF-8"?>
<svg width="72px" height="72px" viewBox="0 0 100 100" version="1.1" xmlns="http://www.w3.org/2000/svg" xmlns:xlink="http://www.w3.org/1999/xlink">
    <title>Counter / 2</title>
    <defs>
        <linearGradient x1="10.2374417%" y1="10.4471997%" x2="109.528783%" y2="66.024847%" id="linearGradient-1">
            <stop stop-color="#FFFFFF" offset="0%"></stop>
            <stop stop-color="#F6F6F6" offset="100%"></stop>
        </linearGradient>
        <linearGradient x1="50%" y1="0%" x2="50%" y2="100%" id="linearGradient-2">
            <stop stop-color="#E44AE1" offset="0%"></stop>
            <stop stop-color="#C524C0" offset="100%"></stop>
        </linearGradient>
        <linearGradient x1="100%" y1="24.1004598%" x2="0.635388076%" y2="83.1284216%" id="linearGradient-3">
            <stop stop-color="#0ED0E8" offset="0%"></stop>
            <stop stop-color="#32A1C7" offset="100%"></stop>
        </linearGradient>
        <linearGradient x1="14.3749339%" y1="11.2756077%" x2="84.1101037%" y2="92.442812%" id="linearGradient-4">
            <stop stop-color="#13BFD8" offset="0%"></stop>
            <stop stop-color="#2CA8CC" offset="100%"></stop>
        </linearGradient>
        <linearGradient x1="17.8193949%" y1="10.6299681%" x2="84.277143%" y2="89.7432947%" id="linearGradient-5">
            <stop stop-color="#12C7E1" offset="0%"></stop>
            <stop stop-color="#1DBAD8" offset="100%"></stop>
        </linearGradient>
        <circle id="path-6" cx="50" cy="50" r="38.8888889"></circle>
        <filter x="-6.1%" y="-6.1%" width="119.9%" height="119.9%" filterUnits="objectBoundingBox" id="filter-7">
            <feMorphology radius="0.25" operator="dilate" in="SourceAlpha" result="shadowSpreadOuter1"></feMorphology>
            <feOffset dx="3" dy="3" in="shadowSpreadOuter1" result="shadowOffsetOuter1"></feOffset>
            <feGaussianBlur stdDeviation="2" in="shadowOffsetOuter1" result="shadowBlurOuter1"></feGaussianBlur>
            <feComposite in="shadowBlurOuter1" in2="SourceAlpha" operator="out" result="shadowBlurOuter1"></feComposite>
            <feColorMatrix values="0 0 0 0 0   0 0 0 0 0   0 0 0 0 0  0 0 0 0.14920236 0" type="matrix" in="shadowBlurOuter1"></feColorMatrix>
        </filter>
    </defs>
    <g id="Work" stroke="none" stroke-width="1" fill="none" fill-rule="evenodd">
        <g id="Awards" transform="translate(-2489.000000, -154.000000)">
            <g id="Counter-/-2" transform="translate(2489.000000, 154.000000)">
                <g id="Group-15-Copy-5">
                    <circle id="Oval-Copy" stroke="url(#linearGradient-2)" stroke-width="1.2195122" fill="url(#linearGradient-1)" cx="50" cy="50" r="49.3902439"></circle>
                    <circle id="Oval-Copy-4" fill="url(#linearGradient-3)" cx="50" cy="50" r="50"></circle>
                    <g id="Oval-Copy-5">
                        <use fill="black" fill-opacity="1" filter="url(#filter-7)" xlink:href="#path-6"></use>
                        <use stroke="url(#linearGradient-5)" stroke-width="0.5" fill="url(#linearGradient-4)" fill-rule="evenodd" xlink:href="#path-6"></use>
                    </g>
                    <path d="M85.4021762,70.1549516 C85.3658645,70.037504 85.2658013,69.9540876 85.1480295,69.9430856 L83.5446832,69.7911315 L82.9107052,68.2423596 C82.8641411,68.1289878 82.7573061,68.0555556 82.6391224,68.0555556 C82.5209387,68.0555556 82.4141639,68.129188 82.3676923,68.2426012 L81.7337143,69.7911315 L80.1301366,69.9430856 C80.0122602,69.9540101 79.9120357,70.03737 79.8755223,70.1548565 C79.8390088,70.272343 79.8732686,70.4012327 79.9625572,70.482293 L81.174499,71.5916302 L80.8171197,73.2346185 C80.7908538,73.3548424 80.835818,73.4798295 80.931406,73.5523006 C81.0269939,73.6247717 81.1547813,73.630758 81.2562056,73.5675163 L82.6391988,72.7048327 L84.0217291,73.5675163 C84.1231853,73.6306667 84.2509357,73.6246471 84.3465271,73.5522117 C84.4421184,73.4797762 84.4871614,73.3548596 84.4610464,73.2346185 L84.1036671,71.5916302 L85.3156089,70.4825346 C85.4047223,70.401122 85.4387474,70.2726012 85.4021762,70.1549516 Z" id="Path-Copy-2" fill="#FFFFFF" fill-rule="nonzero"></path>
                    <path d="M23.5966206,22.9327294 C23.560309,22.8152818 23.4602457,22.7318654 23.3424739,22.7208634 L21.7391276,22.5689093 L21.1051497,21.0201374 C21.0585855,20.9067655 20.9517506,20.8333333 20.8335669,20.8333333 C20.7153832,20.8333333 20.6086083,20.9069657 20.5621368,21.020379 L19.9281588,22.5689093 L18.324581,22.7208634 C18.2067046,22.7317879 18.1064802,22.8151478 18.0699667,22.9326343 C18.0334533,23.0501208 18.067713,23.1790104 18.1570016,23.2600708 L19.3689435,24.369408 L19.0115641,26.0123963 C18.9852983,26.1326202 19.0302624,26.2576073 19.1258504,26.3300784 C19.2214384,26.4025494 19.3492257,26.4085358 19.45065,26.345294 L20.8336432,25.4826104 L22.2161735,26.345294 C22.3176298,26.4084445 22.4453802,26.4024249 22.5409715,26.3299894 C22.6365628,26.257554 22.6816059,26.1326374 22.6554908,26.0123963 L22.2981115,24.369408 L23.5100533,23.2603124 C23.5991667,23.1788998 23.6331918,23.050379 23.5966206,22.9327294 Z" id="Path-Copy-3" fill="#FFFFFF" fill-rule="nonzero"></path>
                </g>
                <g id="Group-4" transform="translate(31.627053, 63.358382) rotate(-30.000000) translate(-31.627053, -63.358382) translate(29.166667, 57.979914)" fill="#FFFFFF" fill-rule="nonzero">
                    <path d="M3.11196081,-0.0947000138 L3.12090328,-0.0946483355 C3.44404081,-0.0927809342 3.7055333,0.168714773 3.70739673,0.491852333 L3.720807,2.81733549 C3.72267101,3.14057484 3.46214482,3.40412319 3.13890547,3.4059872 C3.13665303,3.40600019 3.13440053,3.40600017 3.13214808,3.40598716 L3.12320562,3.40593548 C2.80006808,3.40406808 2.53857559,3.14257237 2.53671217,2.81943481 L2.52330189,0.493951657 C2.52143788,0.170712305 2.78196407,-0.0928360438 3.10520342,-0.0947000554 C3.10745587,-0.0947130444 3.10970837,-0.0947130306 3.11196081,-0.0947000138 Z" id="Rectangle" transform="translate(3.122054, 1.655644) rotate(-50.231000) translate(-3.122054, -1.655644) "></path>
                    <rect id="Rectangle" x="-2.06884812e-12" y="4.76419366" width="3.51748808" height="1.17845118" rx="0.589225589"></rect>
                    <path d="M1.96703869,8.50227296 L4.29250857,8.51568467 C4.61564584,8.5175483 4.87714126,8.77904051 4.87900885,9.10217776 L4.87906055,9.11112299 C4.88092874,9.43436302 4.6204054,9.69791531 4.29716537,9.6997835 C4.29491267,9.69979652 4.29265992,9.69979654 4.29040723,9.69978354 L1.96493735,9.68637184 C1.64180008,9.6845082 1.38030466,9.42301599 1.37843706,9.09987875 L1.37838536,9.09093351 C1.37651717,8.76769348 1.63704052,8.5041412 1.96028055,8.502273 C1.96253324,8.50225999 1.964786,8.50225997 1.96703869,8.50227296 Z" id="Rectangle" transform="translate(3.128723, 9.101028) rotate(-39.786000) translate(-3.128723, -9.101028) "></path>
                </g>
                <g id="Group-3" transform="translate(65.905342, 37.115090)" fill="#FFFFFF" fill-rule="nonzero">
                    <path d="M1.7916725,7.42449919 L1.80061497,7.42455087 C2.1237525,7.42641827 2.38524499,7.68791398 2.38710842,8.01105154 L2.40051869,10.3365347 C2.4023827,10.659774 2.14185651,10.9233224 1.81861716,10.9251864 C1.81636472,10.9251994 1.81411222,10.9251994 1.81185977,10.9251864 L1.80291731,10.9251347 C1.47977977,10.9232673 1.21828728,10.6617716 1.21642386,10.338634 L1.20301358,8.01315086 C1.20114957,7.68991151 1.46167576,7.42636316 1.78491511,7.42449915 C1.78716756,7.42448616 1.78942006,7.42448617 1.7916725,7.42449919 Z" id="Rectangle" transform="translate(1.801766, 9.174843) rotate(-50.231000) translate(-1.801766, -9.174843) "></path>
                    <rect id="Rectangle" x="1.41050329" y="4.79568488" width="3.51748808" height="1.17845118" rx="0.589225589"></rect>
                    <path d="M0.630505833,1.05693722 L2.95598664,1.07034775 C3.27912415,1.07221121 3.54061981,1.33370365 3.54248724,1.65684113 L3.54253893,1.66578409 C3.54440695,1.98902354 3.28388393,2.25257522 2.96064448,2.25444325 C2.95839199,2.25445627 2.95613945,2.25445628 2.95388696,2.25444329 L0.628406152,2.24103277 C0.305268644,2.2391693 0.0437729883,1.97767687 0.0419055523,1.65453938 L0.0418538703,1.64559642 C0.0399858449,1.32235697 0.300508861,1.05880529 0.623748314,1.05693726 C0.626000801,1.05692424 0.628253345,1.05692423 0.630505833,1.05693722 Z" id="Rectangle" transform="translate(1.792196, 1.655690) rotate(-39.772000) translate(-1.792196, -1.655690) "></path>
                </g>
                <g id="Group-2" transform="translate(31.235647, 24.991582)" fill="#FFFFFF" fill-rule="nonzero">
                    <rect id="Rectangle" x="2.14626391" y="0" width="1.19236884" height="1.94444444" rx="0.589912286"></rect>
                    <rect id="Rectangle" x="2.14626391" y="3.47643098" width="1.19236884" height="1.94444444" rx="0.589912286"></rect>
                    <rect id="Rectangle" x="3.51748808" y="2.12121212" width="1.96740859" height="1.17845118" rx="0.589225589"></rect>
                    <rect id="Rectangle" x="0" y="2.12121212" width="1.96740859" height="1.17845118" rx="0.589225589"></rect>
                </g>
            </g>
        </g>
    </g>
</svg>
