<?xml version="1.0" encoding="UTF-8"?>
<svg width="72px" height="72px" viewBox="0 0 102 102" version="1.1" xmlns="http://www.w3.org/2000/svg" xmlns:xlink="http://www.w3.org/1999/xlink">
    <title>Counter / 6</title>
    <defs>
        <linearGradient x1="10.2374417%" y1="10.4471997%" x2="109.528783%" y2="66.024847%" id="linearGradient-1">
            <stop stop-color="#FFFFFF" offset="0%"></stop>
            <stop stop-color="#F6F6F6" offset="100%"></stop>
        </linearGradient>
        <linearGradient x1="50%" y1="0%" x2="50%" y2="100%" id="linearGradient-2">
            <stop stop-color="#E44AE1" offset="0%"></stop>
            <stop stop-color="#C524C0" offset="100%"></stop>
        </linearGradient>
        <linearGradient x1="14.3749339%" y1="11.2756077%" x2="84.1101037%" y2="92.442812%" id="linearGradient-3">
            <stop stop-color="#FF60FA" offset="0%"></stop>
            <stop stop-color="#AE3EAB" offset="100%"></stop>
        </linearGradient>
        <linearGradient x1="15.475773%" y1="7.84004934%" x2="84.277143%" y2="89.7432947%" id="linearGradient-4">
            <stop stop-color="#D850D4" offset="0%"></stop>
            <stop stop-color="#F45CEF" offset="100%"></stop>
        </linearGradient>
        <circle id="path-5" cx="50" cy="50" r="38.8888889"></circle>
        <filter x="-6.1%" y="-6.1%" width="119.9%" height="119.9%" filterUnits="objectBoundingBox" id="filter-6">
            <feMorphology radius="0.25" operator="dilate" in="SourceAlpha" result="shadowSpreadOuter1"></feMorphology>
            <feOffset dx="3" dy="3" in="shadowSpreadOuter1" result="shadowOffsetOuter1"></feOffset>
            <feGaussianBlur stdDeviation="2" in="shadowOffsetOuter1" result="shadowBlurOuter1"></feGaussianBlur>
            <feComposite in="shadowBlurOuter1" in2="SourceAlpha" operator="out" result="shadowBlurOuter1"></feComposite>
            <feColorMatrix values="0 0 0 0 0   0 0 0 0 0   0 0 0 0 0  0 0 0 0.14920236 0" type="matrix" in="shadowBlurOuter1"></feColorMatrix>
        </filter>
    </defs>
    <g id="Work" stroke="none" stroke-width="1" fill="none" fill-rule="evenodd">
        <g id="Awards" transform="translate(-2016.000000, -153.000000)">
            <g id="Counter-/-6" transform="translate(2017.000000, 154.000000)">
                <g id="Award-/-Purple-/-Active-Copy-13">
                    <circle id="Oval-Copy" stroke="url(#linearGradient-2)" stroke-width="1.2195122" fill="url(#linearGradient-1)" cx="50" cy="50" r="49.3902439"></circle>
                    <circle id="Oval-Copy-4" stroke="#B240AF" stroke-width="0.555555556" fill="url(#linearGradient-3)" cx="50" cy="50" r="50"></circle>
                    <g id="Oval-Copy-5">
                        <use fill="black" fill-opacity="1" filter="url(#filter-6)" xlink:href="#path-5"></use>
                        <use stroke="url(#linearGradient-4)" stroke-width="0.5" fill="url(#linearGradient-3)" fill-rule="evenodd" xlink:href="#path-5"></use>
                    </g>
                    <path d="M85.4021762,70.1549516 C85.3658645,70.037504 85.2658013,69.9540876 85.1480295,69.9430856 L83.5446832,69.7911315 L82.9107052,68.2423596 C82.8641411,68.1289878 82.7573061,68.0555556 82.6391224,68.0555556 C82.5209387,68.0555556 82.4141639,68.129188 82.3676923,68.2426012 L81.7337143,69.7911315 L80.1301366,69.9430856 C80.0122602,69.9540101 79.9120357,70.03737 79.8755223,70.1548565 C79.8390088,70.272343 79.8732686,70.4012327 79.9625572,70.482293 L81.174499,71.5916302 L80.8171197,73.2346185 C80.7908538,73.3548424 80.835818,73.4798295 80.931406,73.5523006 C81.0269939,73.6247717 81.1547813,73.630758 81.2562056,73.5675163 L82.6391988,72.7048327 L84.0217291,73.5675163 C84.1231853,73.6306667 84.2509357,73.6246471 84.3465271,73.5522117 C84.4421184,73.4797762 84.4871614,73.3548596 84.4610464,73.2346185 L84.1036671,71.5916302 L85.3156089,70.4825346 C85.4047223,70.401122 85.4387474,70.2726012 85.4021762,70.1549516 Z" id="Path-Copy-2" fill="#FFFFFF" fill-rule="nonzero"></path>
                    <path d="M23.5966206,22.9327294 C23.560309,22.8152818 23.4602457,22.7318654 23.3424739,22.7208634 L21.7391276,22.5689093 L21.1051497,21.0201374 C21.0585855,20.9067655 20.9517506,20.8333333 20.8335669,20.8333333 C20.7153832,20.8333333 20.6086083,20.9069657 20.5621368,21.020379 L19.9281588,22.5689093 L18.324581,22.7208634 C18.2067046,22.7317879 18.1064802,22.8151478 18.0699667,22.9326343 C18.0334533,23.0501208 18.067713,23.1790104 18.1570016,23.2600708 L19.3689435,24.369408 L19.0115641,26.0123963 C18.9852983,26.1326202 19.0302624,26.2576073 19.1258504,26.3300784 C19.2214384,26.4025494 19.3492257,26.4085358 19.45065,26.345294 L20.8336432,25.4826104 L22.2161735,26.345294 C22.3176298,26.4084445 22.4453802,26.4024249 22.5409715,26.3299894 C22.6365628,26.257554 22.6816059,26.1326374 22.6554908,26.0123963 L22.2981115,24.369408 L23.5100533,23.2603124 C23.5991667,23.1788998 23.6331918,23.050379 23.5966206,22.9327294 Z" id="Path-Copy-3" fill="#FFFFFF" fill-rule="nonzero"></path>
                </g>
                <g id="Group-2" transform="translate(20.833333, 27.777778)" fill-rule="nonzero">
                    <rect id="Rectangle" fill="#FFFFFF" x="2.34375" y="32.8121613" width="1.30208333" height="2.18991415" rx="0.651041667"></rect>
                    <rect id="Rectangle" fill="#FFFFFF" x="2.34375" y="36.7274624" width="1.30208333" height="2.18991415" rx="0.651041667"></rect>
                    <rect id="Rectangle" fill="#FFFFFF" x="3.84114583" y="35.2011586" width="2.1484375" height="1.3272207" rx="0.661375661"></rect>
                    <rect id="Rectangle" fill="#FFFFFF" x="0" y="35.2011586" width="2.1484375" height="1.3272207" rx="0.661375661"></rect>
                    <rect id="Rectangle" fill="#FFFFFF" x="54.6875" y="14.5018698" width="1.30208333" height="2.18991415" rx="0.651041667"></rect>
                    <rect id="Rectangle" fill="#FFFFFF" x="54.6875" y="18.4835319" width="1.30208333" height="2.18991415" rx="0.651041667"></rect>
                    <rect id="Rectangle" fill="#FFFFFF" x="56.1848958" y="16.9572281" width="2.1484375" height="1.3272207" rx="0.661375661"></rect>
                    <rect id="Rectangle" fill="#FFFFFF" x="52.34375" y="16.9572281" width="2.1484375" height="1.3272207" rx="0.661375661"></rect>
                    <path d="M50.0195195,17.9226873 C51.8453453,19.9562223 51.8453453,23.0549424 50.0195195,25.0884775 C48.5780781,26.6378375 47.9054054,28.7682076 48.0975976,30.8017426 C48.0975976,30.8017426 48.0975976,30.8985776 48.0975976,30.8985776 C48.481982,33.6099577 46.6561562,36.1276678 43.9654655,36.7086778 C43.9654655,36.7086778 43.9654655,36.7086778 43.8693694,36.7086778 C41.3708709,37.1928528 40.0255255,38.6453779 38.7762763,40.6789129 C37.2387387,42.906118 34.451952,43.680798 32.2417417,42.518778 C32.2417417,42.518778 32.1456456,42.518778 32.1456456,42.518778 C32.0495495,42.421943 31.8573574,42.421943 31.7612613,42.325108 C29.9354354,41.647263 27.9174174,41.647263 26.1876877,42.518778 C26.1876877,42.518778 26.0915916,42.518778 26.0915916,42.518778 C25.7072072,42.712448 25.4189189,42.809283 25.0345345,42.906118 C23.1126126,43.293458 20.9984985,42.615613 19.7492492,40.8725829 C19.1726727,40.0979029 18.0195195,37.3865228 14.463964,36.7086778 C14.463964,36.7086778 14.463964,36.7086778 14.3678679,36.7086778 C11.7732733,36.2245028 9.94744745,33.7067927 10.2357357,30.9954127 C10.2357357,30.9954127 10.2357357,30.8985776 10.2357357,30.8985776 C10.524024,28.7682076 9.85135135,26.6378375 8.31381381,25.0884775 C6.48798799,23.0549424 6.48798799,19.9562223 8.31381381,17.9226873 C8.31381381,17.9226873 8.40990991,17.8258523 8.40990991,17.8258523 C9.85135135,16.2764922 10.524024,14.1461222 10.2357357,12.1125871 C10.2357357,12.1125871 10.2357357,12.0157521 10.2357357,12.0157521 C9.94744745,9.30437204 11.7732733,6.78666196 14.463964,6.30248695 C14.463964,6.30248695 14.5600601,6.30248695 14.5600601,6.30248695 C16.6741742,5.91514694 18.4039039,4.5594569 19.3648649,2.71959185 C19.3648649,2.71959185 19.3648649,2.62275685 19.3648649,2.62275685 C20.7102102,0.29871678 23.6891892,-0.669633247 26.0915916,0.492386786 C28.0135135,1.36390181 30.2237237,1.36390181 32.1456456,0.492386786 C34.6441441,-0.669633247 37.6231231,0.29871678 38.9684685,2.71959185 C38.9684685,2.71959185 38.9684685,2.71959185 38.9684685,2.81642685 C39.9294294,4.6562919 41.7552553,5.91514694 43.7732733,6.30248695 C43.7732733,6.30248695 43.8693694,6.30248695 43.8693694,6.30248695 C46.5600601,6.78666196 48.3858859,9.40120704 48.0975976,12.1125871 C48.0975976,12.1125871 48.0975976,12.2094221 48.0975976,12.2094221 C47.9054054,14.2429572 48.5780781,16.3733272 50.0195195,17.9226873 Z" id="Path" stroke="#FFFFFF" stroke-width="1.38888889"></path>
                    <path d="M4.75260417,3.61330598 C5.01302083,3.14877874 5.20833333,2.6842515 5.46875,2.28608529 L4.36197917,1.5561139 C4.1015625,2.02064115 3.84114583,2.48516839 3.58072917,3.01605667 L4.75260417,3.61330598 Z" id="Path" fill="#FFFFFF"></path>
                    <path d="M2.9296875,4.47599944 C1.953125,6.8649967 1.49739583,9.32035499 1.49739583,11.9084353 L2.79947917,11.9084353 C2.79947917,9.51943809 3.25520833,7.19680187 4.1015625,5.00688772 L2.9296875,4.47599944 Z" id="Path" fill="#FFFFFF"></path>
                    <path d="M49.9348958,45.0943069 C50.3255208,44.7625017 50.7161458,44.3643355 51.1067708,44.0325303 L50.1953125,43.1034758 C49.8697917,43.435281 49.4791667,43.7670862 49.0885417,44.0988913 L49.9348958,45.0943069 Z" id="Path" fill="#FFFFFF"></path>
                    <path d="M52.4739583,42.5062265 C54.0364583,40.5817565 55.2083333,38.3918423 55.9895833,36.0028451 L54.7526042,35.6046789 C54.0364583,37.794593 52.9947917,39.8517851 51.4973958,41.7098941 L52.4739583,42.5062265 Z" id="Path" fill="#FFFFFF"></path>
                </g>
            </g>
        </g>
    </g>
</svg>
