<?xml version="1.0" encoding="UTF-8"?>
<svg width="72px" height="72px" viewBox="0 0 72 72" version="1.1" xmlns="http://www.w3.org/2000/svg" xmlns:xlink="http://www.w3.org/1999/xlink">
    <title>7F740882-C2C7-4476-BC63-E457A231B2A5</title>
    <defs>
        <linearGradient x1="10.2374417%" y1="10.4471997%" x2="109.528783%" y2="66.024847%" id="linearGradient-1">
            <stop stop-color="#FF60FA" offset="0%"></stop>
            <stop stop-color="#AA3CA7" offset="100%"></stop>
        </linearGradient>
        <path d="M39.9512195,2.28123765 L63.225695,15.7187624 C65.6707182,17.1303971 67.1769145,19.7392058 67.1769145,22.5624753 L67.1769145,49.4375247 C67.1769145,52.2607942 65.6707182,54.8696029 63.225695,56.2812376 L39.9512195,69.7187624 C37.5061964,71.1303971 34.4938036,71.1303971 32.0487805,69.7187624 L8.77430498,56.2812376 C6.32928183,54.8696029 4.82308546,52.2607942 4.82308546,49.4375247 L4.82308546,22.5624753 C4.82308546,19.7392058 6.32928183,17.1303971 8.77430498,15.7187624 L32.0487805,2.28123765 C34.4938036,0.869602879 37.5061964,0.869602879 39.9512195,2.28123765 Z" id="path-2"></path>
    </defs>
    <g id="Green-on-White" stroke="none" stroke-width="1" fill="none" fill-rule="evenodd">
        <g id="Awards" transform="translate(-302.000000, -53.000000)">
            <g id="P---Award---1.4" transform="translate(302.000000, 53.000000)">
                <g id="Polygon">
                    <use fill="#CC48C8" xlink:href="#path-2"></use>
                    <path stroke="#C524C0" stroke-width="0.87804878" d="M32.2682927,2.66144392 C34.5774812,1.32823331 37.4225188,1.32823331 39.7317073,2.66144392 L39.7317073,2.66144392 L63.0061828,16.0989686 C64.1607771,16.7655739 65.0937039,17.7148453 65.7379822,18.830768 C66.3822604,19.9466907 66.7378901,21.2292647 66.7378901,22.5624753 L66.7378901,22.5624753 L66.7378901,49.4375247 C66.7378901,50.7707353 66.3822604,52.0533093 65.7379822,53.169232 C65.0937039,54.2851547 64.1607771,55.2344261 63.0061828,55.9010314 L63.0061828,55.9010314 L39.7317073,69.3385561 C37.4225188,70.6717667 34.5774812,70.6717667 32.2682927,69.3385561 L32.2682927,69.3385561 L8.99381717,55.9010314 C6.68462865,54.5678208 5.26210985,52.1039459 5.26210985,49.4375247 L5.26210985,49.4375247 L5.26210985,22.5624753 C5.26210985,21.2292647 5.61773955,19.9466907 6.26201782,18.830768 C6.90629608,17.7148453 7.83922291,16.7655739 8.99381717,16.0989686 L8.99381717,16.0989686 Z" stroke-linejoin="square" fill="url(#linearGradient-1)"></path>
                </g>
                <g id="badge-2261240" transform="translate(23.000000, 22.000000)" fill="#FFFFFF" fill-rule="nonzero">
                    <path d="M10.2180654,23.5364088 L10.3780654,23.6864088 L5.37806541,28.6864088 C5.15401787,28.8904011 4.83303476,28.9482743 4.55185167,28.8353751 C4.27066858,28.7224758 4.07883318,28.4586982 4.05806541,28.1564088 L3.92806541,25.7364088 C3.8966518,25.3292184 3.55646391,25.0151988 3.14806541,25.0164088 L0.738065411,24.8764088 C0.430761059,24.8598546 0.161917111,24.6641559 0.0517309419,24.3768077 C-0.0584552269,24.0894595 0.0106167154,23.764184 0.228065411,23.5464088 L3.54806541,20.2264088 C4.30055888,21.4726219 5.65229689,22.2320253 7.10806541,22.2264088 L8.90806541,22.2264088 L10.2180654,23.5364088 Z M25.5180654,24.8764088 L23.1480654,25.0164088 C22.7515745,25.0359807 22.4330297,25.3502209 22.4080654,25.7464088 L22.2380654,28.1564088 C22.216552,28.4634494 22.0186678,28.73004 21.7310047,28.8395237 C21.4433416,28.9490074 21.1182809,28.8814481 20.8980654,28.6664088 L15.8980654,23.6664088 L16.0580654,23.5164088 L17.3280654,22.2464088 L19.1480654,22.2464088 C20.6038339,22.2520253 21.9555719,21.4926219 22.7080654,20.2464088 L26.0280654,23.5664088 C26.2326184,23.7854863 26.2935445,24.102397 26.1848064,24.3817049 C26.0760682,24.6610128 25.8169018,24.8533072 25.5180654,24.8764088 L25.5180654,24.8764088 Z" id="Shape"></path>
                    <path d="M24.2080654,9.55640877 L22.7880654,8.15640877 L22.7880654,6.15640877 C22.7960649,5.18583333 22.4161004,4.25225938 21.732599,3.56312474 C21.0490976,2.87399011 20.1186738,2.4863758 19.1480654,2.48640877 L17.1480654,2.48640877 L15.7180654,1.06640877 C15.0370497,0.383690546 14.1123717,1.77635684e-15 13.1480654,1.77635684e-15 C12.1837591,1.77635684e-15 11.2590812,0.383690546 10.5780654,1.06640877 L9.14806541,2.48640877 L7.14806541,2.48640877 C6.177457,2.4863758 5.24703317,2.87399011 4.56353179,3.56312474 C3.88003041,4.25225938 3.50006589,5.18583333 3.50806541,6.15640877 L3.50806541,8.15640877 L2.08806541,9.55640877 C1.40534719,10.2374245 1.02165664,11.1621025 1.02165664,12.1264088 C1.02165664,13.0907151 1.40534719,14.015393 2.08806541,14.6964088 L3.50806541,16.1564088 L3.50806541,18.1564088 C3.50504666,18.7643073 3.65644449,19.3630169 3.94806541,19.8964088 C4.58750202,21.0668067 5.81438281,21.7952672 7.14806541,21.7964088 L9.14806541,21.7964088 L10.5780654,23.1564088 C10.6266188,23.2082714 10.6802166,23.2551695 10.7380654,23.2964088 C12.1094499,24.5260755 14.1866809,24.5260755 15.5580654,23.2964088 C15.6159142,23.2551695 15.669512,23.2082714 15.7180654,23.1564088 L17.1480654,21.7664088 L19.1480654,21.7664088 C20.481748,21.7652672 21.7086288,21.0368067 22.3480654,19.8664088 C22.6348049,19.3419282 22.7860459,18.7541506 22.7880654,18.1564088 L22.7880654,16.1564088 L24.2080654,14.7364088 C24.9031297,14.0538546 25.2946818,13.1205723 25.2946818,12.1464088 C25.2946818,11.1722452 24.9031297,10.2389629 24.2080654,9.55640877 Z M19.9180654,13.6964088 L19.0480654,14.5664088 L19.0480654,15.7964088 C19.0480654,17.0280038 18.0496604,18.0264088 16.8180654,18.0264088 L15.5880654,18.0264088 L14.7180654,18.8964088 C13.8476207,19.7648167 12.4385101,19.7648167 11.5680654,18.8964088 L10.6980654,18.0264088 L9.47806541,18.0264088 C8.24647042,18.0264088 7.24806541,17.0280038 7.24806541,15.7964088 L7.24806541,14.5664088 L6.37806541,13.6964088 C5.50965752,12.8259641 5.50965752,11.4168535 6.37806541,10.5464088 L7.24806541,9.67640877 L7.24806541,8.45640877 C7.24806541,7.22481378 8.24647042,6.22640877 9.47806541,6.22640877 L10.7080654,6.22640877 L11.5780654,5.35640877 C12.4485101,4.48800088 13.8576207,4.48800088 14.7280654,5.35640877 L15.5980654,6.22640877 L16.8280654,6.22640877 C18.0557534,6.23191415 19.0480778,7.22870847 19.0480654,8.45640877 L19.0480654,9.68640877 L19.9180654,10.5564088 C20.7798432,11.4256882 20.7798432,12.8271293 19.9180654,13.6964088 Z" id="Shape"></path>
                    <circle id="Oval" cx="13.1480654" cy="12.1264088" r="3.33"></circle>
                </g>
            </g>
        </g>
    </g>
</svg>