<?xml version="1.0" encoding="UTF-8"?>
<svg width="72px" height="72px" viewBox="0 0 72 72" version="1.1" xmlns="http://www.w3.org/2000/svg" xmlns:xlink="http://www.w3.org/1999/xlink">
    <title>5F41C908-F57B-481D-A7C3-32E02479EC52</title>
    <defs>
        <linearGradient x1="10.2374417%" y1="10.4471997%" x2="109.528783%" y2="66.024847%" id="linearGradient-1">
            <stop stop-color="#FF60FA" offset="0%"></stop>
            <stop stop-color="#AA3CA7" offset="100%"></stop>
        </linearGradient>
        <path d="M39.9512195,2.28123765 L63.225695,15.7187624 C65.6707182,17.1303971 67.1769145,19.7392058 67.1769145,22.5624753 L67.1769145,49.4375247 C67.1769145,52.2607942 65.6707182,54.8696029 63.225695,56.2812376 L39.9512195,69.7187624 C37.5061964,71.1303971 34.4938036,71.1303971 32.0487805,69.7187624 L8.77430498,56.2812376 C6.32928183,54.8696029 4.82308546,52.2607942 4.82308546,49.4375247 L4.82308546,22.5624753 C4.82308546,19.7392058 6.32928183,17.1303971 8.77430498,15.7187624 L32.0487805,2.28123765 C34.4938036,0.869602879 37.5061964,0.869602879 39.9512195,2.28123765 Z" id="path-2"></path>
    </defs>
    <g id="Green-on-White" stroke="none" stroke-width="1" fill="none" fill-rule="evenodd">
        <g id="Awards" transform="translate(-126.000000, -229.000000)">
            <g id="P---Award---1.22" transform="translate(126.000000, 229.000000)">
                <g id="Polygon">
                    <use fill="#CC48C8" xlink:href="#path-2"></use>
                    <path stroke="#C524C0" stroke-width="0.87804878" d="M32.2682927,2.66144392 C34.5774812,1.32823331 37.4225188,1.32823331 39.7317073,2.66144392 L39.7317073,2.66144392 L63.0061828,16.0989686 C64.1607771,16.7655739 65.0937039,17.7148453 65.7379822,18.830768 C66.3822604,19.9466907 66.7378901,21.2292647 66.7378901,22.5624753 L66.7378901,22.5624753 L66.7378901,49.4375247 C66.7378901,50.7707353 66.3822604,52.0533093 65.7379822,53.169232 C65.0937039,54.2851547 64.1607771,55.2344261 63.0061828,55.9010314 L63.0061828,55.9010314 L39.7317073,69.3385561 C37.4225188,70.6717667 34.5774812,70.6717667 32.2682927,69.3385561 L32.2682927,69.3385561 L8.99381717,55.9010314 C6.68462865,54.5678208 5.26210985,52.1039459 5.26210985,49.4375247 L5.26210985,49.4375247 L5.26210985,22.5624753 C5.26210985,21.2292647 5.61773955,19.9466907 6.26201782,18.830768 C6.90629608,17.7148453 7.83922291,16.7655739 8.99381717,16.0989686 L8.99381717,16.0989686 Z" stroke-linejoin="square" fill="url(#linearGradient-1)"></path>
                </g>
                <g id="flag-2261242" transform="translate(23.000000, 21.000000)" fill="#FFFFFF" fill-rule="nonzero">
                    <path d="M16.9902458,9.41 L16.9902458,2.69 C16.9902458,2.22055796 16.6096878,1.84 16.1402458,1.84 L4.14024579,1.84 L4.14024579,10.3000005 L16.1402458,10.3000005 C16.3727845,10.3002576 16.5952755,10.2052345 16.7558829,10.0370692 C16.9164903,9.86890377 17.0011889,9.64228124 16.9902458,9.41 L16.9902458,9.41 Z" id="Path"></path>
                    <path d="M22.9802458,9.89 C22.7110112,9.57275646 22.7110112,9.10724354 22.9802458,8.79 L24.9102458,6.51 C25.1236285,6.25859755 25.1723543,5.9064658 25.0352573,5.60656616 C24.8981603,5.30666652 24.5999815,5.11311974 24.2702458,5.11 L17.4902458,5.11 L17.4902458,9.41 C17.4848,10.153317 16.8835628,10.7545542 16.1402458,10.76 L12.6402458,10.76 L12.6402458,12.76 C12.6402458,12.985434 12.7297991,13.2016348 12.889205,13.3610408 C13.0486109,13.5204467 13.2648118,13.61 13.4902458,13.61 L24.2702458,13.61 C24.5999815,13.6068803 24.8981603,13.4133335 25.0352573,13.1134338 C25.1723543,12.8135342 25.1236285,12.4614025 24.9102458,12.21 L22.9802458,9.89 Z M3.57024579,24.69 L3.57024579,24.69 L3.57024579,1.08 C3.57024579,0.48353247 3.08671332,0 2.49024579,0 C1.89377826,0 1.41024579,0.48353247 1.41024579,1.08 L1.41024579,24.69 L1.41024579,24.69 C0.363421274,25.1939112 -0.195800673,26.3547797 0.0626295446,27.4874675 C0.321059762,28.6201554 1.32845062,29.4235909 2.49024579,29.4235909 C3.65204096,29.4235909 4.65943182,28.6201554 4.91786204,27.4874675 C5.17629225,26.3547797 4.61707031,25.1939112 3.57024579,24.69 L3.57024579,24.69 Z" id="Shape"></path>
                </g>
            </g>
        </g>
    </g>
</svg>