<?xml version="1.0" encoding="UTF-8"?>
<svg width="72px" height="72px" viewBox="0 0 72 72" version="1.1" xmlns="http://www.w3.org/2000/svg" xmlns:xlink="http://www.w3.org/1999/xlink">
    <title>CF85C7EC-C2F7-40CB-9D03-26B52CCD3ED6</title>
    <defs>
        <linearGradient x1="10.2374417%" y1="10.4471997%" x2="109.528783%" y2="66.024847%" id="linearGradient-1">
            <stop stop-color="#FF60FA" offset="0%"></stop>
            <stop stop-color="#AA3CA7" offset="100%"></stop>
        </linearGradient>
        <path d="M39.9512195,2.28123765 L63.225695,15.7187624 C65.6707182,17.1303971 67.1769145,19.7392058 67.1769145,22.5624753 L67.1769145,49.4375247 C67.1769145,52.2607942 65.6707182,54.8696029 63.225695,56.2812376 L39.9512195,69.7187624 C37.5061964,71.1303971 34.4938036,71.1303971 32.0487805,69.7187624 L8.77430498,56.2812376 C6.32928183,54.8696029 4.82308546,52.2607942 4.82308546,49.4375247 L4.82308546,22.5624753 C4.82308546,19.7392058 6.32928183,17.1303971 8.77430498,15.7187624 L32.0487805,2.28123765 C34.4938036,0.869602879 37.5061964,0.869602879 39.9512195,2.28123765 Z" id="path-2"></path>
        <linearGradient x1="50.0278631%" y1="99.9999783%" x2="50.0278631%" y2="0.000371229569%" id="linearGradient-3">
            <stop stop-color="#12C2E9" offset="0%"></stop>
            <stop stop-color="#C471ED" offset="100%"></stop>
        </linearGradient>
        <linearGradient x1="50.0278631%" y1="99.9999783%" x2="50.0278631%" y2="0.000371229569%" id="linearGradient-4">
            <stop stop-color="#FFFFFF" offset="0%"></stop>
            <stop stop-color="#FFFFFF" offset="100%"></stop>
        </linearGradient>
    </defs>
    <g id="Green-on-White" stroke="none" stroke-width="1" fill="none" fill-rule="evenodd">
        <g id="Awards" transform="translate(-1521.000000, -508.000000)">
            <g id="P---Award---1.44" transform="translate(1521.000000, 508.000000)">
                <g id="Polygon">
                    <use fill="#CC48C8" xlink:href="#path-2"></use>
                    <path stroke="#C524C0" stroke-width="0.87804878" d="M32.2682927,2.66144392 C34.5774812,1.32823331 37.4225188,1.32823331 39.7317073,2.66144392 L39.7317073,2.66144392 L63.0061828,16.0989686 C64.1607771,16.7655739 65.0937039,17.7148453 65.7379822,18.830768 C66.3822604,19.9466907 66.7378901,21.2292647 66.7378901,22.5624753 L66.7378901,22.5624753 L66.7378901,49.4375247 C66.7378901,50.7707353 66.3822604,52.0533093 65.7379822,53.169232 C65.0937039,54.2851547 64.1607771,55.2344261 63.0061828,55.9010314 L63.0061828,55.9010314 L39.7317073,69.3385561 C37.4225188,70.6717667 34.5774812,70.6717667 32.2682927,69.3385561 L32.2682927,69.3385561 L8.99381717,55.9010314 C6.68462865,54.5678208 5.26210985,52.1039459 5.26210985,49.4375247 L5.26210985,49.4375247 L5.26210985,22.5624753 C5.26210985,21.2292647 5.61773955,19.9466907 6.26201782,18.830768 C6.90629608,17.7148453 7.83922291,16.7655739 8.99381717,16.0989686 L8.99381717,16.0989686 Z" stroke-linejoin="square" fill="url(#linearGradient-1)"></path>
                </g>
                <g id="badge-2728371" transform="translate(24.000000, 22.000000)" fill="url(#linearGradient-4)" fill-rule="nonzero">
                    <path d="M24.0752709,23.5602051 L20.7552709,15.5602051 L20.7552709,15.5602051 C21.1154682,15.0453164 21.2323853,14.398619 21.0752709,13.7902051 L20.7252709,11.6402051 L21.7252709,9.82020506 C22.2438532,8.92859623 22.0454654,7.79314286 21.2552709,7.13020506 L19.6952709,5.70020506 L19.3252709,3.64020506 C19.1499852,2.62295782 18.2675097,1.8798206 17.2352709,1.88020506 L15.0752709,1.85020506 L13.4452709,0.500205061 C13.0625493,0.176000214 12.576851,-0.00126193029 12.0752709,0.000100411293 C11.5730699,-0.00484257626 11.0861613,0.17286131 10.7052709,0.500205061 L9.01527095,1.88020506 L6.91527095,1.88020506 C5.88303217,1.8798206 5.00055672,2.62295782 4.82527095,3.64020506 L4.41527095,5.78020506 L2.80527095,7.13020506 C2.01507645,7.79314286 1.81668869,8.92859623 2.33527095,9.82020506 L3.39527095,11.7302051 L3.07527095,13.7902051 C2.96843611,14.3845045 3.1213346,14.9960984 3.49527095,15.4702051 L0.0752709464,23.5602051 C-0.0787884031,23.9345752 0.0080656326,24.3648975 0.295270946,24.6502051 C0.582831646,24.9339496 1.01287385,25.0168018 1.38527095,24.8602051 C4.54527095,23.5402051 6.58527095,24.3802051 7.98527095,27.5902051 C8.14482408,27.9557938 8.5063845,28.1915941 8.90527095,28.1902112 L8.90527095,28.1902112 C9.30532077,28.1841905 9.66328005,27.9403061 9.81527095,27.5702051 L12.0752709,22.2102051 L14.2852709,27.5702051 C14.4372618,27.9403061 14.7952211,28.1841905 15.1952709,28.1902112 L15.1952709,28.1902112 C15.5941574,28.1915941 15.9557178,27.9557938 16.1152709,27.5902051 C17.5152709,24.3802051 19.5552709,23.5402051 22.7152709,24.8602051 C23.087668,25.0168018 23.5177102,24.9339496 23.8052709,24.6502051 C24.1100332,24.3764704 24.217024,23.9445444 24.0752709,23.5602051 Z M8.80527095,24.9002051 C7.52647928,22.8911741 5.1350897,21.8867905 2.80527095,22.3802051 L5.24527095,16.4702051 L6.47527095,16.9402051 L7.52527095,18.7502051 C7.90213742,19.4112334 8.60435935,19.8195907 9.36527095,19.8202051 C9.61458016,19.8227518 9.86216768,19.7786609 10.0952709,19.6902051 L11.0952709,19.3302051 L8.80527095,24.9002051 Z M8.67527095,14.9002051 L9.32527095,11.1202051 L6.58527095,8.44020506 L10.3752709,7.89020506 L12.0752709,4.47020506 L13.7752709,7.91020506 L17.5652709,8.46020506 L14.8252709,11.1402051 L15.4752709,14.9202051 L12.0752709,13.1302051 L8.67527095,14.9002051 Z M15.3452709,24.9002051 L13.0752709,19.3102051 L14.1252709,19.6902051 C15.0965383,20.0413891 16.1797964,19.6451779 16.6952709,18.7502051 L17.8052709,16.8802051 L18.9652709,16.4602051 L21.4152709,22.3802051 C19.0628607,21.8548451 16.6339145,22.8632379 15.3452709,24.9002051 L15.3452709,24.9002051 Z" id="Shape"></path>
                </g>
            </g>
        </g>
    </g>
</svg>