<?xml version="1.0" encoding="UTF-8"?>
<svg width="72px" height="72px" viewBox="0 0 72 72" version="1.1" xmlns="http://www.w3.org/2000/svg" xmlns:xlink="http://www.w3.org/1999/xlink">
    <title>D62E33B6-CB84-4686-A4D7-67EA4BB78889</title>
    <defs>
        <linearGradient x1="10.2374417%" y1="10.4471997%" x2="109.528783%" y2="66.024847%" id="linearGradient-1">
            <stop stop-color="#51D3FF" offset="0%"></stop>
            <stop stop-color="#32A1C7" offset="100%"></stop>
        </linearGradient>
        <path d="M39.9512195,2.28123765 L63.225695,15.7187624 C65.6707182,17.1303971 67.1769145,19.7392058 67.1769145,22.5624753 L67.1769145,49.4375247 C67.1769145,52.2607942 65.6707182,54.8696029 63.225695,56.2812376 L39.9512195,69.7187624 C37.5061964,71.1303971 34.4938036,71.1303971 32.0487805,69.7187624 L8.77430498,56.2812376 C6.32928183,54.8696029 4.82308546,52.2607942 4.82308546,49.4375247 L4.82308546,22.5624753 C4.82308546,19.7392058 6.32928183,17.1303971 8.77430498,15.7187624 L32.0487805,2.28123765 C34.4938036,0.869602879 37.5061964,0.869602879 39.9512195,2.28123765 Z" id="path-2"></path>
    </defs>
    <g id="Green-on-White" stroke="none" stroke-width="1" fill="none" fill-rule="evenodd">
        <g id="Awards---B" transform="translate(-126.000000, -317.000000)">
            <g id="B---Award---1.26" transform="translate(126.000000, 317.000000)">
                <g id="Polygon">
                    <use fill="#CC48C8" xlink:href="#path-2"></use>
                    <path stroke="#24A0CB" stroke-width="0.87804878" d="M32.2682927,2.66144392 C34.5774812,1.32823331 37.4225188,1.32823331 39.7317073,2.66144392 L39.7317073,2.66144392 L63.0061828,16.0989686 C64.1607771,16.7655739 65.0937039,17.7148453 65.7379822,18.830768 C66.3822604,19.9466907 66.7378901,21.2292647 66.7378901,22.5624753 L66.7378901,22.5624753 L66.7378901,49.4375247 C66.7378901,50.7707353 66.3822604,52.0533093 65.7379822,53.169232 C65.0937039,54.2851547 64.1607771,55.2344261 63.0061828,55.9010314 L63.0061828,55.9010314 L39.7317073,69.3385561 C37.4225188,70.6717667 34.5774812,70.6717667 32.2682927,69.3385561 L32.2682927,69.3385561 L8.99381717,55.9010314 C6.68462865,54.5678208 5.26210985,52.1039459 5.26210985,49.4375247 L5.26210985,49.4375247 L5.26210985,22.5624753 C5.26210985,21.2292647 5.61773955,19.9466907 6.26201782,18.830768 C6.90629608,17.7148453 7.83922291,16.7655739 8.99381717,16.0989686 L8.99381717,16.0989686 Z" stroke-linejoin="square" fill="url(#linearGradient-1)"></path>
                </g>
                <g id="star-trophy" transform="translate(24.000000, 23.000000)" fill="#FFFFFF" fill-rule="nonzero">
                    <path d="M23.1214854,26.3123438 L20.2100371,22.7432812 C20.129443,22.64625 20.0063236,22.5871875 19.8790027,22.5871875 L3.53103448,22.5871875 C3.39951194,22.5871875 3.2806366,22.64625 3.2,22.7432812 L0.288594164,26.3123438 C0.186737401,26.4389062 0.165517241,26.611875 0.233421751,26.7595313 C0.305570292,26.9071875 0.454111406,27 0.619628647,27 L22.7904509,27 C22.9559257,27 23.1045093,26.9071875 23.1723714,26.7595313 C23.2445199,26.611875 23.2233422,26.4389063 23.1214854,26.3123438 Z M17.1087533,25.2159328 L6.29890716,25.2159328 L6.29890716,24.3721828 L17.1087533,24.3721828 L17.1087533,25.2159328 Z" id="Shape"></path>
                    <polygon id="Path" points="21.1522546 20.5621875 21.1522546 21.4059375 2.25782493 21.4059375 2.25782493 20.5621875 9.13740053 20.5621875 10.0201592 16.2253125 11.7007958 15.3478125 13.3856764 16.2295313 14.272679 20.5621875"></polygon>
                    <path d="M4.88908223,12.9473438 C4.88908223,13.179375 4.70230239,13.3692188 4.46467905,13.3692188 C3.55734748,13.3692188 2.86896552,14.0061656 2.86896552,14.7445313 C2.86896552,14.9765625 2.67794164,15.1664063 2.44456233,15.1664063 C2.21114058,15.1664063 2.02015915,14.9765625 2.02015915,14.7445313 C2.02015915,13.9851563 1.30287533,13.3692188 0.424403183,13.3692188 C0.190981432,13.3692188 0,13.179375 0,12.9473438 C0,12.7153125 0.190981432,12.5254688 0.424403183,12.5254688 C1.29005836,12.5254688 2.02015915,11.9227359 2.02015915,11.154375 C2.02015915,10.918125 2.21114058,10.7325 2.44456233,10.7325 C2.67794164,10.7325 2.86896552,10.918125 2.86896552,11.154375 C2.86896552,11.9297813 3.60704509,12.5254688 4.46467905,12.5254688 C4.70234483,12.5254688 4.88908223,12.7153125 4.88908223,12.9473438 Z M24,2.39625 C24,2.62828125 23.8089761,2.818125 23.5755968,2.818125 C22.6475968,2.818125 21.9755968,3.46836094 21.9755968,4.1934375 C21.9755968,4.42546875 21.7845729,4.6153125 21.5511936,4.6153125 C21.3178143,4.6153125 21.1267905,4.42546875 21.1267905,4.1934375 C21.1267905,3.4340625 20.4095066,2.818125 19.5310345,2.818125 C19.2976552,2.818125 19.1066313,2.62828125 19.1066313,2.39625 C19.1066313,2.16421875 19.2976552,1.974375 19.5310345,1.974375 C20.4596711,1.974375 21.1267905,1.31717813 21.1267905,0.60328125 C21.1267905,0.36703125 21.3178143,0.18140625 21.5511936,0.18140625 C21.7845729,0.18140625 21.9755968,0.36703125 21.9755968,0.60328125 C21.9755968,1.32110156 22.6458143,1.974375 23.5755968,1.974375 C23.8089761,1.974375 24,2.16421875 24,2.39625 Z" id="Shape"></path>
                    <path d="M20.6047745,6.9440625 L16.4625995,10.951875 L17.4344403,16.621875 C17.4599469,16.7779688 17.3963289,16.9382813 17.2647215,17.0353125 C17.1372308,17.1247922 16.9719257,17.1458438 16.8190981,17.0648438 L11.7007958,14.394375 L6.59098143,17.0648438 C6.44668435,17.1407813 6.27267905,17.128125 6.1411565,17.0353125 C6.01383554,16.9382813 5.94593103,16.7779688 5.97559682,16.621875 L6.94748011,10.951875 L2.80530504,6.9440625 C2.69071618,6.83015625 2.6483183,6.66140625 2.69920424,6.50953125 C2.74593103,6.35765625 2.88174005,6.24375 3.03872679,6.22265625 L8.76392573,5.4 L11.3230769,0.23625 C11.390939,0.0928125 11.5395225,0 11.7007958,0 C11.862069,0 12.0106101,0.0928125 12.0827586,0.23625 L14.6419098,5.4 L20.3671088,6.22265625 C20.5283395,6.24375 20.6599045,6.35765625 20.7108329,6.50953125 C20.7617613,6.66140625 20.7193634,6.83015625 20.6047745,6.9440625 Z" id="Path"></path>
                </g>
            </g>
        </g>
    </g>
</svg>