<?xml version="1.0" encoding="UTF-8"?>
<svg width="72px" height="72px" viewBox="0 0 72 72" version="1.1" xmlns="http://www.w3.org/2000/svg" xmlns:xlink="http://www.w3.org/1999/xlink">
    <title>4267BC76-B7E3-48BB-AE14-63F6D00BD390</title>
    <defs>
        <linearGradient x1="10.2374417%" y1="10.4471997%" x2="109.528783%" y2="66.024847%" id="linearGradient-1">
            <stop stop-color="#FF60FA" offset="0%"></stop>
            <stop stop-color="#AA3CA7" offset="100%"></stop>
        </linearGradient>
        <path d="M39.9512195,2.28123765 L63.225695,15.7187624 C65.6707182,17.1303971 67.1769145,19.7392058 67.1769145,22.5624753 L67.1769145,49.4375247 C67.1769145,52.2607942 65.6707182,54.8696029 63.225695,56.2812376 L39.9512195,69.7187624 C37.5061964,71.1303971 34.4938036,71.1303971 32.0487805,69.7187624 L8.77430498,56.2812376 C6.32928183,54.8696029 4.82308546,52.2607942 4.82308546,49.4375247 L4.82308546,22.5624753 C4.82308546,19.7392058 6.32928183,17.1303971 8.77430498,15.7187624 L32.0487805,2.28123765 C34.4938036,0.869602879 37.5061964,0.869602879 39.9512195,2.28123765 Z" id="path-2"></path>
    </defs>
    <g id="Green-on-White" stroke="none" stroke-width="1" fill="none" fill-rule="evenodd">
        <g id="Awards" transform="translate(-38.000000, -53.000000)">
            <g id="P---Award---1.1" transform="translate(38.000000, 53.000000)">
                <g id="Polygon">
                    <use fill="#CC48C8" xlink:href="#path-2"></use>
                    <path stroke="#C524C0" stroke-width="0.87804878" d="M32.2682927,2.66144392 C34.5774812,1.32823331 37.4225188,1.32823331 39.7317073,2.66144392 L39.7317073,2.66144392 L63.0061828,16.0989686 C64.1607771,16.7655739 65.0937039,17.7148453 65.7379822,18.830768 C66.3822604,19.9466907 66.7378901,21.2292647 66.7378901,22.5624753 L66.7378901,22.5624753 L66.7378901,49.4375247 C66.7378901,50.7707353 66.3822604,52.0533093 65.7379822,53.169232 C65.0937039,54.2851547 64.1607771,55.2344261 63.0061828,55.9010314 L63.0061828,55.9010314 L39.7317073,69.3385561 C37.4225188,70.6717667 34.5774812,70.6717667 32.2682927,69.3385561 L32.2682927,69.3385561 L8.99381717,55.9010314 C6.68462865,54.5678208 5.26210985,52.1039459 5.26210985,49.4375247 L5.26210985,49.4375247 L5.26210985,22.5624753 C5.26210985,21.2292647 5.61773955,19.9466907 6.26201782,18.830768 C6.90629608,17.7148453 7.83922291,16.7655739 8.99381717,16.0989686 L8.99381717,16.0989686 Z" stroke-linejoin="square" fill="url(#linearGradient-1)"></path>
                </g>
                <g id="success-2261266" transform="translate(23.000000, 21.000000)" fill="#FFFFFF" fill-rule="nonzero">
                    <path d="M17.13,9.40999998 L17.13,2.68999998 C17.13,2.22055794 16.749442,1.83999998 16.28,1.83999998 L4.28,1.83999998 L4.28,10.3000005 L16.28,10.3000005 C16.5125387,10.3002576 16.7350297,10.2052345 16.8956371,10.0370691 C17.0562445,9.86890375 17.1409431,9.64228122 17.13,9.40999998 Z" id="Path"></path>
                    <path d="M12.78,10.76 L12.78,12.76 C12.78,13.229442 13.160558,13.61 13.63,13.61 L24.41,13.61 C24.7397357,13.6068802 25.0379145,13.4133335 25.1750115,13.1134338 C25.3121085,12.8135342 25.2633827,12.4614024 25.05,12.21 L23.12,9.88999998 C22.8507654,9.57275644 22.8507654,9.10724352 23.12,8.78999998 L25.05,6.50999998 C25.2633827,6.25859753 25.3121085,5.90646578 25.1750115,5.60656614 C25.0379145,5.3066665 24.7397357,5.11311972 24.41,5.10999998 L17.63,5.10999998 L17.63,9.40999998 C17.6245542,10.153317 17.023317,10.7545542 16.28,10.76 L12.78,10.76 Z M3.71,10.76 L3.71,1.07999998 C3.71,0.483532456 3.22646752,0 2.63,0 C2.03353248,0 1.55,0.483532456 1.55,1.07999998 L1.55,25.49 L3.71,25.49 L3.71,10.76 Z M19.39,19.82 C19.191593,19.8165898 18.9966572,19.8722858 18.83,19.98 L18.83,24.98 C18.8283104,25.1718661 18.7910116,25.3617507 18.72,25.54 L25.39,25.54 C25.5071618,25.3655259 25.5698152,25.160162 25.57,24.95 L25.57,20.95 C25.57,20.6671293 25.4569627,20.3959875 25.256006,20.196909 C25.0550494,19.9978304 24.7828581,19.8873314 24.5,19.89 L19.39,19.82 Z M12.15,15.77 C11.5629643,15.7754865 11.0899744,16.2529386 11.09,16.84 L11.09,24.93 C11.0865899,25.128407 11.1422858,25.3233428 11.25,25.49 L18.17,25.49 C18.2777142,25.3233428 18.3334101,25.128407 18.33,24.93 L18.33,16.84 C18.3300256,16.2529386 17.8570357,15.7754865 17.27,15.77 L12.15,15.77 Z M10.59,24.93 L10.59,22.18 C10.4233428,22.0722858 10.228407,22.0165898 10.03,22.02 L4.92,22.02 C4.66845003,22.0234745 4.42539507,22.1115379 4.23,22.27 L4.23,25.49 L10.71,25.49 C10.6355619,25.3124079 10.5948674,25.1225001 10.59,24.93 L10.59,24.93 Z" id="Shape"></path>
                    <rect id="Rectangle" x="0" y="25.99" width="29.42" height="3.22" rx="1.22"></rect>
                </g>
            </g>
        </g>
    </g>
</svg>