<?xml version="1.0" encoding="UTF-8"?>
<svg width="72px" height="72px" viewBox="0 0 72 72" version="1.1" xmlns="http://www.w3.org/2000/svg" xmlns:xlink="http://www.w3.org/1999/xlink">
    <title>4CAB01D4-E466-41F1-9D76-4A23A6E6CDE9</title>
    <defs>
        <linearGradient x1="10.2374417%" y1="10.4471997%" x2="109.528783%" y2="66.024847%" id="linearGradient-1">
            <stop stop-color="#51D3FF" offset="0%"></stop>
            <stop stop-color="#32A1C7" offset="100%"></stop>
        </linearGradient>
        <path d="M39.9512195,2.28123765 L63.225695,15.7187624 C65.6707182,17.1303971 67.1769145,19.7392058 67.1769145,22.5624753 L67.1769145,49.4375247 C67.1769145,52.2607942 65.6707182,54.8696029 63.225695,56.2812376 L39.9512195,69.7187624 C37.5061964,71.1303971 34.4938036,71.1303971 32.0487805,69.7187624 L8.77430498,56.2812376 C6.32928183,54.8696029 4.82308546,52.2607942 4.82308546,49.4375247 L4.82308546,22.5624753 C4.82308546,19.7392058 6.32928183,17.1303971 8.77430498,15.7187624 L32.0487805,2.28123765 C34.4938036,0.869602879 37.5061964,0.869602879 39.9512195,2.28123765 Z" id="path-2"></path>
        <linearGradient x1="50%" y1="100.063324%" x2="50%" y2="1.58873946e-15%" id="linearGradient-3">
            <stop stop-color="#12C2E9" offset="0%"></stop>
            <stop stop-color="#C471ED" offset="100%"></stop>
        </linearGradient>
        <linearGradient x1="50%" y1="100.063324%" x2="50%" y2="1.58873946e-15%" id="linearGradient-4">
            <stop stop-color="#FFFFFF" offset="0%"></stop>
            <stop stop-color="#FFFFFF" offset="100%"></stop>
        </linearGradient>
    </defs>
    <g id="Green-on-White" stroke="none" stroke-width="1" fill="none" fill-rule="evenodd">
        <g id="Awards---B" transform="translate(-1275.000000, -397.000000)">
            <g id="B---Award---1.38" transform="translate(1275.000000, 397.000000)">
                <g id="Polygon">
                    <use fill="#CC48C8" xlink:href="#path-2"></use>
                    <path stroke="#24A0CB" stroke-width="0.87804878" d="M32.2682927,2.66144392 C34.5774812,1.32823331 37.4225188,1.32823331 39.7317073,2.66144392 L39.7317073,2.66144392 L63.0061828,16.0989686 C64.1607771,16.7655739 65.0937039,17.7148453 65.7379822,18.830768 C66.3822604,19.9466907 66.7378901,21.2292647 66.7378901,22.5624753 L66.7378901,22.5624753 L66.7378901,49.4375247 C66.7378901,50.7707353 66.3822604,52.0533093 65.7379822,53.169232 C65.0937039,54.2851547 64.1607771,55.2344261 63.0061828,55.9010314 L63.0061828,55.9010314 L39.7317073,69.3385561 C37.4225188,70.6717667 34.5774812,70.6717667 32.2682927,69.3385561 L32.2682927,69.3385561 L8.99381717,55.9010314 C6.68462865,54.5678208 5.26210985,52.1039459 5.26210985,49.4375247 L5.26210985,49.4375247 L5.26210985,22.5624753 C5.26210985,21.2292647 5.61773955,19.9466907 6.26201782,18.830768 C6.90629608,17.7148453 7.83922291,16.7655739 8.99381717,16.0989686 L8.99381717,16.0989686 Z" stroke-linejoin="square" fill="url(#linearGradient-1)"></path>
                </g>
                <g id="medal-2728369" transform="translate(22.000000, 22.000000)" fill="url(#linearGradient-4)" fill-rule="nonzero">
                    <path d="M8,11 L3,11 C1.34314575,11 -4.4408921e-16,9.65685425 -4.4408921e-16,8 L-4.4408921e-16,3 C-4.4408921e-16,1.34314575 1.34314575,-4.4408921e-16 3,-4.4408921e-16 L8,-4.4408921e-16 L8,11 Z M25,-4.4408921e-16 L20,-4.4408921e-16 L20,11 L25,11 C26.6568542,11 28,9.65685425 28,8 L28,3 C28,1.34314575 26.6568542,-4.4408921e-16 25,-4.4408921e-16 L25,-4.4408921e-16 Z M22.05,16.34 L17.11,15.6 L14.9,11 L18,11 L18,-4.4408921e-16 L10,-4.4408921e-16 L10,11 L13.1,11 L10.89,15.6 L6,16.34 C5.62112704,16.4005403 5.31029741,16.6725162 5.2,17.04 C5.07107638,17.408786 5.16871825,17.8188819 5.45,18.09 L9,21.69 L8.16,26.76 C8.09920178,27.1415385 8.25284369,27.5256433 8.56,27.76 C8.86647703,27.983714 9.27316762,28.0146999 9.61,27.84 L14,25.45 L18.42,27.85 C18.7435674,28.0045544 19.1251194,27.9740302 19.42,27.77 C19.7271563,27.5356433 19.8807982,27.1515385 19.82,26.77 L19,21.69 L22.57,18.09 C22.8783226,17.8186456 22.989369,17.3863578 22.85,17 C22.7271679,16.6481041 22.4188257,16.3937218 22.05,16.34 Z" id="Shape"></path>
                </g>
            </g>
        </g>
    </g>
</svg>