<?xml version="1.0" encoding="UTF-8"?>
<svg width="24px" height="24px" viewBox="0 0 24 24" version="1.1" xmlns="http://www.w3.org/2000/svg" xmlns:xlink="http://www.w3.org/1999/xlink">
    <title>67F4267C-3159-4522-9B9F-FDACB0FFD6C2</title>
    <defs>
        <linearGradient x1="50%" y1="0%" x2="50%" y2="100%" id="linearGradient-1">
            <stop stop-color="#FF61AD" offset="0%"></stop>
            <stop stop-color="#FF2719" offset="100%"></stop>
        </linearGradient>
        <linearGradient x1="50%" y1="0%" x2="50%" y2="100%" id="linearGradient-2">
            <stop stop-color="#FD4C94" offset="0%"></stop>
            <stop stop-color="#FF0000" offset="100%"></stop>
        </linearGradient>
    </defs>
    <g id="Green-on-White" stroke="none" stroke-width="1" fill="none" fill-rule="evenodd">
        <g id="Assets" transform="translate(-427.000000, -2501.000000)" fill-rule="nonzero">
            <g id="Light@SVG" transform="translate(427.000000, 2501.000000)">
                <rect id="Origin-Color" fill="currentColor" x="0" y="0" width="24" height="24" rx="6"></rect>
                <path d="M17.2366071,4.0078125 C16.1142845,4.0078125 15.2068519,4.38953009 14.6442991,5.20590089 C14.6378441,5.21526841 14.6314586,5.22465802 14.6251427,5.23406951 C14.6186693,5.22484603 14.6122205,5.21536221 14.6057009,5.20590089 C14.0434971,4.39003657 13.1369312,4.0078125 12.2142857,4.0078125 C11.3112224,4.0078125 10.5137205,4.35494327 9.94189685,4.92812836 C9.3695722,5.50181569 9.0234375,6.30183014 9.0234375,7.20631378 C9.0234375,8.51388009 9.63221852,9.83188087 10.6017377,10.9772491 C11.6330656,12.1956367 13.072823,13.218768 14.6252646,13.826501 C15.900074,13.392898 17.4172517,12.2961405 18.5511894,10.956532 C19.531876,9.79797082 20.2265625,8.45745872 20.2265625,7.20631378 C20.2265625,6.31350598 19.8893354,5.52249145 19.3542656,4.9503915 C18.8059961,4.36417819 18.0499867,4.0078125 17.2366071,4.0078125 Z" id="Health-Icon" stroke="url(#linearGradient-2)" stroke-width="0.5" fill="url(#linearGradient-1)"></path>
            </g>
        </g>
    </g>
</svg>