<?xml version="1.0" encoding="UTF-8"?>
<svg width="24px" height="24px" viewBox="0 0 24 24" version="1.1" xmlns="http://www.w3.org/2000/svg" xmlns:xlink="http://www.w3.org/1999/xlink">
    <title>B181F39A-CCB3-4CDF-B0FD-42103B0EA769</title>
    <g id="Green-on-White" stroke="none" stroke-width="1" fill="none" fill-rule="evenodd">
        <g id="Assets" transform="translate(-327.000000, -141.000000)">
            <g id="Arrow-Left" transform="translate(327.000000, 141.000000)">
                <polygon id="Path" points="0 0 24 0 24 24 0 24"></polygon>
                <path d="M16.01,11 L5,11 C4.45,11 4,11.45 4,12 C4,12.55 4.45,13 5,13 L16.01,13 L16.01,14.79 C16.01,15.24 16.55,15.46 16.86,15.14 L19.64,12.35 C19.83,12.15 19.83,11.84 19.64,11.64 L16.86,8.85 C16.55,8.53 16.01,8.76 16.01,9.2 L16.01,11 L16.01,11 Z" id="Path" fill="currentColor" fill-rule="nonzero" transform="translate(11.891250, 11.996070) scale(-1, 1) translate(-11.891250, -11.996070) "></path>
            </g>
        </g>
    </g>
</svg>
