<?xml version="1.0" encoding="UTF-8"?>
<svg width="36px" height="36px" viewBox="0 0 36 36" version="1.1" xmlns="http://www.w3.org/2000/svg" xmlns:xlink="http://www.w3.org/1999/xlink">
    <title>Arrow White</title>
    <g id="Green-on-White" stroke="none" stroke-width="1" fill="none" fill-rule="evenodd">
        <g id="Artboard" transform="translate(-670.000000, -125.000000)">
            <g id="Arrow-White" transform="translate(688.000000, 143.000000) scale(-1, 1) translate(-688.000000, -143.000000) translate(670.000000, 125.000000)">
                <polygon id="Path" points="0 0 36 0 36 36 0 36"></polygon>
                <path d="M24.015,16.5 L7.5,16.5 C6.675,16.5 6,17.175 6,18 C6,18.825 6.675,19.5 7.5,19.5 L24.015,19.5 L24.015,22.185 C24.015,22.86 24.825,23.19 25.29,22.71 L29.46,18.525 C29.745,18.225 29.745,17.76 29.46,17.46 L25.29,13.275 C24.825,12.795 24.015,13.14 24.015,13.8 L24.015,16.5 L24.015,16.5 Z" id="Path" fill="#F9F9F9" fill-rule="nonzero" transform="translate(17.836875, 17.994105) scale(-1, 1) translate(-17.836875, -17.994105) "></path>
            </g>
        </g>
    </g>
</svg>