<?xml version="1.0" encoding="UTF-8"?>
<svg width="72px" height="72px" viewBox="0 0 72 72" version="1.1" xmlns="http://www.w3.org/2000/svg" xmlns:xlink="http://www.w3.org/1999/xlink">
    <title>94A5D823-10BF-492B-B547-E0643003632B</title>
    <defs>
        <linearGradient x1="10.2374417%" y1="10.4471997%" x2="109.528783%" y2="66.024847%" id="linearGradient-1">
            <stop stop-color="#FF60FA" offset="0%"></stop>
            <stop stop-color="#AA3CA7" offset="100%"></stop>
        </linearGradient>
        <path d="M39.9512195,2.28123765 L63.225695,15.7187624 C65.6707182,17.1303971 67.1769145,19.7392058 67.1769145,22.5624753 L67.1769145,49.4375247 C67.1769145,52.2607942 65.6707182,54.8696029 63.225695,56.2812376 L39.9512195,69.7187624 C37.5061964,71.1303971 34.4938036,71.1303971 32.0487805,69.7187624 L8.77430498,56.2812376 C6.32928183,54.8696029 4.82308546,52.2607942 4.82308546,49.4375247 L4.82308546,22.5624753 C4.82308546,19.7392058 6.32928183,17.1303971 8.77430498,15.7187624 L32.0487805,2.28123765 C34.4938036,0.869602879 37.5061964,0.869602879 39.9512195,2.28123765 Z" id="path-2"></path>
        <linearGradient x1="50.0832481%" y1="99.9999567%" x2="50.0832481%" y2="0.0901124596%" id="linearGradient-3">
            <stop stop-color="#12C2E9" offset="0%"></stop>
            <stop stop-color="#C471ED" offset="100%"></stop>
        </linearGradient>
        <linearGradient x1="50.0832481%" y1="99.9999567%" x2="50.0832481%" y2="0.0901124596%" id="linearGradient-4">
            <stop stop-color="#FFFFFF" offset="0%"></stop>
            <stop stop-color="#FFFFFF" offset="100%"></stop>
        </linearGradient>
    </defs>
    <g id="Green-on-White" stroke="none" stroke-width="1" fill="none" fill-rule="evenodd">
        <g id="Awards" transform="translate(-1521.000000, -64.000000)">
            <g id="Award---1.25" transform="translate(1521.000000, 64.000000)">
                <g id="Polygon">
                    <use fill="#CC48C8" xlink:href="#path-2"></use>
                    <path stroke="#C524C0" stroke-width="0.87804878" d="M32.2682927,2.66144392 C34.5774812,1.32823331 37.4225188,1.32823331 39.7317073,2.66144392 L39.7317073,2.66144392 L63.0061828,16.0989686 C64.1607771,16.7655739 65.0937039,17.7148453 65.7379822,18.830768 C66.3822604,19.9466907 66.7378901,21.2292647 66.7378901,22.5624753 L66.7378901,22.5624753 L66.7378901,49.4375247 C66.7378901,50.7707353 66.3822604,52.0533093 65.7379822,53.169232 C65.0937039,54.2851547 64.1607771,55.2344261 63.0061828,55.9010314 L63.0061828,55.9010314 L39.7317073,69.3385561 C37.4225188,70.6717667 34.5774812,70.6717667 32.2682927,69.3385561 L32.2682927,69.3385561 L8.99381717,55.9010314 C6.68462865,54.5678208 5.26210985,52.1039459 5.26210985,49.4375247 L5.26210985,49.4375247 L5.26210985,22.5624753 C5.26210985,21.2292647 5.61773955,19.9466907 6.26201782,18.830768 C6.90629608,17.7148453 7.83922291,16.7655739 8.99381717,16.0989686 L8.99381717,16.0989686 Z" stroke-linejoin="square" fill="url(#linearGradient-1)"></path>
                </g>
                <g id="winner-trophy-2728383" transform="translate(22.060300, 22.598365)" fill="url(#linearGradient-4)" fill-rule="nonzero">
                    <path d="M5.98506892,1.92435232 C5.82151724,1.40858699 5.99721215,0.845564663 6.42506892,0.514352319 C6.87306014,0.110600331 7.47932181,-0.0694410138 8.07506892,0.0243523191 C8.23862059,0.540117651 8.06292568,1.10313998 7.63506892,1.43435232 C7.18707769,1.83810431 6.58081602,2.01814565 5.98506892,1.92435232 Z M4.49506892,3.58435232 C4.92087712,3.21624431 5.07592813,2.62386992 4.88506892,2.09435232 C4.67060145,1.54929781 4.197669,1.14768057 3.62506892,1.02435232 C3.20176416,1.39401499 3.04715378,1.98470592 3.23506892,2.51435232 C3.44648151,3.06158434 3.92081502,3.46439136 4.49506892,3.58435232 L4.49506892,3.58435232 Z M6.58506892,4.09435232 C7.18105606,4.0162282 7.70255121,3.65490656 7.98506892,3.12435232 C7.48608833,2.72959142 6.83954894,2.57252253 6.21506892,2.69435232 C5.60191728,2.76953751 5.06610008,3.14423485 4.78506892,3.69435232 C5.29636974,4.087362 5.95543936,4.23382192 6.58506892,4.09435232 L6.58506892,4.09435232 Z M3.19506892,6.66435232 C3.66576529,6.26046277 3.83703878,5.60723363 3.62506892,5.02435232 C3.40048499,4.41472259 2.87997815,3.96210795 2.24506892,3.82435232 C1.77860958,4.22658361 1.60772159,4.87436835 1.81506892,5.45435232 C2.03684473,6.06784667 2.5578495,6.52466969 3.19506892,6.66435232 L3.19506892,6.66435232 Z M5.47506892,7.21435232 C6.13948436,7.14378051 6.7247745,6.74608337 7.03506892,6.15435232 C6.49117731,5.72364474 5.78476376,5.55527675 5.10506892,5.69435232 C4.44269483,5.76282485 3.85784349,6.15647479 3.54506892,6.74435232 C4.08605029,7.18113961 4.79383362,7.35350135 5.47506892,7.21435232 L5.47506892,7.21435232 Z M2.28506892,10.0243523 C2.64775018,9.4587246 2.61572606,8.7261729 2.20506892,8.19435232 C1.7739468,7.58518883 1.08108068,7.21467219 0.335068917,7.19435232 C-0.0187908123,7.7623267 0.0129948714,8.48942422 0.415068917,9.02435232 C0.842922366,9.63720829 1.53780111,10.0088012 2.28506892,10.0243523 Z M2.68506892,10.0243523 C3.3787828,10.3614255 4.1840878,10.383289 4.89506892,10.0843523 C5.56327033,9.86104827 6.06469461,9.30264396 6.21506892,8.61435232 C5.51658605,8.27062845 4.70373449,8.24511293 3.98506892,8.54435232 C3.31487283,8.76462288 2.81707464,9.33134698 2.68506892,10.0243523 L2.68506892,10.0243523 Z M2.17506892,12.2243523 C1.68324601,11.6357473 0.940606257,11.3164122 0.175068917,11.3643523 C-0.129857669,11.9636968 -0.0301695705,12.6894261 0.425068917,13.1843523 C0.92065907,13.7599847 1.65690779,14.0707631 2.41506892,14.0243523 C2.71506414,13.4291007 2.61982677,12.7108522 2.17506892,12.2143523 L2.17506892,12.2243523 Z M4.98506892,13.9543523 C5.64031309,13.6952366 6.09835283,13.0947811 6.17506892,12.3943523 C5.46658055,12.1102478 4.67094013,12.1393122 3.98506892,12.4743523 C3.33489281,12.7302475 2.88297735,13.3289389 2.81506892,14.0243523 C3.5167631,14.3032301 4.30280697,14.2778738 4.98506892,13.9543523 L4.98506892,13.9543523 Z M4.50506892,17.2543523 C4.31434811,16.497563 3.73529147,15.8994584 2.98506892,15.6843523 C2.18591961,15.3887591 1.29877475,15.4469326 0.545068917,15.8443523 C0.739240255,16.6097954 1.33217802,17.210384 2.09506892,17.4143523 C2.89716977,17.7129431 3.78861474,17.6547262 4.54506892,17.2543523 L4.50506892,17.2543523 Z M6.86506892,15.8743523 C7.27780873,15.2715685 7.27780873,14.4771362 6.86506892,13.8743523 C6.04898537,13.9198445 5.30465635,14.355277 4.86506892,15.0443523 C4.4465898,15.6453472 4.4465898,16.4433574 4.86506892,17.0443523 C5.69602139,17.0132924 6.45865926,16.5758972 6.90506892,15.8743523 L6.86506892,15.8743523 Z M5.26506892,18.6543523 C4.38776632,18.3237894 3.41028743,18.389441 2.58506892,18.8343523 C2.802856,19.6728164 3.45054249,20.3319327 4.28506892,20.5643523 C5.16824137,20.9010478 6.15440624,20.8353034 6.98506892,20.3843523 C6.77089443,19.550896 6.13188755,18.892871 5.30506892,18.6543523 L5.26506892,18.6543523 Z M7.33506892,17.9243523 C6.86389634,18.5893511 6.86389634,19.4793535 7.33506892,20.1443523 C8.23212781,20.0981633 9.05159148,19.6213845 9.53506892,18.8643523 C9.98793041,18.1899933 9.98793041,17.3087114 9.53506892,16.6343523 C8.65105219,16.6968924 7.84932515,17.1757016 7.37506892,17.9243523 L7.33506892,17.9243523 Z M21.9850689,1.92435232 C22.1486206,1.40858699 21.9729257,0.845564663 21.5450689,0.514352319 C21.0970777,0.110600331 20.490816,-0.0694410138 19.8950689,0.0243523191 C19.7315172,0.540117651 19.9072122,1.10313998 20.3350689,1.43435232 C20.7830601,1.83810431 21.3893218,2.01814565 21.9850689,1.92435232 Z M24.7250689,2.47435232 C24.8974994,1.95844034 24.7483673,1.38938361 24.3450689,1.02435232 C23.7724688,1.14768057 23.2995364,1.54929781 23.0850689,2.09435232 C22.8942097,2.62386992 23.0492607,3.21624431 23.4750689,3.58435232 C24.0585168,3.45665699 24.534833,3.03704503 24.7350689,2.47435232 L24.7250689,2.47435232 Z M19.9850689,3.12435232 C20.2661001,3.67446979 20.8019173,4.04916713 21.4150689,4.12435232 C22.0395489,4.24618211 22.6860883,4.08911321 23.1850689,3.69435232 C22.9040377,3.14423485 22.3682206,2.76953751 21.7550689,2.69435232 C21.1305889,2.57252253 20.4840495,2.72959142 19.9850689,3.12435232 L19.9850689,3.12435232 Z M24.8050689,6.66435232 C25.4422883,6.52466969 25.9632931,6.06784667 26.1850689,5.45435232 C26.3924162,4.87436835 26.2215283,4.22658361 25.7550689,3.82435232 C25.1087844,3.95279553 24.5751907,4.40691786 24.3450689,5.02435232 C24.1330991,5.60723363 24.3043725,6.26046277 24.7750689,6.66435232 L24.8050689,6.66435232 Z M22.5250689,7.21435232 C23.2063042,7.35350135 23.9140875,7.18113961 24.4550689,6.74435232 C24.1422943,6.15647479 23.557443,5.76282485 22.8950689,5.69435232 C22.2217767,5.56143448 21.5240242,5.72947958 20.9850689,6.15435232 C21.2856401,6.73259945 21.8490968,7.12813862 22.4950689,7.21435232 L22.5250689,7.21435232 Z M25.7950689,8.21435232 C25.3842374,8.73559755 25.3403836,9.45719171 25.6850689,10.0243523 C26.4323367,10.0088012 27.1272155,9.63720829 27.5550689,9.02435232 C27.957143,8.48942422 27.9889286,7.7623267 27.6350689,7.19435232 C26.8926248,7.21000809 26.2004426,7.57275598 25.7650689,8.17435232 L25.7950689,8.21435232 Z M23.9850689,8.54435232 C23.2707169,8.2450059 22.462209,8.26685747 21.7650689,8.60435232 C21.9154432,9.29264396 22.4168675,9.85104827 23.0850689,10.0743523 C23.791743,10.3734108 24.5927111,10.355207 25.2850689,10.0243523 C25.1530632,9.33134698 24.655265,8.76462288 23.9850689,8.54435232 L23.9850689,8.54435232 Z M27.7650689,11.3543523 C26.9995316,11.3064122 26.2568918,11.6257473 25.7650689,12.2143523 C25.3302391,12.7174115 25.2469717,13.4350972 25.5550689,14.0243523 C26.3044889,14.0507668 27.0241264,13.7296977 27.5050689,13.1543523 C27.9514256,12.6632252 28.0506886,11.9485317 27.7550689,11.3543523 L27.7650689,11.3543523 Z M25.1550689,14.0243523 C25.0871605,13.3289389 24.635245,12.7302475 23.9850689,12.4743523 C23.2908224,12.130401 22.4822718,12.1012641 21.7650689,12.3943523 C21.8471543,13.1019339 22.3181256,13.7041596 22.9850689,13.9543523 C23.6673309,14.2778738 24.4533747,14.3032301 25.1550689,14.0243523 Z M24.9850689,15.6843523 C24.2232794,15.8902126 23.6311462,16.4899863 23.4350689,17.2543523 C24.1887748,17.6517721 25.0759196,17.7099455 25.8750689,17.4143523 C26.6379598,17.210384 27.2308976,16.6097954 27.4250689,15.8443523 C26.6713631,15.4469326 25.7842182,15.3887591 24.9850689,15.6843523 Z M21.0750689,15.8743523 C21.5157388,16.5608395 22.2603774,16.9927299 23.0750689,17.0343523 C23.493548,16.4333574 23.493548,15.6353472 23.0750689,15.0343523 C22.6354815,14.345277 21.8911525,13.9098445 21.0750689,13.8643523 C20.6547312,14.4672901 20.6507512,15.267262 21.0650689,15.8743523 L21.0750689,15.8743523 Z M22.6750689,18.6543523 C21.844396,18.8898307 21.2010546,19.5483992 20.9850689,20.3843523 C21.8102874,20.8292636 22.7877663,20.8949152 23.6650689,20.5643523 C24.4995953,20.3319327 25.1472818,19.6728164 25.3650689,18.8343523 C24.5344062,18.3834012 23.5482414,18.3176569 22.6650689,18.6543523 L22.6750689,18.6543523 Z M20.5750689,20.1443523 C21.0462415,19.4793535 21.0462415,18.5893511 20.5750689,17.9243523 C20.092674,17.1647346 19.2735219,16.6844136 18.3750689,16.6343523 C17.9222074,17.3087114 17.9222074,18.1899933 18.3750689,18.8643523 C18.8565241,19.61861 19.67161,20.0950072 20.5650689,20.1443523 L20.5750689,20.1443523 Z M19.7050689,20.8943523 C19.5455158,20.5287636 19.1839554,20.2929633 18.7850689,20.2943462 L9.30506892,20.2943462 C8.90618247,20.2929633 8.54462205,20.5287636 8.38506892,20.8943523 L6.31506892,25.6243523 C6.17935646,25.9341701 6.20945527,26.2915936 6.39506892,26.5743523 C6.58100273,26.8566979 6.89700421,27.0259844 7.23506892,27.024364 L20.8450689,27.024364 C21.1830042,27.0255309 21.4986742,26.8559524 21.6842619,26.5735363 C21.8698496,26.2911202 21.9002459,25.9340761 21.7650689,25.6243523 L19.7050689,20.8943523 Z M11.6350689,8.02435232 L12.8650689,7.17435232 L12.8650689,15.5143523 C12.8650689,16.0666371 13.3127842,16.5143523 13.8650689,16.5143523 C14.4173537,16.5143523 14.8650958,16.0666371 14.8650958,15.5143523 L14.8650958,5.24435232 C14.8677931,4.87217164 14.6635944,4.52927196 14.3350689,4.35435232 C14.0132637,4.19686307 13.6317948,4.2235659 13.3350689,4.42435232 L10.5350689,6.35435232 C10.0842887,6.66211194 9.96356093,7.2744841 10.2638029,7.73030599 C10.5640449,8.18612787 11.1743308,8.31699404 11.6350689,8.02435232 Z" id="Shape"></path>
                </g>
            </g>
        </g>
    </g>
</svg>