<?xml version="1.0" encoding="UTF-8"?>
<svg width="72px" height="72px" viewBox="0 0 72 72" version="1.1" xmlns="http://www.w3.org/2000/svg" xmlns:xlink="http://www.w3.org/1999/xlink">
    <title>0ED1368B-0D22-4DFC-8856-62A4F7608276</title>
    <defs>
        <linearGradient x1="10.2374417%" y1="10.4471997%" x2="109.528783%" y2="66.024847%" id="linearGradient-1">
            <stop stop-color="#FF60FA" offset="0%"></stop>
            <stop stop-color="#AA3CA7" offset="100%"></stop>
        </linearGradient>
        <path d="M39.9512195,2.28123765 L63.225695,15.7187624 C65.6707182,17.1303971 67.1769145,19.7392058 67.1769145,22.5624753 L67.1769145,49.4375247 C67.1769145,52.2607942 65.6707182,54.8696029 63.225695,56.2812376 L39.9512195,69.7187624 C37.5061964,71.1303971 34.4938036,71.1303971 32.0487805,69.7187624 L8.77430498,56.2812376 C6.32928183,54.8696029 4.82308546,52.2607942 4.82308546,49.4375247 L4.82308546,22.5624753 C4.82308546,19.7392058 6.32928183,17.1303971 8.77430498,15.7187624 L32.0487805,2.28123765 C34.4938036,0.869602879 37.5061964,0.869602879 39.9512195,2.28123765 Z" id="path-2"></path>
    </defs>
    <g id="Green-on-White" stroke="none" stroke-width="1" fill="none" fill-rule="evenodd">
        <g id="Awards" transform="translate(-38.000000, -229.000000)">
            <g id="Award---1.3" transform="translate(38.000000, 229.000000)">
                <g id="Polygon">
                    <use fill="#CC48C8" xlink:href="#path-2"></use>
                    <path stroke="#C524C0" stroke-width="0.87804878" d="M32.2682927,2.66144392 C34.5774812,1.32823331 37.4225188,1.32823331 39.7317073,2.66144392 L39.7317073,2.66144392 L63.0061828,16.0989686 C64.1607771,16.7655739 65.0937039,17.7148453 65.7379822,18.830768 C66.3822604,19.9466907 66.7378901,21.2292647 66.7378901,22.5624753 L66.7378901,22.5624753 L66.7378901,49.4375247 C66.7378901,50.7707353 66.3822604,52.0533093 65.7379822,53.169232 C65.0937039,54.2851547 64.1607771,55.2344261 63.0061828,55.9010314 L63.0061828,55.9010314 L39.7317073,69.3385561 C37.4225188,70.6717667 34.5774812,70.6717667 32.2682927,69.3385561 L32.2682927,69.3385561 L8.99381717,55.9010314 C6.68462865,54.5678208 5.26210985,52.1039459 5.26210985,49.4375247 L5.26210985,49.4375247 L5.26210985,22.5624753 C5.26210985,21.2292647 5.61773955,19.9466907 6.26201782,18.830768 C6.90629608,17.7148453 7.83922291,16.7655739 8.99381717,16.0989686 L8.99381717,16.0989686 Z" stroke-linejoin="square" fill="url(#linearGradient-1)"></path>
                </g>
                <g id="first-2261247" transform="translate(27.000000, 21.000000)" fill="#FFFFFF" fill-rule="nonzero">
                    <path d="M5.44014513,19.1903041 C5.69140909,19.076539 5.96433184,19.0185429 6.24014513,19.0203041 L11.3201451,19.0203041 C11.595675,19.0212595 11.8680355,19.0791361 12.1201451,19.1903041 C12.5302651,18.8966008 12.775493,18.4247229 12.7801451,17.9203041 L12.7801451,1.2803041 C12.7801451,0.937333182 12.6425883,0.608692161 12.3981986,0.368062307 C12.1538089,0.127432454 11.8230742,-0.00505482721 11.4801451,0.000147626538 L6.09014513,0.000147626538 C5.58991841,0.0122166315 5.14170226,0.312326575 4.94014513,0.770304096 C4.89877413,0.841038337 4.87159991,0.919164211 4.86014513,1.0003041 C4.85546159,1.0301213 4.85546159,1.06048689 4.86014513,1.0903041 C4.85051032,1.170014 4.85051032,1.25059419 4.86014513,1.3303041 L4.86014513,17.9203041 C4.84425548,18.4110412 5.05886104,18.8809534 5.44014513,19.1903041 L5.44014513,19.1903041 Z M1.38014513,9.7703041 L4.31014513,9.7703041 L4.31014513,1.3003041 L0.410145131,5.3003041 C0.147924666,5.56716826 0.000733613067,5.92617082 0.000145130862,6.3003041 L0.000145130862,8.3703041 C-0.0052098057,8.73975577 0.137815196,9.09592414 0.397198074,9.35906619 C0.656580952,9.62220825 1.01065465,9.7703041 1.38014513,9.7703041 L1.38014513,9.7703041 Z M16.0401451,25.0802705 L1.52014513,25.0802705 C1.11885134,25.0776198 0.733215311,25.2358465 0.449451401,25.5196104 C0.165687491,25.8033743 0.00746080117,26.1890103 0.0101115252,26.5903041 L0.0101115252,28.9503041 C0.0101115252,29.2722865 0.268209005,29.5348468 0.590145131,29.5403041 L16.9701451,29.5403041 C17.2959931,29.5403041 17.5601451,29.2761521 17.5601451,28.9503041 L17.5601451,26.5903041 C17.5601451,26.1880885 17.3996931,25.8024909 17.1143467,25.5190217 C16.8290003,25.2355526 16.4423519,25.0776404 16.0401451,25.0802705 L16.0401451,25.0802705 Z M2.78014513,23.5203041 L2.78014513,24.5203041 C2.77529216,24.5501078 2.77529216,24.5805004 2.78014513,24.6103041 L14.7801451,24.6103041 C14.7849981,24.5805004 14.7849981,24.5501078 14.7801451,24.5203041 L14.7801451,23.5203041 C14.780154,23.1180885 14.6196931,22.7324909 14.3343467,22.4490217 C14.0490003,22.1655526 13.6623519,22.0076404 13.2601451,22.0103041 L4.25014513,22.0103041 C3.43185684,22.0319882 2.77985787,22.7017286 2.78014513,23.5203041 Z M5.32014513,21.5103041 L12.7801451,21.5103041 C12.7849981,21.4805004 12.7849981,21.4501078 12.7801451,21.4203041 L12.7801451,21.0403041 C12.7801451,20.2008313 12.099618,19.5203041 11.2601451,19.5203041 L6.24014513,19.5203041 C5.42419247,19.5525376 4.7795087,20.2237153 4.78014513,21.0403041 L4.78014513,21.4203041 C4.77529216,21.4501078 4.77529216,21.4805004 4.78014513,21.5103041 L5.32014513,21.5103041 Z" id="Shape"></path>
                </g>
            </g>
        </g>
    </g>
</svg>