<?xml version="1.0" encoding="UTF-8"?>
<svg width="21px" height="17px" viewBox="0 0 21 17" version="1.1" xmlns="http://www.w3.org/2000/svg" xmlns:xlink="http://www.w3.org/1999/xlink">
    <title>5446F062-EDF5-4524-A43F-54CD3FC2BC30</title>
    <g id="Green-on-White" stroke="none" stroke-width="1" fill="none" fill-rule="evenodd">
        <g id="Assets" transform="translate(-428.000000, -2370.000000)" fill="currentColor" fill-rule="nonzero">
            <path d="M432.212812,2370 L432.212812,2370.45942 L433.604837,2370.45942 L433.604837,2370 L432.212812,2370 Z M443.42127,2370 L443.42127,2370.45942 L444.813295,2370.45942 L444.813295,2370 L443.42127,2370 Z M430.516386,2370.68923 C430.151881,2370.70814 429.837483,2371.05347 429.856462,2371.41435 C429.875441,2371.77522 430.224377,2372.08659 430.588894,2372.06768 L435.228838,2372.06768 C435.596591,2372.07281 435.934817,2371.7427 435.934817,2371.37845 C435.934817,2371.01437 435.596591,2370.6841 435.228838,2370.68923 L430.51622,2370.68923 L430.516386,2370.68923 Z M441.724844,2370.68923 C441.360339,2370.70814 441.045941,2371.05347 441.06492,2371.41435 C441.083898,2371.77523 441.432834,2372.08659 441.797352,2372.06768 L446.437296,2372.06768 C446.805049,2372.07281 447.143275,2371.7427 447.143275,2371.37845 C447.143275,2371.01437 446.805049,2370.6841 446.437296,2370.68923 L441.724678,2370.68923 L441.724844,2370.68923 Z M429.588647,2372.5271 C429.224141,2372.54601 428.909744,2372.89134 428.928722,2373.25222 C428.947702,2373.61309 429.296637,2373.92446 429.661155,2373.90555 L436.157408,2373.90555 C436.525161,2373.91068 436.863387,2373.58057 436.863387,2373.21632 C436.863387,2372.85224 436.525161,2372.52197 436.157408,2372.5271 L429.58848,2372.5271 L429.588647,2372.5271 Z M440.797104,2372.5271 C440.432599,2372.54569 440.118035,2372.89118 440.137014,2373.25222 C440.155993,2373.61309 440.505091,2373.92446 440.869613,2373.90555 L447.365866,2373.90555 C447.733619,2373.91068 448.071845,2373.58057 448.071845,2373.21632 C448.071845,2372.85224 447.733619,2372.52197 447.365866,2372.5271 L440.796938,2372.5271 L440.797104,2372.5271 Z M428.660907,2374.36491 C428.296402,2374.38356 427.981838,2374.72905 428.000817,2375.09009 C428.019796,2375.45096 428.368893,2375.76233 428.733415,2375.74342 L432.213518,2375.74342 L432.213518,2381.25691 L428.660907,2381.25691 C428.296402,2381.2755 427.981838,2381.62099 428.000817,2381.98203 C428.019796,2382.3429 428.368893,2382.65427 428.733415,2382.63536 L437.085563,2382.63536 C437.453316,2382.64049 437.791542,2382.31038 437.791542,2381.94613 C437.791542,2381.58206 437.453316,2381.25178 437.085563,2381.25691 L433.60546,2381.25691 L433.60546,2375.74342 L437.085563,2375.74342 C437.453316,2375.74855 437.791542,2375.41844 437.791542,2375.05419 C437.791542,2374.69011 437.453316,2374.35984 437.085563,2374.36491 L428.660741,2374.36491 L428.660907,2374.36491 Z M439.869365,2374.36491 C439.504859,2374.38388 439.190462,2374.72921 439.20944,2375.09009 C439.22842,2375.45096 439.577355,2375.76233 439.941873,2375.74342 L443.421976,2375.74342 L443.421976,2381.25691 L439.869365,2381.25691 C439.504859,2381.27582 439.190462,2381.62115 439.20944,2381.98203 C439.22842,2382.3429 439.577355,2382.65427 439.941873,2382.63536 L448.294021,2382.63536 C448.661774,2382.64049 449,2382.31038 449,2381.94613 C449,2381.58206 448.661774,2381.25178 448.294021,2381.25691 L444.813918,2381.25691 L444.813918,2375.74342 L448.294021,2375.74342 C448.661774,2375.74855 449,2375.41844 449,2375.05419 C449,2374.69011 448.661774,2374.35984 448.294021,2374.36491 L439.869199,2374.36491 L439.869365,2374.36491 Z M429.589062,2383.09465 C429.224557,2383.11356 428.910159,2383.45889 428.929138,2383.81978 C428.948117,2384.18065 429.297052,2384.49202 429.66157,2384.47311 L436.157824,2384.47311 C436.525576,2384.47824 436.863803,2384.14813 436.863803,2383.78388 C436.863803,2383.4198 436.525576,2383.08953 436.157824,2383.09465 L429.588896,2383.09465 L429.589062,2383.09465 Z M440.79752,2383.09465 C440.433014,2383.11324 440.118451,2383.45873 440.137429,2383.81978 C440.156409,2384.18065 440.505506,2384.49202 440.870028,2384.47311 L447.366281,2384.47311 C447.734034,2384.47824 448.07226,2384.14813 448.07226,2383.78388 C448.07226,2383.4198 447.734034,2383.08953 447.366281,2383.09465 L440.797353,2383.09465 L440.79752,2383.09465 Z M430.517217,2384.93252 C430.152711,2384.95143 429.838314,2385.29676 429.857292,2385.65765 C429.876272,2386.01852 430.225207,2386.32989 430.589725,2386.31098 L435.229669,2386.31098 C435.597422,2386.31611 435.935648,2385.986 435.935648,2385.62175 C435.935648,2385.25767 435.597422,2384.9274 435.229669,2384.93252 L430.517051,2384.93252 L430.517217,2384.93252 Z M441.725674,2384.93252 C441.361169,2384.95143 441.046772,2385.29676 441.06575,2385.65765 C441.084728,2386.01853 441.433665,2386.32989 441.798183,2386.31098 L446.438126,2386.31098 C446.805879,2386.31611 447.144106,2385.986 447.144106,2385.62175 C447.144106,2385.25767 446.805879,2384.9274 446.438126,2384.93252 L441.725508,2384.93252 L441.725674,2384.93252 Z M432.214058,2386.54058 L432.214058,2387 L433.606083,2387 L433.606083,2386.54058 L432.214058,2386.54058 Z M443.422516,2386.54058 L443.422516,2387 L444.814541,2387 L444.814541,2386.54058 L443.422516,2386.54058 Z" id="Shape"></path>
        </g>
    </g>
</svg>