<?xml version="1.0" encoding="UTF-8"?>
<svg width="19px" height="23px" viewBox="0 0 19 23" version="1.1" xmlns="http://www.w3.org/2000/svg" xmlns:xlink="http://www.w3.org/1999/xlink">
    <title>6EBD1203-8667-4016-8789-F56226B3A2A8</title>
    <g id="Green-on-White" stroke="none" stroke-width="1" fill="none" fill-rule="evenodd">
        <g id="Assets" transform="translate(-294.000000, -752.000000)" stroke="currentColor" stroke-width="1.6">
            <g id="Notif" transform="translate(295.000000, 753.420000)">
                <path d="M5.95600234,19.19 C6.58600234,19.7 7.43600234,20.02 8.36600234,20.02 C9.28600234,20.02 10.1360023,19.7 10.7760023,19.18" id="Path" stroke-linecap="round" stroke-linejoin="round"></path>
                <path d="M8.35558517,0 C4.34558517,0 1.86600234,3.02 1.86600234,6.52 C1.86600234,8.23 2.19600234,9.53 0.86600234,10.75 C-2.40399766,14.01 4.35600234,16.01 8.35600234,16.01 C12.3460023,16.01 19.1160023,14.01 15.8460023,10.74 C14.5060023,9.52 14.8460023,10 14.8460023,6.5 C14.8460023,3 12.3460023,0 8.34600234,0 L8.35558517,0 Z" id="Path"></path>
            </g>
        </g>
    </g>
</svg>
