<?xml version="1.0" encoding="UTF-8"?>
<svg width="74px" height="20px" viewBox="0 0 74 20" version="1.1" xmlns="http://www.w3.org/2000/svg" xmlns:xlink="http://www.w3.org/1999/xlink">
    <title>A4313D64-258E-4FCA-AF50-B0117F5DC37F</title>
    <defs>
        <linearGradient x1="100%" y1="48.1081417%" x2="0.635388076%" y2="52.4198993%" id="linearGradient-1">
            <stop stop-color="#0ED0E8" offset="0%"></stop>
            <stop stop-color="#32A1C7" offset="100%"></stop>
        </linearGradient>
    </defs>
    <g id="Green-on-White" stroke="none" stroke-width="1" fill="none" fill-rule="evenodd">
        <g id="Assets" transform="translate(-392.000000, -182.000000)" fill="url(#linearGradient-1)">
            <path d="M402.85797,183.747429 L411.256538,183.790681 C412.112913,183.794761 412.804114,184.49494 412.799661,185.354252 C412.795414,186.163511 412.176466,186.825006 411.389021,186.896008 L411.248402,186.902318 L411.248402,186.902318 L411.240265,186.902318 L402.842103,186.859066 C401.985322,186.854578 401.294527,186.154399 401.298981,185.295495 C401.303478,184.438632 401.99712,183.747429 402.85024,183.747429 L402.85797,183.747429 Z M409.592081,190.369757 C410.448862,190.369757 411.143318,191.066264 411.143318,191.925575 C411.143318,192.737147 410.52388,193.403502 409.733283,193.475036 L409.592081,193.481394 L409.592081,193.481394 L393.551644,193.481394 C392.694863,193.481394 392,192.784887 392,191.925575 C392,191.066264 392.694863,190.369757 393.551644,190.369757 L409.592081,190.369757 Z M411.248402,196.939693 C412.105183,196.939693 412.799639,197.6362 412.799639,198.495512 C412.799639,199.307083 412.180201,199.973438 411.389604,200.044973 L411.248402,200.05133 L411.248402,200.05133 L402.85024,200.05133 C401.993459,200.05133 401.299003,199.354823 401.299003,198.495512 C401.299003,197.6362 401.993459,196.939693 402.85024,196.939693 L411.248402,196.939693 Z M417.524627,182.364208 L417.553512,182.364208 C418.551463,182.364208 419.422889,183.042762 419.669834,184.012649 L420.813836,188.498939 L421.957431,184.012649 C422.204783,183.042762 423.07621,182.364208 424.07416,182.364208 L424.075381,182.364208 C425.281628,182.364208 426.26005,183.345112 426.26005,184.555329 L426.26005,199.689571 C426.26005,200.76473 425.391065,201.635874 424.319478,201.635874 L424.318664,201.635874 C423.246671,201.635874 422.378092,200.76473 422.378092,199.689571 L422.378092,191.55182 L421.651496,194.246042 C421.420011,195.102905 420.207662,195.102905 419.976583,194.246042 L419.249987,191.55182 L419.249987,199.689571 C419.249987,200.76473 418.381002,201.635874 417.309415,201.635874 L417.28053,201.635874 C416.208537,201.635874 415.339958,200.76473 415.339958,199.689571 L415.339958,184.555329 C415.339958,183.345112 416.317974,182.364208 417.524627,182.364208 M435.615195,188.162478 C435.615195,187.35009 435.531388,185.865677 434.051346,185.865677 C432.570897,185.865677 432.48709,187.35009 432.48709,188.162478 L432.48709,195.837522 C432.48709,196.64991 432.570897,198.134323 434.051346,198.134323 C435.531388,198.134323 435.615195,196.64991 435.615195,195.837522 L435.615195,188.162478 Z M439.525224,187.686307 L439.525224,196.313693 C439.525224,199.646891 437.542342,202 434.051346,202 C430.559943,202 428.577061,199.646891 428.577061,196.313693 L428.577061,187.686307 C428.577061,184.353109 430.559943,182 434.051346,182 C437.542342,182 439.525224,184.353109 439.525224,187.686307 L439.525224,187.686307 Z M443.72455,182.364208 L443.72455,182.364208 C444.711109,182.364208 445.547142,183.093357 445.684243,184.073037 L447.288775,195.529705 L448.892493,184.073037 C449.030001,183.093357 449.866034,182.364208 450.852593,182.364208 C452.063721,182.364208 452.990477,183.445079 452.809845,184.645912 L450.691489,198.700098 C450.437221,200.388118 448.990538,201.635874 447.288775,201.635874 C445.586604,201.635874 444.139922,200.388118 443.885654,198.700098 L441.767297,184.645912 C441.586665,183.445079 442.513421,182.364208 443.72455,182.364208 M457.549764,182.364208 L464.044782,182.364208 C465.124505,182.364208 466,183.242288 466,184.3252 L466,184.3252 C466,185.408112 465.124505,186.285784 464.044782,186.285784 L459.129479,186.285784 L459.129479,190.039252 L463.206715,190.039252 C464.286845,190.039252 465.161933,190.917333 465.161933,192.000245 C465.161933,193.083157 464.286845,193.960829 463.206715,193.960829 L459.129479,193.960829 L459.129479,197.714297 L464.044782,197.714297 C465.124505,197.714297 466,198.592378 466,199.67529 C466,200.758201 465.124505,201.635874 464.044782,201.635874 L457.557087,201.635874 C456.204382,201.635874 455.107572,200.535825 455.107572,199.179125 L455.107572,184.813612 C455.107572,183.460992 456.201127,182.364208 457.549764,182.364208" id="Logo"></path>
        </g>
    </g>
</svg>