<?xml version="1.0" encoding="UTF-8"?>
<svg width="24px" height="24px" viewBox="0 0 24 24" version="1.1" xmlns="http://www.w3.org/2000/svg" xmlns:xlink="http://www.w3.org/1999/xlink">
    <title>13306877-0F5B-4223-850F-6CBED9C966C6</title>
    <g id="Green-on-White" stroke="none" stroke-width="1" fill="none" fill-rule="evenodd">
        <g id="Assets" transform="translate(-246.000000, -892.000000)">
            <g id="Light-/-Active-/-3" transform="translate(246.000000, 892.000000)">
                <g id="calendar" transform="translate(3.000000, 3.000000)">
                    <path d="M5.02,0 L5.02,3 M13.02,3 L13.02,0" id="Shape" stroke="currentColor" stroke-width="1.6" stroke-linecap="round"></path>
                    <path d="M12.52,10.5 C11.6915729,10.5 11.02,11.1715729 11.02,12 C11.02,12.8284271 11.6915729,13.5 12.52,13.5 C13.3484271,13.5 14.02,12.8284271 14.02,12 C14.02,11.1715729 13.3484271,10.5 12.52,10.5 L12.52,10.5 Z" id="Path" fill="currentColor" fill-rule="nonzero"></path>
                    <path d="M0.02,9.5 C0.02,3.27 2.02,1.5 9.02,1.5 C16.01,1.5 18.01,3.27 18.01,9.5 C18.01,15.72 15.93,17.5 9.01,17.5 C2.08,17.5 0,15.72 0,9.5 L0.02,9.5 Z" id="Path" stroke="currentColor" stroke-width="1.6" stroke-linecap="round" stroke-linejoin="round"></path>
                </g>
            </g>
        </g>
    </g>
</svg>
