<?xml version="1.0" encoding="UTF-8"?>
<svg width="64px" height="51px" viewBox="0 0 64 51" version="1.1" xmlns="http://www.w3.org/2000/svg" xmlns:xlink="http://www.w3.org/1999/xlink">
    <title>A6937C6B-3950-44DB-9031-721E38C23CE2</title>
    <g id="Work" stroke="none" stroke-width="1" fill="none" fill-rule="evenodd">
        <g id="Move---Additional-Pages---V2.7.1" transform="translate(-156.000000, -309.000000)" fill="#FFFFFF" fill-rule="nonzero">
            <g id="checkered-flags" transform="translate(156.000000, 309.000000)">
                <path d="M40.0003154,1.40447688 C40.7573335,1.25220879 41.5500744,1.29127715 42.2951406,1.5205657 L42.6894195,0.266307419 C41.7313444,-0.0283139241 40.7094596,-0.0793325966 39.7351831,0.117519373 L40.0003154,1.40447688 Z M35.3543584,3.76709448 L36.59224,4.2435314 C36.8756321,3.5231635 37.3373062,2.88316479 37.9270646,2.39293904 L37.0731035,1.38747066 C36.3126991,2.01913041 35.7184256,2.8421266 35.3543584,3.76709448 Z M21.392318,1.62831556 C22.124702,1.34715474 22.9044286,1.25096123 23.673465,1.35063478 L23.8459703,0.0483125765 C22.8655187,-0.0767061527 21.8510706,0.0425343999 20.9105249,0.404852335 L21.392318,1.62831556 Z M25.8133143,2.19286967 C26.439061,2.64107232 26.9451563,3.24607367 27.2774846,3.94247527 L28.4783818,3.38271442 C28.0510361,2.48630912 27.3990617,1.70717454 26.5921114,1.1291599 L25.8133143,2.19286967 Z" id="Shape"></path>
                <path d="M7.44037034,36.5072278 C10.1841874,34.4954374 13.3280601,33.514001 16.6338142,32.7390687 C21.2629722,31.639311 25.9661654,30.9970142 30.1146591,28.495195 L30.1473939,28.578322 L22.2379127,48.6734412 C21.8929685,49.5502795 22.3335277,50.5416307 23.22029,50.8827401 C24.0909172,51.2193189 25.0997877,50.8116948 25.4544262,49.9116125 L31.9995352,33.2829396 L38.5459058,49.9116125 C38.9010755,50.8141243 39.9114068,51.2180713 40.780042,50.8827401 C41.6664723,50.5416307 42.1070315,49.5506078 41.7620873,48.6734412 L33.8556604,28.590141 L33.8913832,28.499266 C34.8627382,29.0842407 35.8999612,29.5943618 37.0456806,30.0404633 C41.9780841,31.9904666 47.5357031,32.3278989 52.3291993,34.2222216 C55.3151745,35.3827815 56.7571011,36.6935083 57.2757458,37.0323852 L64,18.557191 L63.6034636,18.2660497 C62.4752071,17.436947 61.2360639,16.7408737 59.8311882,16.147757 L59.8357033,16.1355441 C51.1710632,13.0855861 46.2324182,13.5024684 41.1196743,10.1186237 L41.5045909,9.13981376 C42.6339097,8.93613304 43.5922504,8.1722975 44.0143505,7.10070839 C44.67914,5.41059175 43.8383261,3.51141017 42.1254905,2.85263238 C40.4380858,2.2027845 38.5034102,3.00693596 37.8296568,4.71990266 C37.4068263,5.79352726 37.5920802,6.99919633 38.2880774,7.90466286 L32.0000664,23.8769218 L25.711989,7.90413758 C26.4075214,6.99893369 26.5930409,5.79359293 26.1702768,4.71990266 C25.5066161,3.03379135 23.579178,2.19634971 21.8741111,2.85236974 C20.1648611,3.51042525 19.3186688,5.40698039 19.9855831,7.10077405 C20.4074176,8.17223184 21.3654927,8.93606738 22.4949443,9.13987943 L22.8802593,10.1185581 C18.9847468,12.696938 14.3464921,13.3292544 9.71872854,14.4167992 C7.6988627,14.8913319 6.17280825,15.3482018 4.76992445,15.8980479 L4.16622228,16.1407313 L4.16881185,16.1474944 C2.76367047,16.7409394 1.52452727,17.4370127 0.396536448,18.2661153 L0,18.5572566 L6.7239222,37.0324509 L7.44037034,36.5072278 Z M11.8191367,32.7600146 L10.6812524,29.7279821 C11.7625645,29.3369703 12.957353,28.9859461 14.4212577,28.6284214 L15.5879593,31.6393767 C14.1167507,32.0026139 12.9112719,32.3613204 11.8191367,32.7600146 Z M12.7635999,24.3506666 L13.942187,27.3920886 C12.499198,27.748891 11.3088583,28.1023447 10.2192462,28.4967709 L9.07113644,25.4374891 C10.1363136,25.0515988 11.316295,24.7047769 12.7635999,24.3506666 Z M8.60906392,24.2062122 L7.46400848,21.154941 C8.52400645,20.7712175 9.70763986,20.4223601 11.1088637,20.0800688 L12.284662,23.1143994 C10.8577416,23.4677218 9.68234174,23.8171702 8.60906392,24.2062122 Z M24.0755126,21.31128 C25.0390988,20.9001103 25.9243339,20.4457355 26.7448961,19.9355487 L27.9453285,22.9848501 C27.1407685,23.4880767 26.2744572,23.9375926 25.3254125,24.3437065 L24.0755126,21.31128 Z M24.0942372,24.8349828 C23.0244121,25.2240248 21.8351348,25.5746551 20.3750148,25.9324424 L19.1619665,22.8983744 C20.592738,22.5441328 21.7699307,22.1936339 22.8445365,21.803016 L24.0942372,24.8349828 Z M23.5743973,20.0954992 L22.3238998,17.0616938 C23.3118546,16.6402809 24.2180718,16.1729052 25.0566946,15.6472225 L26.2528111,18.6854271 C25.4362328,19.2111098 24.5507986,19.677435 23.5743973,20.0954992 Z M22.3428236,20.5859219 C21.2836224,20.9687918 20.1091521,21.3135782 18.6689519,21.6653903 L17.4580948,18.6368379 C18.8434492,18.293693 20.024161,17.9414869 21.0929237,17.5534954 L22.3428236,20.5859219 Z M17.8558264,23.2032389 L19.0672147,26.2334329 C16.8767692,26.7294368 17.1392455,26.6558964 15.2462023,27.0877494 L14.068744,24.0491508 C16.201555,23.5667387 16.0633117,23.6121762 17.8558264,23.2032389 Z M13.5885445,22.8099946 L12.4139414,19.7786187 C14.5392492,19.2958783 14.3081134,19.3641002 16.1521539,18.9416367 L17.3617495,21.9671687 C15.2014492,22.4560156 15.4554928,22.384248 13.5885445,22.8099946 Z M16.8919082,31.3349062 L15.7263354,28.3269056 C17.6193122,27.89827 17.9835122,27.8300481 19.5615573,27.4699627 L20.7601306,30.4680484 C18.7643013,30.9222262 18.6522857,30.9306308 16.8919082,31.3349062 Z M22.0675986,30.165876 L20.8678302,27.1650982 C22.3187871,26.8049471 23.5105212,26.4488013 24.5958837,26.0519456 L25.8346949,29.0575167 C24.7562379,29.4500387 23.5525519,29.803755 22.0675986,30.165876 Z M27.0667333,28.5681445 L25.8265278,25.5593561 C26.7634879,25.1597426 27.628936,24.7209295 28.4362847,24.2316887 L29.6241013,27.2490131 C28.8321572,27.7412087 27.9866952,28.1775923 27.0667333,28.5681445 Z M24.2168766,49.4351756 C24.1397207,49.6297951 23.9055968,49.73656 23.7020167,49.6592769 C23.4977725,49.5804179 23.3959824,49.351786 23.475728,49.1498124 L30.8593933,30.3899117 C30.8861522,30.4578052 31.3138963,31.5411477 31.2871374,31.4732541 L24.2168766,49.4351756 Z M36.9330011,28.5681445 C36.0166247,28.1793652 35.1728228,27.7440321 34.3817419,27.2525588 L35.5678984,24.2362849 C36.369072,24.7239499 37.2329266,25.1619094 38.1721443,25.5617199 L36.9330011,28.5681445 Z M54.9287308,25.4375547 L53.7800234,28.4986094 C52.6947273,28.1048398 51.5049187,27.7501386 50.058145,27.3905784 L51.2360681,24.3506666 C52.6835058,24.7047112 53.86362,25.0515988 54.9287308,25.4375547 Z M51.7151388,23.1142681 L52.8909371,20.0799375 C54.2919617,20.4222944 55.4757944,20.7711519 56.5357923,21.1548753 L55.3907369,24.2061465 C54.3174591,23.8171702 53.1421256,23.4675905 51.7151388,23.1142681 Z M50.4111235,22.8099289 C48.6042666,22.3980369 48.7771703,22.4512224 46.6380513,21.9672344 L47.8477133,18.941768 C49.5840542,19.3394116 49.5435507,19.3145261 51.5858594,19.778553 L50.4111235,22.8099289 Z M49.9309904,24.0490852 L48.7542625,27.0859109 C46.5757688,26.5925991 47.3335837,26.7789453 44.9321213,26.2341551 L46.143908,23.2032389 C47.9139133,23.6069233 47.7931995,23.5654255 49.9309904,24.0490852 Z M45.3306497,21.6653903 C43.8904495,21.3135782 42.716112,20.9687261 41.6572428,20.5861189 L42.9070763,17.5536924 C43.9754406,17.9414212 45.1562852,18.29389 46.541374,18.6369036 L45.3306497,21.6653903 Z M44.8377679,22.8984401 L43.6250516,25.9319171 C42.1699116,25.5751804 40.9809662,25.2252724 39.9055636,24.8359677 L41.1555299,21.8032786 C42.2298701,22.1936995 43.4069964,22.5441985 44.8377679,22.8984401 Z M40.4250715,20.0954992 C39.4497326,19.6778289 38.5652943,19.2121604 37.7499777,18.6875939 L38.9450982,15.6485357 C39.7832562,16.1736931 40.6885438,16.6406092 41.6755026,17.0616938 L40.4250715,20.0954992 Z M39.9239562,21.31128 L38.6731932,24.3458733 C37.721094,23.9392341 36.8565755,23.4903092 36.0585891,22.9884614 L37.2583575,19.9375186 C38.0775253,20.4467204 38.9615652,20.9005699 39.9239562,21.31128 Z M41.9324014,30.1657447 C40.4486433,29.8040177 39.2451565,29.450367 38.1655707,29.0575823 L39.4039171,26.0531275 C40.4948572,26.4501145 41.6865913,26.805538 43.1322362,27.1645072 L41.9324014,30.1657447 Z M47.1076934,31.3349718 C45.3056836,30.920716 45.3714188,30.9528899 43.2393382,30.4677857 L44.4379115,27.469897 C46.0891286,27.8480393 46.2508108,27.870364 48.2739966,28.3249358 L47.1076934,31.3349718 Z M52.1807969,32.7600803 C51.0870017,32.3609265 49.881523,32.0022856 48.4116423,31.639508 L49.5792071,28.6263859 C51.0460998,28.9868653 52.2406891,29.3390058 53.3180172,29.729755 L52.1807969,32.7600803 Z M56.6250993,34.9474484 C55.6410621,34.2971409 54.5757522,33.7392842 53.4136986,33.2494524 L54.5492589,30.2233951 C55.7119102,30.7212376 56.7578315,31.2912415 57.7157074,31.9492971 L56.6250993,34.9474484 Z M58.1803031,30.6722544 C57.2133969,30.0357357 56.1640228,29.4804398 55.0117298,28.9911333 L56.1599724,25.9311948 C57.3098086,26.424441 58.3417197,26.9884698 59.2836598,27.639237 L58.1803031,30.6722544 Z M59.7485211,26.3613407 C58.7968867,25.732373 57.7613901,25.1833806 56.622377,24.6989987 L57.7671668,21.6484498 C58.9055159,22.13664 59.9241471,22.6924612 60.8508818,23.3309497 L59.7485211,26.3613407 Z M59.3664597,17.3867163 C60.4843578,17.8634158 61.4938259,18.4045946 62.412991,19.0368453 L61.3157431,22.0531848 C60.3790485,21.4358391 59.3566326,20.8952513 58.2296377,20.4161223 L59.3664597,17.3867163 Z M54.5365767,15.8329777 C55.9347461,16.1757943 57.093347,16.5141459 58.1356164,16.8916972 L56.9977984,19.9237954 C55.9306294,19.5373142 54.7519759,19.1857647 53.3699415,18.843736 L54.5365767,15.8329777 Z M49.5409611,14.7065616 C51.0102442,15.0424838 51.1641577,15.0615255 53.2324286,15.5290982 L52.0658598,18.5395938 C50.2752042,18.1293433 50.572009,18.2118136 48.3417238,17.7058949 L49.5409611,14.7065616 Z M48.2369458,14.3957876 L47.0342558,17.4040508 C45.6409999,17.0637293 44.4630768,16.7169731 43.4087892,16.336467 L44.6525803,13.3188143 C45.827449,13.7454801 47.0274831,14.0946658 48.2369458,14.3957876 Z M43.4194131,12.830624 L42.1766843,15.8457816 C41.1765785,15.41754 40.2709588,14.9386736 39.4370504,14.3975605 L40.6287845,11.3671695 C41.5271002,11.938815 42.4598108,12.4214897 43.4194131,12.830624 Z M39.0672728,5.19633959 C39.4687892,4.17511254 40.6240702,3.68271997 41.6438302,4.07642391 C42.6677733,4.47019351 43.1775869,5.60586785 42.7769337,6.62433713 C42.4025082,7.57425622 41.2991515,8.15594788 40.2058875,7.74904606 C39.1205251,7.32343083 38.689129,6.15564822 39.0672728,5.19633959 Z M39.3586992,8.80513915 C39.6060365,8.93580474 39.8366412,9.02365928 40.1008439,9.09050228 L33.1402747,26.7709346 C33.1135158,26.703041 32.6859045,25.6189107 32.7126634,25.6868042 L39.3586992,8.80513915 Z M40.524272,49.1498781 C40.6040176,49.3518516 40.5025595,49.5804836 40.2983153,49.6590142 C40.0937392,49.7378732 39.8612753,49.6330124 39.7834554,49.4352412 C33.659185,33.8832134 31.8883828,29.3864131 29.4237747,23.12786 L23.9001521,9.08991133 C24.1692683,9.02188643 24.3946939,8.9361987 24.6416328,8.80553312 C27.7776039,16.7714061 35.82991,37.2258885 40.524272,49.1498781 Z M21.2230663,6.62433713 C20.8233427,5.61007016 21.3281099,4.47203202 22.3559042,4.0760956 C23.380445,3.68304828 24.5345971,4.18509303 24.9327936,5.19633959 C25.8875487,7.62264845 22.1771574,9.04788823 21.2230663,6.62433713 Z M23.3715475,11.3667099 L24.564344,14.3965099 C23.73017,14.938017 22.8238199,15.4174086 21.8228509,15.8458473 L20.5800557,12.8306897 C21.5398572,12.4213584 22.4728998,11.938618 23.3715475,11.3667099 Z M19.3474197,13.318683 L20.5912108,16.3364013 C19.536392,16.7171701 18.3587345,17.0638606 16.965213,17.4041164 L15.762523,14.3959189 C16.9721185,14.0947315 18.1722854,13.7454144 19.3474197,13.318683 Z M14.4589725,14.7064959 L15.6580106,17.7058292 C13.5511617,18.1841046 13.7327637,18.1274391 11.9338082,18.5396595 L10.767173,15.5289668 C12.7903588,15.0719656 13.0011765,15.0397917 14.4589725,14.7064959 Z M9.46309134,15.8331747 L10.6297265,18.843933 C9.24749291,19.186093 8.06910504,19.5373142 7.00186955,19.9237954 L5.86498123,16.894455 C6.90771539,16.5163784 8.0641915,16.1762539 9.46309134,15.8331747 Z M1.58700898,19.0367796 C2.5058421,18.4045946 3.51537662,17.8632188 4.63327475,17.3867163 L5.77016307,20.4160566 C4.64316824,20.89512 3.62075226,21.4359048 2.68432334,22.0532504 L1.58700898,19.0367796 Z M3.14891904,23.3307527 C4.07532167,22.6923956 5.09408569,22.13664 6.2325012,21.6483841 L7.37735743,24.698933 C6.23867633,25.183118 5.2031133,25.7321761 4.25127974,26.361275 L3.14891904,23.3307527 Z M4.71614104,27.6391713 C5.6584795,26.9884042 6.69039057,26.4241127 7.83976196,25.9311292 L8.98734056,28.9890978 C7.83338763,29.4795205 6.78421274,30.0355387 5.81936493,30.6721887 L4.71614104,27.6391713 Z M9.44981149,30.2212283 L10.586235,33.2494524 C9.42291978,33.7398095 8.35794187,34.2976005 7.37450226,34.9474484 L6.28396063,31.9494284 C7.23951255,31.2911759 8.28543387,30.7202526 9.44981149,30.2212283 Z" id="Shape"></path>
                <polygon id="Rectangle" transform="translate(41.532943, 42.230446) rotate(67.957000) translate(-41.532943, -42.230446) " points="37.5988141 41.5828643 45.4722084 41.5521217 45.4670726 42.8780277 37.5936784 42.9087703"></polygon>
                <polygon id="Rectangle" transform="translate(39.312269, 36.802954) rotate(-112.038000) translate(-39.312269, -36.802954) " points="38.4256931 36.1434719 40.2039794 36.1365296 40.1988446 37.4624365 38.4205583 37.4693787"></polygon>
                <polygon id="Rectangle" transform="translate(22.679949, 42.268481) rotate(-157.941000) translate(-22.679949, -42.268481) " points="22.0323775 38.334345 23.3582806 38.3292063 23.3275203 46.2026177 22.0016172 46.2077564"></polygon>
                <polygon id="Rectangle" transform="translate(24.904153, 36.835154) rotate(22.059000) translate(-24.904153, -36.835154) " points="24.2446751 35.9485775 25.5705782 35.9434388 25.5636307 37.7217302 24.2377276 37.7268689"></polygon>
            </g>
        </g>
    </g>
</svg>