<?xml version="1.0" encoding="UTF-8"?>
<svg width="20px" height="20px" viewBox="0 0 20 20" version="1.1" xmlns="http://www.w3.org/2000/svg" xmlns:xlink="http://www.w3.org/1999/xlink">
    <title>Check / Filled</title>
    <g id="Green-on-White" stroke="none" stroke-width="1" fill="none" fill-rule="evenodd">
        <g id="Artboard" transform="translate(-677.000000, -410.000000)">
            <g id="Group" transform="translate(675.000000, 408.000000)">
                <rect id="Rectangle" x="0" y="0" width="24" height="24"></rect>
                <path d="M12,2 C19.6224919,2 22,4.74231189 22,12 C22,19.2576881 19.6224919,22 12,22 C4.37750808,22 2,19.2576881 2,12 C2,4.74231189 4.37750808,2 12,2 Z M15.811262,9.11675193 C15.4562399,8.76172985 14.8806353,8.76172985 14.5256133,9.11675193 L14.5256133,9.11675193 L10.6683458,12.9736337 L9.38301849,11.6880493 C9.02799641,11.3330272 8.45239188,11.3330272 8.0973698,11.6880493 C7.74234772,12.0430714 7.74234772,12.6186759 8.0973698,12.973698 L8.0973698,12.973698 L10.0258428,14.9021711 C10.3808649,15.2571931 10.9564695,15.2571931 11.3114915,14.9021711 L11.3114915,14.9021711 L15.811262,10.4024006 C16.166284,10.0473785 16.166284,9.47177401 15.811262,9.11675193 Z" id="Combined-Shape" fill="currentColor"></path>
            </g>
        </g>
    </g>
</svg>
