<?xml version="1.0" encoding="UTF-8"?>
<svg width="24px" height="24px" viewBox="0 0 24 24" version="1.1" xmlns="http://www.w3.org/2000/svg" xmlns:xlink="http://www.w3.org/1999/xlink">
    <title>A29982BB-F3AE-4458-BB8F-9CA7F783905A</title>
    <g id="Green-on-White" stroke="none" stroke-width="1" fill="none" fill-rule="evenodd" stroke-linecap="round" stroke-linejoin="round">
        <g id="Assets" transform="translate(-340.000000, -892.000000)" stroke="currentColor" stroke-width="1.6">
            <g id="Light-/-Active-/-4" transform="translate(340.000000, 892.000000)">
                <path d="M14.52,11.5 C16.59,11.5 18.27,9.82 18.27,7.75 C18.27,5.67 16.59,4 14.52,4 C12.44,4 10.7699553,5.67 10.7699553,7.75 C10.76,9.81 12.43,11.49 14.49,11.5 L14.51,11.5 L14.52,11.5 Z" id="Path"></path>
                <path d="M14.52,20.5 C11.01,20.5 8.02,20.02 8.02,18.12 C8.02,16.22 10.99,14.49 14.52,14.49 C18.02,14.49 21.02,16.2 21.02,18.09 C21.02,19.98 18.04,20.48 14.52,20.48 L14.52,20.5 Z" id="Path"></path>
                <path d="M8.45,11 L8.42,11 C6.63,10.99 5.18,9.53 5.19,7.74 C5.19,5.94 6.64,4.48 8.44,4.48 M5.94,19.85 C4.21,19.63 3,19.1 3,17.99 C3,16.88 4.2,15.84 5.93,15.32" id="Shape"></path>
            </g>
        </g>
    </g>
</svg>
