<?xml version="1.0" encoding="UTF-8"?>
<svg width="24px" height="24px" viewBox="0 0 24 24" version="1.1" xmlns="http://www.w3.org/2000/svg" xmlns:xlink="http://www.w3.org/1999/xlink">
    <title>ABA7553B-E4DD-495D-8FB5-E6A3B04F0B75</title>
    <g id="Green-on-White" stroke="none" stroke-width="1" fill="none" fill-rule="evenodd">
        <g id="Assets" transform="translate(-153.000000, -1090.000000)" fill="currentColor" fill-rule="nonzero">
            <g id="Dark-/-Active-/-2" transform="translate(153.000000, 1090.000000)">
                <path d="M11.6949736,2.20153862 C4.72547115,2.26838431 2.36215776,4.52550299 2.22628529,11.3516428 L2.22,11.824 L2.20623314,11.8996497 C2.20211936,11.9325215 2.2,11.9660132 2.2,12 C2.2,18.8586192 4.26184205,21.4155658 10.4351613,21.7590028 L11.0454831,21.7853987 C11.3571303,21.7952118 11.6785585,21.8 12.01,21.8 C19.4032626,21.8 21.81,19.4106397 21.81,12 L21.8084621,11.6750196 L21.7960032,11.0446319 L21.7706877,10.4399954 C21.4412386,4.32370245 18.9861137,2.26534304 12.3446376,2.20153862 L11.6949736,2.20153862 Z M11.4194748,3.80490997 L12.02,3.8 L12.6196824,3.80491209 L13.191206,3.82004782 C13.2841466,3.8234557 13.3759389,3.82731453 13.4665953,3.83163679 L13.9970024,3.86323141 C18.2189718,4.16830169 19.7735008,5.64601662 20.1266939,9.76495803 L20.1640376,10.2826187 C20.169294,10.3711289 20.1740751,10.4607641 20.1783932,10.5515367 L20.1988459,11.1099228 C20.2013619,11.2052954 20.20344,11.3018305 20.2050925,11.3995405 L20.21,12 L20.2087518,12.302291 L20.1985513,12.8858555 C20.1933911,13.0757549 20.1864392,13.2610644 20.1775997,13.4418809 L20.1453228,13.9709481 L20.1011463,14.4736382 C19.7237629,18.1463522 18.2938892,19.6425202 14.7212066,20.0651693 L14.2320551,20.1152577 L13.716933,20.153204 L13.175266,20.1795891 C13.0827442,20.1830555 12.9890924,20.1860644 12.8942987,20.1886278 L12.3117375,20.1987606 C12.2123282,20.1995909 12.111753,20.2 12.01,20.2 L11.7078351,20.1987612 C11.40429,20.1962306 11.1116035,20.1897857 10.8294357,20.179083 L10.279024,20.1518988 C6.075748,19.8928917 4.39856008,18.5326439 3.93988336,14.7506416 L3.88784747,14.2545753 C3.86503845,13.9998625 3.84696724,13.7350539 3.83329379,13.4598062 L3.81170984,12.8952902 L3.8,12.169 L3.81376686,12.1003503 L3.8184261,12.0505933 L3.82490997,11.3994748 L3.84003961,10.8271567 C3.84685272,10.6410185 3.85546904,10.4594817 3.8659885,10.2824461 L3.90335622,9.76474353 C3.91778188,9.5966107 3.93421062,9.43287927 3.95274235,9.27344931 L4.01474647,8.80796389 C4.47149969,5.78942465 5.80942465,4.45149969 8.82796389,3.99474647 L9.29344931,3.93274235 C9.45287927,3.91421062 9.6166107,3.89778188 9.78474353,3.88335622 L10.3024461,3.8459885 C10.3909639,3.84072877 10.480607,3.83594483 10.5713879,3.83162418 L11.1298273,3.81115986 C11.2252095,3.80864242 11.3217545,3.80656329 11.4194748,3.80490997 Z" id="Path"></path>
                <path d="M14.4543146,9.63431458 C14.766734,9.32189514 15.273266,9.32189514 15.5856854,9.63431458 C15.8697031,9.91833224 15.8955229,10.3627735 15.6631448,10.6759591 L15.5856854,10.7656854 L11.5856854,14.7656854 C11.3016678,15.0497031 10.8572265,15.0755229 10.5440409,14.8431448 L10.4543146,14.7656854 L8.45431458,12.7656854 C8.14189514,12.453266 8.14189514,11.946734 8.45431458,11.6343146 C8.73833224,11.3502969 9.1827735,11.3244771 9.4959591,11.5568552 L9.58568542,11.6343146 L11.02,13.069 L14.4543146,9.63431458 Z" id="Path"></path>
            </g>
        </g>
    </g>
</svg>
