<?xml version="1.0" encoding="UTF-8"?>
<svg width="188px" height="163px" viewBox="0 0 188 163" version="1.1" xmlns="http://www.w3.org/2000/svg" xmlns:xlink="http://www.w3.org/1999/xlink">
    <title>3941B434-4EE9-42C9-92BF-83ADAE0366EE</title>
    <defs>
        <linearGradient x1="98.3179771%" y1="15.6906338%" x2="1.80480978%" y2="75.8179274%" id="linearGradient-1">
            <stop stop-color="#FF60FA" offset="0%"></stop>
            <stop stop-color="#AE3EAB" offset="100%"></stop>
        </linearGradient>
    </defs>
    <g id="Green-on-White" stroke="none" stroke-width="1" fill="none" fill-rule="evenodd">
        <g id="Assets" transform="translate(-630.000000, -1142.000000)" fill-rule="nonzero">
            <g id="heart-rate-copy" transform="translate(630.000000, 1142.000000)">
                <path d="M184.311944,34.124245 C177.672552,16.2077666 161.771859,3.32788986 142.834227,0.526471191 C111.285112,-4.22453478 94.0300831,24.7432931 94.0300831,24.7432931 C57.1339944,-31.5340002 -27.8503087,15.9800682 9.11689086,92.1673314 C9.11689086,92.1673314 29.6253422,132.789795 86.9772522,161.340327 C91.4184539,163.553224 96.6441229,163.553224 101.085325,161.340327 C158.436029,132.789795 178.945686,92.1673314 178.945686,92.1673314 C190.6842,66.8549561 189.318631,47.6076095 184.311944,34.124245 Z" id="Path" fill="url(#linearGradient-1)"></path>
                <path d="M109.484441,84.6271338 C111.029435,83.3996901 112.949334,82.7375699 114.92422,82.7511038 L128.333237,82.7511038 C130.287368,82.7511038 131.871504,81.1704971 131.871504,79.2207199 C131.871504,77.2709427 130.287368,75.690336 128.333237,75.690336 L114.92422,75.690336 C111.325281,75.6783458 107.831002,76.8978121 105.024143,79.145358 C99.3746465,83.7223903 94.7391829,91.7043368 91.8437256,97.5937884 C90.0457878,101.189529 86.3663477,103.463378 82.3389762,103.467606 C78.4730369,103.499231 74.9039861,101.40347 73.0547911,98.0158952 C68.1851036,88.8506065 66.2096681,77.8040767 66.1120413,77.3591209 C65.1345683,73.1340447 64.1233479,69.2617263 63.1048958,65.845187 C61.4123703,60.1371551 56.4144574,56.0272226 50.4757216,55.4598412 C44.5369858,54.8924597 38.8482244,57.981397 36.1008494,63.2652448 C33.7798906,67.8410732 30.8157998,72.0626796 27.29837,75.8021763 C20.5890406,82.7230435 13.4036301,81.2538875 4.76305838,81.388176 C5.55210765,83.6843085 6.45619313,86.0378977 7.47531482,88.4489437 L14.1802249,88.4489437 C27.8315005,88.6153011 36.4885442,77.786038 42.3919505,66.4957846 C45.445298,60.5337772 54.4542802,61.3864087 56.322045,67.8587124 C57.2918846,71.1117003 58.2593136,74.8144545 59.1978162,78.8667595 C59.4280226,80.1154419 61.6702242,91.7744875 66.8183288,101.352262 C73.4151664,113.826659 92.0534424,113.385712 98.1954919,100.703669 C101.900086,93.1686825 105.80355,87.6099414 109.484441,84.6271338 Z" id="Path" fill="#FFFFFF"></path>
                <path d="M152.244564,83.4646366 C150.559486,83.4578124 149.111134,82.2705659 148.777407,80.6225312 C148.68259,80.1663948 148.68259,79.6956968 148.777407,79.2395604 C149.357543,76.1821926 153.477955,75.3824747 155.187428,77.9692315 C155.912792,79.0529705 155.981367,80.4471185 155.365847,81.5965193 C154.750328,82.7459202 153.550662,83.463931 152.244564,83.4646366 L152.244564,83.4646366 Z" id="Path" fill="#FFFFFF"></path>
            </g>
        </g>
    </g>
</svg>