<?xml version="1.0" encoding="UTF-8"?>
<svg width="24px" height="24px" viewBox="0 0 24 24" version="1.1" xmlns="http://www.w3.org/2000/svg" xmlns:xlink="http://www.w3.org/1999/xlink">
    <title>House</title>
    <g id="Green-on-White" stroke="none" stroke-width="1" fill="none" fill-rule="evenodd">
        <g id="Artboard" transform="translate(-35.000000, -261.000000)" fill-rule="nonzero">
            <g id="House" transform="translate(35.000000, 261.000000)">
                <path d="M21.0917217,6.31053913 L12.2221565,2.13662609 C12.0814529,2.07041204 11.9185471,2.07041204 11.7778435,2.13662609 L2.90827826,6.31053913 C2.72541644,6.39659248 2.60869565,6.58051064 2.60869565,6.7826087 L2.60869565,22.4347826 C2.60964454,23.298835 3.3098607,23.9990511 4.17391304,24 L19.826087,24 C20.6901393,23.9990511 21.3903555,23.298835 21.3913043,22.4347826 L21.3913043,6.7826087 C21.3913043,6.58051064 21.2745836,6.39659248 21.0917217,6.31053913 Z" id="Path" fill="#E7E7E7"></path>
                <path d="M21.0917217,6.31053913 L12.2221565,2.13662609 C12.0814529,2.07041204 11.9185471,2.07041204 11.7778435,2.13662609 L11.4782609,2.2776 L20.0482435,6.31064348 C20.2310712,6.39668077 20.3477822,6.58054836 20.3478261,6.7826087 L20.3478261,22.4347826 C20.3468772,23.298835 19.646661,23.9990511 18.7826087,24 L19.826087,24 C20.6901393,23.9990511 21.3903555,23.298835 21.3913043,22.4347826 L21.3913043,6.7826087 C21.3913043,6.58051064 21.2745836,6.39659248 21.0917217,6.31053913 Z" id="Path" fill="#D9D9D9"></path>
                <rect id="Rectangle" fill="#222A31" x="2.60869565" y="0" width="3.13043478" height="6.26086957" rx="0.52173913"></rect>
                <path d="M23.6963478,5.75238261 L12.6501391,0.664382609 C12.2378396,0.473827685 11.7626821,0.473827685 11.3503826,0.664382609 L0.303652174,5.75238261 C0.118621321,5.83752009 0,6.0225479 0,6.22622609 L0,8.86956522 C0,9.04736037 0.0906250871,9.21289454 0.240344256,9.3087866 C0.390063425,9.40467867 0.578308608,9.41772708 0.739826087,9.3434087 L11.7870261,4.2554087 C11.9222754,4.19273782 12.0782464,4.19273782 12.2134957,4.2554087 L23.2602261,9.3434087 C23.4217386,9.41770326 23.6099659,9.40464265 23.7596698,9.30875359 C23.9093737,9.21286453 24,9.04734591 24,8.86956522 L24,6.22622609 C24,6.0225479 23.8813787,5.83752009 23.6963478,5.75238261 Z" id="Path" fill="#32A1C7"></path>
                <path d="M23.6963478,5.75238261 L22.9565217,5.41163478 L22.9565217,9.20347826 L23.2601739,9.34335652 C23.421683,9.41767104 23.6099176,9.40462809 23.7596338,9.30874851 C23.90935,9.21286892 23.9999383,9.0473511 24,8.86956522 L24,6.22622609 C23.9999497,6.0225479 23.8813787,5.83752009 23.6963478,5.75238261 Z" id="Path" fill="#4EC1E9"></path>
                <path d="M10.4347826,13.5652174 L5.2173913,13.5652174 C4.92924274,13.5652174 4.69565217,13.798808 4.69565217,14.0869565 L4.69565217,24 L10.9565217,24 L10.9565217,14.0869565 C10.9565217,13.798808 10.7229312,13.5652174 10.4347826,13.5652174 Z" id="Path" fill="#8D97A0"></path>
                <path d="M10.4347826,13.5652174 L9.39130435,13.5652174 C9.67945291,13.5652174 9.91304348,13.798808 9.91304348,14.0869565 L9.91304348,24 L10.9565217,24 L10.9565217,14.0869565 C10.9565217,13.798808 10.7229312,13.5652174 10.4347826,13.5652174 Z" id="Path" fill="#7C838A"></path>
                <rect id="Rectangle" fill="#189CC9" x="12" y="13.5652174" width="7.30434783" height="5.2173913" rx="0.52173913"></rect>
                <path d="M18.7826087,13.5652174 L17.7391304,13.5652174 C18.027279,13.5652174 18.2608696,13.798808 18.2608696,14.0869565 L18.2608696,18.2608696 C18.2608696,18.5490181 18.027279,18.7826087 17.7391304,18.7826087 L18.7826087,18.7826087 C19.0707573,18.7826087 19.3043478,18.5490181 19.3043478,18.2608696 L19.3043478,14.0869565 C19.3043478,13.798808 19.0707573,13.5652174 18.7826087,13.5652174 Z" id="Path" fill="#4EC1E9"></path>
                <circle id="Oval" fill="#8D97A0" cx="12" cy="8.86956522" r="2.08695652"></circle>
                <path d="M12,6.7826087 C11.8236347,6.78489594 11.648291,6.80979474 11.4782609,6.85669565 C12.3989866,7.09069768 13.0435713,7.91959506 13.0435713,8.8695913 C13.0435713,9.81958755 12.3989866,10.6484849 11.4782609,10.882487 C11.6482933,10.9293702 11.8236369,10.9542515 12,10.9565217 C13.1525943,10.9565217 14.0869565,10.0221595 14.0869565,8.86956522 C14.0869565,7.71697096 13.1525943,6.7826087 12,6.7826087 Z" id="Path" fill="#7C838A"></path>
            </g>
        </g>
    </g>
</svg>