<?xml version="1.0" encoding="UTF-8"?>
<svg width="24px" height="24px" viewBox="0 0 24 24" version="1.1" xmlns="http://www.w3.org/2000/svg" xmlns:xlink="http://www.w3.org/1999/xlink">
    <title>Barbell</title>
    <g id="Green-on-White" stroke="none" stroke-width="1" fill="none" fill-rule="evenodd">
        <g id="Artboard" transform="translate(-35.000000, -331.000000)" fill-rule="nonzero">
            <g id="Barbell" transform="translate(35.000000, 331.000000)">
                <path d="M-1.88502466,10.457231 L25.8850247,10.457231 C26.7370725,10.457231 27.4277937,11.1479522 27.4277937,12 C27.4277937,12.8520478 26.7370725,13.542769 25.8850247,13.542769 L-1.88502466,13.542769 C-2.73707248,13.542769 -3.42779371,12.8520478 -3.42779371,12 C-3.42779371,11.1479522 -2.73707248,10.457231 -1.88502466,10.457231 Z" id="Rectangle" fill="#E7E7E7" transform="translate(12.000000, 12.000000) rotate(-45.000000) translate(-12.000000, -12.000000) "></path>
                <path d="M4.07664804,14.7592232 L6.14228023,14.7592232 L6.14228023,24.0545681 L4.07664804,24.0545681 C3.50623946,24.0545681 3.04383195,23.5921606 3.04383195,23.021752 L3.04383195,15.7920393 C3.04383195,15.2216307 3.50623946,14.7592232 4.07664804,14.7592232 Z" id="Path" fill="currentColor" transform="translate(4.593056, 19.406896) rotate(-45.000000) translate(-4.593056, -19.406896) "></path>
                <path d="M17.8576681,-0.0545680784 L19.9233003,-0.0545680784 C20.4937089,-0.0545680784 20.9561164,0.407839438 20.9561164,0.978248017 L20.9561164,8.20796068 C20.9561164,8.77836926 20.4937089,9.24077678 19.9233003,9.24077678 L17.8576681,9.24077678 L17.8576681,-0.0545680784 Z" id="Path" fill="currentColor" transform="translate(19.406892, 4.593104) rotate(-45.000000) translate(-19.406892, -4.593104) "></path>
                <polygon id="Rectangle" fill="currentColor" transform="translate(5.323464, 18.676528) rotate(-45.000000) translate(-5.323464, -18.676528) " points="4.80715887 14.0288558 5.8397684 14.0288558 5.8397684 23.3242007 4.80715887 23.3242007"></polygon>
                <path d="M6.19195869,9.80373702 L7.74118283,9.80373702 C8.31159141,9.80373702 8.77399893,10.2661445 8.77399893,10.8365531 L8.77399893,23.2303463 C8.77399893,23.8007548 8.31159141,24.2631624 7.74118283,24.2631624 L6.19195869,24.2631624 C5.62155011,24.2631624 5.15914259,23.8007548 5.15914259,23.2303463 L5.15914259,10.8365531 C5.15914259,10.2661445 5.62155011,9.80373702 6.19195869,9.80373702 Z" id="Rectangle" fill="currentColor" transform="translate(6.966571, 17.033450) rotate(-45.000000) translate(-6.966571, -17.033450) "></path>
                <polygon id="Rectangle" fill="currentColor" transform="translate(18.676501, 5.323451) rotate(-44.999900) translate(-18.676501, -5.323451) " points="18.1601964 0.675778259 19.192806 0.675778259 19.192806 9.97112312 18.1601964 9.97112312"></polygon>
                <path d="M16.2587655,-0.263162354 L17.8079897,-0.263162354 C18.3783983,-0.263162354 18.8408058,0.199245162 18.8408058,0.769653741 L18.8408058,13.1634469 C18.8408058,13.7338555 18.3783983,14.196263 17.8079897,14.196263 L16.2587655,14.196263 C15.6883569,14.196263 15.2259494,13.7338555 15.2259494,13.1634469 L15.2259494,0.769653741 C15.2259494,0.199245162 15.6883569,-0.263162354 16.2587655,-0.263162354 Z" id="Rectangle" fill="currentColor" transform="translate(17.033378, 6.966550) rotate(-45.000000) translate(-17.033378, -6.966550) "></path>
            </g>
        </g>
    </g>
</svg>
