<?xml version="1.0" encoding="UTF-8"?>
<svg width="24px" height="24px" viewBox="0 0 24 24" version="1.1" xmlns="http://www.w3.org/2000/svg" xmlns:xlink="http://www.w3.org/1999/xlink">
    <title>1B13F79E-D0CA-4D0E-B82C-CCC84F5F7E7C</title>
    <g id="Green-on-White" stroke="none" stroke-width="1" fill="none" fill-rule="evenodd">
        <g id="Assets" transform="translate(-153.000000, -892.000000)">
            <g id="Light-/-Active-/-2" transform="translate(153.000000, 892.000000)">
                <g id="Group" transform="translate(3.000000, 3.000000)">
                    <path d="M0.02,9.16522542 C0.02,2.16522542 2.02,0.165225425 9.02,0.165225425 C16.01,0.165225425 18.01,2.16522542 18.01,9.15522542 C18.01,16.1552254 15.93,18.1552254 9.01,18.1552254 C2.08,18.1552254 0,16.1552254 0,9.15522542 L0.02,9.16522542 Z" id="Path" stroke="currentColor" stroke-width="1.6" stroke-linecap="round" stroke-linejoin="round"></path>
                    <line x1="8.02" y1="7.16522542" x2="12.02" y2="7.16522542" id="Path" stroke="currentColor" stroke-width="1.6" stroke-linecap="round"></line>
                    <line x1="8.02" y1="11.1652254" x2="14.02" y2="11.1652254" id="Path" stroke="currentColor" stroke-width="1.6" stroke-linecap="round"></line>
                    <path d="M5.32,9.15522542 C5.31,11.3852254 5.38,13.6252254 5.44,15.3052254 C5.47,16.1452254 5.5,16.8452254 5.52,17.3352254 C5.53,17.5752254 5.54,17.7652254 5.54,17.8952254 C5.54,17.9552254 5.54,18.0052254 5.54,18.0352254 C5.54,18.0452254 5.54,18.0552254 5.54,18.0652254 C5.54,18.0652254 5.54,18.0652254 5.54,18.0652254 C5.54,18.0652254 5.54,18.0652254 5.54,18.0652254 C5.54,18.0652254 5.54,18.0652254 5.54,18.0652254 C5.54,18.0652254 5.54,18.0652254 5.54,18.0652254 C5.54,18.0652254 5.54,18.0652254 4.74,18.1052254 C3.94,18.1452254 3.94,18.1452254 3.94,18.1452254 C3.94,18.1452254 3.93,18.1352254 3.93,18.1352254 C3.92,18.1252254 3.92,18.1252254 3.92,18.1252254 C3.91,18.1152254 3.91,18.1152254 3.91,18.1152254 C3.9,18.1052254 3.9,18.1052254 3.9,18.0952254 C3.89,18.0852254 3.89,18.0652254 3.89,18.0552254 C3.88,18.0152254 3.88,17.9652254 3.88,17.8952254 C3.87,17.7552254 3.86,17.5652254 3.85,17.3152254 C3.82,16.8152254 3.79,16.1052254 3.76,15.2652254 C3.69,13.5652254 3.63,11.3052254 3.63,9.04522542 L5.23,9.04522542 L5.32,9.15522542 Z M4.77,0.155225425 C5.56,0.195225425 5.56,0.195225425 5.56,0.195225425 C5.56,0.195225425 5.56,0.195225425 5.55,0.195225425 C5.55,0.195225425 5.54,0.195225425 5.54,0.195225425 C5.53,0.195225425 5.53,0.195225425 5.53,0.195225425 C5.52,0.195225425 5.52,0.195225425 5.52,0.195225425 C5.51,0.195225425 5.51,0.215225425 5.51,0.225225425 C5.5,0.255225425 5.5,0.305225425 5.5,0.365225425 C5.49,0.495225425 5.48,0.685225425 5.47,0.925225425 C5.44,1.40522542 5.41,2.11522542 5.38,2.95522542 C5.31,4.63522542 5.25,6.87522542 5.25,9.10522542 L3.65,9.10522542 C3.65,6.83522542 3.71,4.57522542 3.77,2.88522542 C3.8,2.03522542 3.83,1.32522542 3.85,0.835225425 C3.86,0.585225425 3.87,0.385225425 3.87,0.255225425 C3.87,0.185225425 3.87,0.135225425 3.87,0.0952254249 C3.87,0.0752254249 3.87,0.0552254249 3.87,0.0552254249 C3.87,0.0452254249 3.87,0.0452254249 3.87,0.0352254249 C3.87,0.0252254249 3.87,0.0252254249 3.87,0.0252254249 C3.87,0.0152254249 3.87,0.0152254249 3.87,0.0152254249 C3.87,0.00522542486 3.87,0.00522542486 3.87,0.00522542486 C3.87,-0.00477457514 3.87,-0.00477457514 4.66,0.0452254249 L4.77,0.155225425 Z" id="Shape" fill="currentColor" fill-rule="nonzero"></path>
                </g>
            </g>
        </g>
    </g>
</svg>
