<?xml version="1.0" encoding="UTF-8"?>
<svg width="24px" height="24px" viewBox="0 0 24 24" version="1.1" xmlns="http://www.w3.org/2000/svg" xmlns:xlink="http://www.w3.org/1999/xlink">
    <title>LIght</title>
    <g id="Green-on-White" stroke="none" stroke-width="1" fill="none" fill-rule="evenodd">
        <g id="Artboard" transform="translate(-323.000000, -494.000000)">
            <g id="LIght" transform="translate(323.000000, 494.000000)">
                <rect id="Rectangle" x="0" y="0" width="24" height="24"></rect>
                <path d="M12,9 C13.65,9 15,10.35 15,12 C15,13.65 13.65,15 12,15 C10.35,15 9,13.65 9,12 C9,10.35 10.35,9 12,9 M12,7 C9.24,7 7,9.24 7,12 C7,14.76 9.24,17 12,17 C14.76,17 17,14.76 17,12 C17,9.24 14.76,7 12,7 L12,7 Z M2,13 L4,13 C4.55,13 5,12.55 5,12 C5,11.45 4.55,11 4,11 L2,11 C1.45,11 1,11.45 1,12 C1,12.55 1.45,13 2,13 Z M20,13 L22,13 C22.55,13 23,12.55 23,12 C23,11.45 22.55,11 22,11 L20,11 C19.45,11 19,11.45 19,12 C19,12.55 19.45,13 20,13 Z M11,2 L11,4 C11,4.55 11.45,5 12,5 C12.55,5 13,4.55 13,4 L13,2 C13,1.45 12.55,1 12,1 C11.45,1 11,1.45 11,2 Z M11,20 L11,22 C11,22.55 11.45,23 12,23 C12.55,23 13,22.55 13,22 L13,20 C13,19.45 12.55,19 12,19 C11.45,19 11,19.45 11,20 Z M5.99,4.58 C5.6,4.19 4.96,4.19 4.58,4.58 C4.19,4.97 4.19,5.61 4.58,5.99 L5.64,7.05 C6.03,7.44 6.67,7.44 7.05,7.05 C7.43,6.66 7.44,6.02 7.05,5.64 L5.99,4.58 Z M18.36,16.95 C17.97,16.56 17.33,16.56 16.95,16.95 C16.56,17.34 16.56,17.98 16.95,18.36 L18.01,19.42 C18.4,19.81 19.04,19.81 19.42,19.42 C19.81,19.03 19.81,18.39 19.42,18.01 L18.36,16.95 Z M19.42,5.99 C19.81,5.6 19.81,4.96 19.42,4.58 C19.03,4.19 18.39,4.19 18.01,4.58 L16.95,5.64 C16.56,6.03 16.56,6.67 16.95,7.05 C17.34,7.43 17.98,7.44 18.36,7.05 L19.42,5.99 Z M7.05,18.36 C7.44,17.97 7.44,17.33 7.05,16.95 C6.66,16.56 6.02,16.56 5.64,16.95 L4.58,18.01 C4.19,18.4 4.19,19.04 4.58,19.42 C4.97,19.8 5.61,19.81 5.99,19.42 L7.05,18.36 Z" id="Shape" fill="#32A1C7" fill-rule="nonzero"></path>
            </g>
        </g>
    </g>
</svg>