<?xml version="1.0" encoding="UTF-8"?>
<svg width="22px" height="22px" viewBox="0 0 22 22" version="1.1" xmlns="http://www.w3.org/2000/svg" xmlns:xlink="http://www.w3.org/1999/xlink">
    <title>E88FDF41-8CFF-4F8C-BAF3-11E8D3596A00</title>
    <g id="Green-on-White" stroke="none" stroke-width="1" fill="none" fill-rule="evenodd">
        <g id="Assets" transform="translate(-982.000000, -699.000000)">
            <g id="local-fire-department-round-24px" transform="translate(982.000000, 699.000000)">
                <polygon id="Path" points="0 0 22 0 22 22 0 22"></polygon>
                <g id="Group" transform="translate(3.666667, 1.371291)" fill-rule="nonzero">
                    <path d="M14.19,9.94954278 C12.7508333,6.20954278 7.62666667,6.00787611 8.86416667,0.572042775 C8.95583333,0.168709442 8.525,-0.142957225 8.17666667,0.0678761085 C4.84916667,2.02954278 2.45666667,5.96204278 4.46416667,11.1137094 C4.62916667,11.5353761 4.13416667,11.9295428 3.77666667,11.6545428 C2.1175,10.3987094 1.94333333,8.59287611 2.09,7.30037611 C2.145,6.82370944 1.52166667,6.59454278 1.25583333,6.98870944 C0.6325,7.94204278 0,9.48204278 0,11.8012094 C0.348333333,16.9345428 4.68416667,18.5112094 6.2425,18.7128761 C8.47,18.9970428 10.8808333,18.5845428 12.6133333,16.9987094 C14.52,15.2295428 15.2166667,12.4062094 14.19,9.94954278 L14.19,9.94954278 Z M5.68333333,14.5603761 C7.00333333,14.2395428 7.68166667,13.2862094 7.865,12.4428761 C8.1675,11.1320428 6.985,9.84870944 7.7825,7.77704278 C8.085,9.49120944 10.78,10.5637094 10.78,12.4337094 C10.8533333,14.7528761 8.34166667,16.7420428 5.68333333,14.5603761 L5.68333333,14.5603761 Z" id="a" fill="#000000"></path>
                    <path d="M14.19,9.94954278 C12.7508333,6.20954278 7.62666667,6.00787611 8.86416667,0.572042775 C8.95583333,0.168709442 8.525,-0.142957225 8.17666667,0.0678761085 C4.84916667,2.02954278 2.45666667,5.96204278 4.46416667,11.1137094 C4.62916667,11.5353761 4.13416667,11.9295428 3.77666667,11.6545428 C2.1175,10.3987094 1.94333333,8.59287611 2.09,7.30037611 C2.145,6.82370944 1.52166667,6.59454278 1.25583333,6.98870944 C0.6325,7.94204278 0,9.48204278 0,11.8012094 C0.348333333,16.9345428 4.68416667,18.5112094 6.2425,18.7128761 C8.47,18.9970428 10.8808333,18.5845428 12.6133333,16.9987094 C14.52,15.2295428 15.2166667,12.4062094 14.19,9.94954278 L14.19,9.94954278 Z M5.68333333,14.5603761 C7.00333333,14.2395428 7.68166667,13.2862094 7.865,12.4428761 C8.1675,11.1320428 6.985,9.84870944 7.7825,7.77704278 C8.085,9.49120944 10.78,10.5637094 10.78,12.4337094 C10.8533333,14.7528761 8.34166667,16.7420428 5.68333333,14.5603761 L5.68333333,14.5603761 Z" id="a" fill="#FD6955"></path>
                </g>
            </g>
        </g>
    </g>
</svg>