<?xml version="1.0" encoding="UTF-8"?>
<svg width="182px" height="50px" viewBox="0 0 182 50" version="1.1" xmlns="http://www.w3.org/2000/svg" xmlns:xlink="http://www.w3.org/1999/xlink">
    <title>Logo_W</title>
    <g id="Green-on-White" stroke="none" stroke-width="1" fill="none" fill-rule="evenodd">
        <g id="Artboard" transform="translate(-67.000000, -116.000000)" fill="currentColor">
            <g id="Logo_W" transform="translate(67.000000, 116.000000)">
                <path d="M26.6893,4.2826 L47.3333,4.3886 C49.4383,4.3986 51.1373,6.1146 51.1263531,8.2206 C51.1156454,10.254975 49.5152083,11.9083285 47.5087056,12.0096764 L47.3133,12.0146 L47.3133,12.0146 L47.2933,12.0146 L26.6503,11.9086 C24.5443,11.8976 22.8463,10.1816 22.8572469,8.0766 C22.8683,5.9766 24.5733,4.2826 26.6703,4.2826 L26.6893,4.2826 Z M43.242,20.5126 C45.348,20.5126 47.055,22.2196 47.055,24.3256 C47.055,26.3657875 45.4530205,28.0315229 43.4382286,28.1336389 L43.242,28.1386 L43.242,28.1386 L3.814,28.1386 C1.708,28.1386 0,26.4316 0,24.3256 C0,22.2196 1.708,20.5126 3.814,20.5126 L43.242,20.5126 Z M47.3133,36.6142 C49.4193,36.6142 51.1263,38.3212 51.1263,40.4272 C51.1263,42.4673875 49.5243205,44.1331229 47.5095286,44.2352389 L47.3133,44.2402 L47.3133,44.2402 L26.6703,44.2402 C24.5643,44.2402 22.8573,42.5332 22.8573,40.4272 C22.8573,38.3212 24.5643,36.6142 26.6703,36.6142 L47.3133,36.6142 Z M62.7405,0.8926 L62.8115,0.8926 C65.2645,0.8926 67.4065,2.5556 68.0135,4.9326 L70.8255,15.9276 L73.6365,4.9326 C74.2445,2.5556 76.3865,0.8926 78.8395,0.8926 L78.8425,0.8926 C81.8075,0.8926 84.2125,3.2966 84.2125,6.2626 L84.2125,43.3536 C84.2125,45.9886 82.0765,48.1236 79.4425,48.1236 L79.4405,48.1236 C76.8055,48.1236 74.6705,45.9886 74.6705,43.3536 L74.6705,23.4096 L72.8845,30.0126 C72.3155,32.1126 69.3355,32.1126 68.7675,30.0126 L66.9815,23.4096 L66.9815,43.3536 C66.9815,45.9886 64.8455,48.1236 62.2115,48.1236 L62.1405,48.1236 C59.5055,48.1236 57.3705,45.9886 57.3705,43.3536 L57.3705,6.2626 C57.3705,3.2966 59.7745,0.8926 62.7405,0.8926 M107.2078,15.103 C107.2078,13.112 107.0018,9.474 103.3638,9.474 C99.7248,9.474 99.5188,13.112 99.5188,15.103 L99.5188,33.913 C99.5188,35.904 99.7248,39.542 103.3638,39.542 C107.0018,39.542 107.2078,35.904 107.2078,33.913 L107.2078,15.103 Z M116.8188,13.936 L116.8188,35.08 C116.8188,43.249 111.9448,49.016 103.3638,49.016 C94.7818,49.016 89.9078,43.249 89.9078,35.08 L89.9078,13.936 C89.9078,5.767 94.7818,0 103.3638,0 C111.9448,0 116.8188,5.767 116.8188,13.936 L116.8188,13.936 Z M127.1409,0.8926 L127.1409,0.8926 C129.5659,0.8926 131.6209,2.6796 131.9579,5.0806 L135.9019,33.1586 L139.8439,5.0806 C140.1819,2.6796 142.2369,0.8926 144.6619,0.8926 C147.6389,0.8926 149.9169,3.5416 149.4729,6.4846 L144.2659,40.9286 C143.6409,45.0656 140.0849,48.1236 135.9019,48.1236 C131.7179,48.1236 128.1619,45.0656 127.5369,40.9286 L122.3299,6.4846 C121.8859,3.5416 124.1639,0.8926 127.1409,0.8926 M161.1238,0.8926 L177.0888,0.8926 C179.7428,0.8926 181.8948,3.0446 181.8948,5.6986 L181.8948,5.6986 C181.8948,8.3526 179.7428,10.5036 177.0888,10.5036 L165.0068,10.5036 L165.0068,19.7026 L175.0288,19.7026 C177.6838,19.7026 179.8348,21.8546 179.8348,24.5086 C179.8348,27.1626 177.6838,29.3136 175.0288,29.3136 L165.0068,29.3136 L165.0068,38.5126 L177.0888,38.5126 C179.7428,38.5126 181.8948,40.6646 181.8948,43.3186 C181.8948,45.9726 179.7428,48.1236 177.0888,48.1236 L161.1418,48.1236 C157.8168,48.1236 155.1208,45.4276 155.1208,42.1026 L155.1208,6.8956 C155.1208,3.5806 157.8088,0.8926 161.1238,0.8926" id="Combined-Shape-Copy"></path>
            </g>
        </g>
    </g>
</svg>
