<?xml version="1.0" encoding="UTF-8"?>
<svg width="24px" height="24px" viewBox="0 0 24 24" version="1.1" xmlns="http://www.w3.org/2000/svg" xmlns:xlink="http://www.w3.org/1999/xlink">
    <title>A865C0B4-56E4-4706-9047-95753E710EBE</title>
    <g id="Green-on-White" stroke="none" stroke-width="1" fill="none" fill-rule="evenodd">
        <g id="Assets" transform="translate(-537.000000, -2346.000000)">
            <g id="Logout" transform="translate(549.000000, 2358.000000) scale(-1, 1) translate(-549.000000, -2358.000000) translate(537.000000, 2346.000000)">
                <polygon id="Path" points="0 0 24 0 24 24 0 24"></polygon>
                <path d="M17,8 L15.59,9.41 L17.17,11 L9,11 L9,13 L17.17,13 L15.59,14.58 L17,16 L21,12 L17,8 Z M5,5 L12,5 L12,3 L5,3 C3.9,3 3,3.9 3,5 L3,19 C3,20.1 3.9,21 5,21 L12,21 L12,19 L5,19 L5,5 Z" id="Shape" fill="currentColor" fill-rule="nonzero"></path>
            </g>
        </g>
    </g>
</svg>