<?xml version="1.0" encoding="UTF-8"?>
<svg width="24px" height="24px" viewBox="0 0 24 24" version="1.1" xmlns="http://www.w3.org/2000/svg" xmlns:xlink="http://www.w3.org/1999/xlink">
    <title>4D15DEB9-E2A7-4296-8755-08F76EF22A8D</title>
    <g id="Green-on-White" stroke="none" stroke-width="1" fill="none" fill-rule="evenodd" stroke-linecap="round" stroke-linejoin="round">
        <g id="Assets" transform="translate(-433.000000, -892.000000)" stroke="currentColor" stroke-width="1.6">
            <g id="Light-/-Active-/-5" transform="translate(433.000000, 892.000000)">
                <path d="M12,11 C14.2,11 16,9.2 16,7 C16,4.79 14.2,3 12,3 C9.79,3 7.99995807,4.79 7.99995807,7 C7.99,9.2 9.77,10.99 11.97,11 L11.99,11 L12,11 Z" id="Path"></path>
                <path d="M12,21 C8.22,21 5,20.44 5,18.23 C5,16.01 8.2,13.99 12,13.99 C15.77,13.99 19,15.98 19,18.2 C19,20.41 15.79,20.98 12,20.98 L12,21 Z" id="Path"></path>
            </g>
        </g>
    </g>
</svg>
