<?xml version="1.0" encoding="UTF-8"?>
<svg width="74px" height="20px" viewBox="0 0 74 20" version="1.1" xmlns="http://www.w3.org/2000/svg" xmlns:xlink="http://www.w3.org/1999/xlink">
    <title>438EADFA-3B25-447D-B91B-C4ABBA6B0B6F</title>
    <defs>
        <linearGradient x1="98.3179771%" y1="46.6661217%" x2="1.80480978%" y2="52.508756%" id="linearGradient-1">
            <stop stop-color="#FF60FA" offset="0%"></stop>
            <stop stop-color="#AE3EAB" offset="100%"></stop>
        </linearGradient>
    </defs>
    <g id="Green-on-White" stroke="none" stroke-width="1" fill="none" fill-rule="evenodd">
        <g id="Assets" transform="translate(-951.000000, -182.000000)" fill="url(#linearGradient-1)">
            <path d="M961.85797,183.747429 L970.256538,183.790681 C971.112913,183.794761 971.804114,184.49494 971.799661,185.354252 C971.795414,186.163511 971.176466,186.825006 970.389021,186.896008 L970.248402,186.902318 L970.248402,186.902318 L970.240265,186.902318 L961.842103,186.859066 C960.985322,186.854578 960.294527,186.154399 960.298981,185.295495 C960.303478,184.438632 960.99712,183.747429 961.85024,183.747429 L961.85797,183.747429 Z M968.592081,190.369757 C969.448862,190.369757 970.143318,191.066264 970.143318,191.925575 C970.143318,192.737147 969.52388,193.403502 968.733283,193.475036 L968.592081,193.481394 L968.592081,193.481394 L952.551644,193.481394 C951.694863,193.481394 951,192.784887 951,191.925575 C951,191.066264 951.694863,190.369757 952.551644,190.369757 L968.592081,190.369757 Z M970.248402,196.939693 C971.105183,196.939693 971.799639,197.6362 971.799639,198.495512 C971.799639,199.307083 971.180201,199.973438 970.389604,200.044973 L970.248402,200.05133 L970.248402,200.05133 L961.85024,200.05133 C960.993459,200.05133 960.299003,199.354823 960.299003,198.495512 C960.299003,197.6362 960.993459,196.939693 961.85024,196.939693 L970.248402,196.939693 Z M976.524627,182.364208 L976.553512,182.364208 C977.551463,182.364208 978.422889,183.042762 978.669834,184.012649 L979.813836,188.498939 L980.957431,184.012649 C981.204783,183.042762 982.07621,182.364208 983.07416,182.364208 L983.075381,182.364208 C984.281628,182.364208 985.26005,183.345112 985.26005,184.555329 L985.26005,199.689571 C985.26005,200.76473 984.391065,201.635874 983.319478,201.635874 L983.318664,201.635874 C982.246671,201.635874 981.378092,200.76473 981.378092,199.689571 L981.378092,191.55182 L980.651496,194.246042 C980.420011,195.102905 979.207662,195.102905 978.976583,194.246042 L978.249987,191.55182 L978.249987,199.689571 C978.249987,200.76473 977.381002,201.635874 976.309415,201.635874 L976.28053,201.635874 C975.208537,201.635874 974.339958,200.76473 974.339958,199.689571 L974.339958,184.555329 C974.339958,183.345112 975.317974,182.364208 976.524627,182.364208 M994.615195,188.162478 C994.615195,187.35009 994.531388,185.865677 993.051346,185.865677 C991.570897,185.865677 991.48709,187.35009 991.48709,188.162478 L991.48709,195.837522 C991.48709,196.64991 991.570897,198.134323 993.051346,198.134323 C994.531388,198.134323 994.615195,196.64991 994.615195,195.837522 L994.615195,188.162478 Z M998.525224,187.686307 L998.525224,196.313693 C998.525224,199.646891 996.542342,202 993.051346,202 C989.559943,202 987.577061,199.646891 987.577061,196.313693 L987.577061,187.686307 C987.577061,184.353109 989.559943,182 993.051346,182 C996.542342,182 998.525224,184.353109 998.525224,187.686307 L998.525224,187.686307 Z M1002.72455,182.364208 L1002.72455,182.364208 C1003.71111,182.364208 1004.54714,183.093357 1004.68424,184.073037 L1006.28877,195.529705 L1007.89249,184.073037 C1008.03,183.093357 1008.86603,182.364208 1009.85259,182.364208 C1011.06372,182.364208 1011.99048,183.445079 1011.80985,184.645912 L1009.69149,198.700098 C1009.43722,200.388118 1007.99054,201.635874 1006.28877,201.635874 C1004.5866,201.635874 1003.13992,200.388118 1002.88565,198.700098 L1000.7673,184.645912 C1000.58667,183.445079 1001.51342,182.364208 1002.72455,182.364208 M1016.54976,182.364208 L1023.04478,182.364208 C1024.1245,182.364208 1025,183.242288 1025,184.3252 L1025,184.3252 C1025,185.408112 1024.1245,186.285784 1023.04478,186.285784 L1018.12948,186.285784 L1018.12948,190.039252 L1022.20672,190.039252 C1023.28684,190.039252 1024.16193,190.917333 1024.16193,192.000245 C1024.16193,193.083157 1023.28684,193.960829 1022.20672,193.960829 L1018.12948,193.960829 L1018.12948,197.714297 L1023.04478,197.714297 C1024.1245,197.714297 1025,198.592378 1025,199.67529 C1025,200.758201 1024.1245,201.635874 1023.04478,201.635874 L1016.55709,201.635874 C1015.20438,201.635874 1014.10757,200.535825 1014.10757,199.179125 L1014.10757,184.813612 C1014.10757,183.460992 1015.20113,182.364208 1016.54976,182.364208" id="Purple-Gradient-Logo"></path>
        </g>
    </g>
</svg>