<?xml version="1.0" encoding="UTF-8"?>
<svg width="24px" height="24px" viewBox="0 0 24 24" version="1.1" xmlns="http://www.w3.org/2000/svg" xmlns:xlink="http://www.w3.org/1999/xlink">
    <title>4D5F776C-B8E3-4EEE-90E5-AF3F7D26D929</title>
    <g id="Green-on-White" stroke="none" stroke-width="1" fill="none" fill-rule="evenodd">
        <g id="Assets" transform="translate(-404.000000, -1379.000000)">
            <g id="Run" transform="translate(404.000000, 1379.000000)">
                <rect id="Rectangle" x="0" y="0" width="24" height="24"></rect>
                <path d="M11.1242283,3.00029765 C11.1139612,2.99971363 11.1035477,3 11.0932806,3.0010277 L6.31418545,3.49919052 L6.31403879,3.49919052 C6.06616266,3.52488732 5.81945801,3.57175455 5.61076686,3.70053008 C5.4021996,3.82930562 5.24702169,4.06860917 5.24702169,4.36322718 C5.24702169,4.94432992 5.72677105,5.42174842 6.31052806,5.42174842 L10.7396769,5.42174842 L11.3706691,5.97687404 L8.61089939,7.88486605 C7.66457998,8.53881689 7.3194398,9.74860351 7.98666576,10.7075894 L7.9879858,10.7091954 L10.5852483,14.5156857 L6.06335618,14.5156857 C5.47858537,14.5156857 5,14.9916464 5,15.5721885 C5,16.1527306 5.47798461,16.6307098 6.06335618,16.6307098 L8.78043396,16.6307098 L5.96888569,19.1565837 L5.96873903,19.1567297 L5.96873903,19.1568757 C5.53502338,19.5467195 5.5008548,20.2212651 5.89232157,20.6528218 C6.28364565,21.0841169 6.95980801,21.1182796 7.39307309,20.7288918 L11.9528886,16.6308597 L12.599726,16.6308597 C13.183483,16.6308597 13.6632324,16.1534412 13.6632324,15.5723385 C13.6632324,15.3200426 13.5718558,15.0856878 13.4218107,14.9037732 L11.0105229,11.3719303 C11.6216899,10.9003427 12.5612882,10.2678463 13.4896973,9.64981496 L13.4896973,10.6409078 C13.4896973,11.2220105 13.9700474,11.6974107 14.5532037,11.6974107 L17.9386714,11.6974107 C18.5218277,11.6974107 19,11.2214499 19,10.6409078 C19,10.0603657 18.5224284,9.58223705 17.9386714,9.58223705 L15.61671,9.58223705 L15.61671,6.97884292 L15.6165634,6.97869693 C15.6165634,6.96687042 15.6155367,6.95504428 15.6133366,6.94336392 C15.800051,7.00512221 15.9995166,7.03870559 16.2066308,7.03870559 C17.2474207,7.03870559 18.0958903,6.19420598 18.0958903,5.15818579 C18.0958903,4.12022198 17.2473831,3.27546073 16.2066308,3.27546073 C15.1658784,3.27546073 14.3173713,4.12025936 14.3173713,5.15818579 C14.3173713,5.19833633 14.318838,5.23819534 14.3213314,5.2777628 C13.4455645,4.43180549 12.3591539,3.71360331 11.2236307,3.0303114 L11.2237774,3.0303114 C11.193563,3.01220665 11.1593902,3.00184047 11.1241891,3.00038052 L11.1242283,3.00029765 Z" id="Running" fill="currentColor" fill-rule="nonzero"></path>
            </g>
        </g>
    </g>
</svg>
