<?xml version="1.0" encoding="UTF-8"?>
<svg width="21px" height="22px" viewBox="0 0 21 22" version="1.1" xmlns="http://www.w3.org/2000/svg" xmlns:xlink="http://www.w3.org/1999/xlink">
    <title>415FCEAB-24F0-452F-8C7E-1BE23E49FC96</title>
    <g id="Green-on-White" stroke="none" stroke-width="1" fill="none" fill-rule="evenodd">
        <g id="Assets" transform="translate(-974.000000, -835.000000)" fill="currentColor" fill-rule="nonzero">
            <g id="send-plane" transform="translate(974.000000, 835.000000)">
                <path d="M17.15,0.195156797 C17.92,0.325156797 18.65,0.615156797 19.18,1.1651568 C19.69,1.7051568 19.96,2.4651568 20.09,3.2651568 C20.21,4.0651568 20.21,4.9951568 20.11,5.9851568 C19.92,7.9551568 19.36,10.2551568 18.62,12.4351568 C17.88,14.6051568 16.96,16.7151568 16.02,18.2851568 C15.55,19.0651568 15.06,19.7451568 14.57,20.2451568 C14.11,20.7051568 13.5,21.1551568 12.81,21.1551568 C11.8,21.1551568 11.07,20.6851568 10.55,20.0151568 C9.37,18.4951568 9.18,16.4651568 8.37,14.7551568 C8.18,14.3651568 8.21,13.8951568 8.49,13.5651568 L12.4,8.9051568 C12.71,8.5851568 12.71,8.0851568 12.4,7.7651568 C12.08,7.4451568 11.58,7.4451568 11.26,7.7651568 L6.41,11.8251568 C6.1,12.0751568 5.67,12.1251568 5.3,11.9751568 C3.87,11.3751568 2.25,11.0551568 1.07,10.0351568 C0.42,9.4751568 -6.66133815e-16,8.7251568 -6.66133815e-16,7.7151568 C-6.66133815e-16,7.0251568 0.4,6.4051568 0.85,5.9151568 C1.32,5.3951568 1.97,4.8751568 2.71,4.3851568 C4.2,3.3951568 6.21,2.4151568 8.28,1.6451568 C10.35,0.865156797 12.54,0.275156797 14.43,0.0751567968 C15.37,-0.0248432032 16.26,-0.0348432032 17.04,0.105156797 L17.15,0.195156797 Z" id="Path"></path>
            </g>
        </g>
    </g>
</svg>