<?xml version="1.0" encoding="UTF-8"?>
<svg width="24px" height="24px" viewBox="0 0 24 24" version="1.1" xmlns="http://www.w3.org/2000/svg" xmlns:xlink="http://www.w3.org/1999/xlink">
    <title>354AB2A9-0FED-4F4B-B77D-8B125CF6A09D</title>
    <g id="Green-on-White" stroke="none" stroke-width="1" fill="none" fill-rule="evenodd">
        <g id="Assets" transform="translate(-335.000000, -53.000000)">
            <g id="settings" transform="translate(335.000000, 53.000000)">
                <polygon id="Path" points="0 0 24 0 24 24 0 24"></polygon>
                <g id="Group" stroke-linecap="round" stroke-linejoin="round" transform="translate(2.940000, 2.990000)" stroke="currentColor" stroke-width="2">
                    <path d="M7.38,1.32 C7.8,-0.44 10.3,-0.44 10.73,1.32 L10.73,1.32 C10.95,2.24 11.88,2.81 12.81,2.58 C12.98,2.53 13.14,2.46 13.3,2.37 C14.84,1.43 16.61,3.19 15.67,4.74 L15.67,4.73 C15.17,5.54 15.43,6.6 16.24,7.09 C16.39,7.18 16.55,7.25 16.72,7.29 C18.47,7.71 18.47,10.21 16.72,10.64 L16.72,10.639 C15.79,10.859 15.22,11.789 15.45,12.719 C15.49,12.889 15.56,13.049 15.65,13.209 C16.59,14.749 14.82,16.519 13.28,15.579 L13.28,15.579 C12.46,15.079 11.4,15.339 10.91,16.149 C10.81,16.299 10.74,16.459 10.7,16.629 C10.27,18.379 7.77,18.379 7.35,16.629 L7.35,16.629 C7.12,15.699 6.19,15.129 5.26,15.359 C5.08,15.399 4.92,15.469 4.76,15.559 C3.21,16.499 1.45,14.729 2.39,13.189 L2.39,13.188 C2.88,12.368 2.62,11.308 1.81,10.818 C1.65,10.718 1.49,10.648 1.32,10.608 C-0.44,10.178 -0.44,7.678 1.32,7.258 L1.31,7.258 C2.23,7.028 2.8,6.098 2.57,5.168 C2.52,4.988 2.45,4.828 2.36,4.668 C1.42,3.118 3.18,1.358 4.73,2.298 C5.73,2.898 7.02,2.368 7.3,1.228 L7.38,1.32 Z" id="Path"></path>
                    <path d="M9.06,6.01 C7.40314575,6.01 6.06,7.35314575 6.06,9.01 C6.06,10.6668542 7.40314575,12.01 9.06,12.01 C10.7168542,12.01 12.06,10.6668542 12.06,9.01 C12.06,7.35314575 10.7168542,6.01 9.06,6.01 Z" id="Path"></path>
                </g>
            </g>
        </g>
    </g>
</svg>