<?xml version="1.0" encoding="UTF-8"?>
<svg width="24px" height="24px" viewBox="0 0 24 24" version="1.1" xmlns="http://www.w3.org/2000/svg" xmlns:xlink="http://www.w3.org/1999/xlink">
    <title>C6CC81C9-1F60-46F4-A552-098299985B82</title>
    <defs>
        <rect id="path-1" x="0" y="0" width="24" height="24"></rect>
    </defs>
    <g id="Green-on-White" stroke="none" stroke-width="1" fill="none" fill-rule="evenodd">
        <g id="Assets" transform="translate(-113.000000, -1808.000000)">
            <g id="Frame-3" transform="translate(113.000000, 1808.000000)">
                <mask id="mask-2" fill="white">
                    <use xlink:href="#path-1"></use>
                </mask>
                <g id="Frame-3-(Background/Mask)"></g>
                <g id="Group-1716" mask="url(#mask-2)" fill="currentColor">
                    <g transform="translate(3.000000, 3.000000)">
                        <path d="M7.77480871,10.1264203 C8.54918206,10.7220921 13.3145489,13.343048 17.6033859,11.9134357 C16.908441,14.2961228 13.9698023,18.8232284 7.77480871,17.8701535 C5.78923316,17.473039 2.25587948,15.9268625 0.626738677,11.9134357 C-0.703142893,8.63724087 -0.385888405,1.90614974 6.28562914,0 C5.49140001,2.38268714 4.67731532,7.7437332 7.77480871,10.1264203 Z" id="Vector-5"></path>
                        <path d="M10.6146056,1.19124919 L8.5297699,1.19131386 L8.5297699,0.59564209 L11.5081286,0.59564209 L11.5081286,1.19131386 L9.42326218,3.57393633 L11.5081134,3.57388306 L11.5081134,4.16955483 L8.52975464,4.16955483 L8.52975464,3.57388306 L10.6146056,1.19124919 Z" id="Union"></path>
                        <path d="M17.7627074,1.19124919 L15.6778336,1.19131386 L15.6778336,0.59564209 L18.6561923,0.59564209 L18.6561923,1.19131386 L16.571364,3.57393633 L18.6562152,3.57388306 L18.6562152,4.16955483 L15.6778564,4.16955483 L15.6778564,3.57388306 L17.7627074,1.19124919 Z" id="Union"></path>
                        <path d="M14.4864858,4.16967773 L14.4864705,4.55667773 L14.496409,4.55683126 L13.2554262,6.13536163 L12.8784705,6.15467773 L14.4864935,6.15518188 L14.4864935,6.55229643 L12.6994781,6.55229643 L12.6994705,6.16467773 L12.6895379,6.16514524 L13.9305207,4.58661491 L14.3004705,4.56667773 L12.6994705,4.56679228 L12.6994705,4.16967773 L14.4864858,4.16967773 Z" id="Union"></path>
                    </g>
                </g>
            </g>
        </g>
    </g>
</svg>