<?xml version="1.0" encoding="UTF-8"?>
<svg width="24px" height="18px" viewBox="0 0 24 18" version="1.1" xmlns="http://www.w3.org/2000/svg" xmlns:xlink="http://www.w3.org/1999/xlink">
    <title>7C677140-CA49-4E94-8CDC-E0701EA66A85</title>
    <g id="Green-on-White" stroke="none" stroke-width="1" fill="none" fill-rule="evenodd">
        <g id="Assets" transform="translate(-427.000000, -2437.000000)" fill="currentColor">
            <path d="M449.210034,2440.48309 L449.200645,2440.48309 L439.51031,2440.43534 C438.521702,2440.43039 437.724619,2439.65737 437.729757,2438.70911 C437.734946,2437.76311 438.535315,2437 439.519699,2437 L439.528618,2437 L449.219422,2437.04775 C450.207561,2437.05226 451.005114,2437.82527 450.999975,2438.77398 C450.994787,2439.71998 450.194418,2440.48309 449.210034,2440.48309 Z M447.298865,2447.74659 L428.790386,2447.74659 C427.801777,2447.74659 427,2446.97763 427,2446.02892 C427,2445.08022 427.801777,2444.31125 428.790386,2444.31125 L447.298865,2444.31125 C448.287473,2444.31125 449.088781,2445.08022 449.088781,2446.02892 C449.088781,2446.97763 448.287473,2447.74659 447.298865,2447.74659 Z M449.210034,2455 L439.519699,2455 C438.53109,2455 437.729782,2454.23103 437.729782,2453.28233 C437.729782,2452.33362 438.53109,2451.56466 439.519699,2451.56466 L449.210034,2451.56466 C450.198642,2451.56466 450.99995,2452.33362 450.99995,2453.28233 C450.99995,2454.23103 450.198642,2455 449.210034,2455 Z" id="Combined-Shape"></path>
        </g>
    </g>
</svg>