<?xml version="1.0" encoding="UTF-8"?>
<svg width="62px" height="44px" viewBox="0 0 62 44" version="1.1" xmlns="http://www.w3.org/2000/svg" xmlns:xlink="http://www.w3.org/1999/xlink">
    <title>324F129D-CCBD-47E8-8A80-5A0A0BF08A1E</title>
    <g id="Green-on-White" stroke="none" stroke-width="1" fill="none" fill-rule="evenodd">
        <g id="Assets" transform="translate(-579.000000, -1824.000000)" fill-rule="nonzero">
            <g id="21-Success-Copy" transform="translate(579.000000, 1824.000000)">
                <path d="M58,12 C58,16.97 56.66,21 55,21 C53.56,21 52.36,17.98 52.07,13.93 C52.02,13.31 52,12.66 52,12 C52,11.34 52.02,10.69 52.07,10.07 C52.36,6.02 53.56,3 55,3 C56.66,3 58,7.03 58,12 Z" id="Path" fill="#5C6979"></path>
                <path d="M20,2.46 L20,21.55 L5,24 C2.24,24 0,18.63 0,12 C0,5.37 2.24,0 5,0 L5,0.03 L20,2.46 Z" id="Path" fill="#EDF4FA"></path>
                <path d="M34,2.76 L56.48,0.06 C54.23,0.62 52.42,4.76 52.07,10.07 C52.02,10.69 52,11.34 52,12 C52,12.66 52.02,13.31 52.07,13.93 C52.42,19.24 54.23,23.38 56.48,23.94 L34,21.24 L34,2.76 Z" id="Path" fill="#EDF4FA"></path>
                <polygon id="Path" fill="#83D6D4" points="34 2.76 34 21.24 27 20.4 20 21.55 20 2.46 27 3.6"></polygon>
                <path d="M55,3 C54.6090112,3.02482216 54.2463115,3.21233792 54,3.517 C55.164,4.748 56,8.077 56,12 C56,15.923 55.164,19.252 54,20.483 C54.2463115,20.7876621 54.6090112,20.9751778 55,21 C56.66,21 58,16.97 58,12 C58,7.03 56.66,3 55,3 Z" id="Path" fill="#393D48"></path>
                <path d="M57,0 C59.76,0 62,5.37 62,12 C62,18.63 59.76,24 57,24 L56.49,23.94 L56.48,23.94 C54.23,23.38 52.42,19.24 52.07,13.93 C52.36,17.98 53.56,21 55,21 C56.66,21 58,16.97 58,12 C58,7.03 56.66,3 55,3 C53.56,3 52.36,6.02 52.07,10.07 C52.42,4.76 54.23,0.62 56.48,0.06 L56.49,0.06 L57,0 Z" id="Path" fill="#A8B7D4"></path>
                <path d="M55,3 L55,12 L52,12 C52,11.34 52.02,10.69 52.07,10.07 C52.36,6.02 53.56,3 55,3 Z" id="Path" fill="#8394B2"></path>
                <path d="M6.663,15.26 C3.44148734,15.6163909 0.519257702,13.3498919 0.063,10.141 C0.027,10.749 0,11.366 0,12 C0,18.63 2.24,24 5,24 L20,21.55 L20,13.778 L6.663,15.26 Z" id="Path" fill="#D6E0EB"></path>
                <path d="M52.07,13.93 C52.064,13.858 52.07,13.78 52.062,13.707 C50.787748,14.8870962 49.0628918,15.4540171 47.337,15.26 L34,13.778 L34,21.24 L56.48,23.94 C54.23,23.38 52.42,19.24 52.07,13.93 Z" id="Path" fill="#D6E0EB"></path>
                <polygon id="Path" fill="#56A8A6" points="27 13 20 13.778 20 21.55 27 20.4 34 21.24 34 13.778"></polygon>
                <path d="M55.29,20.956 C55.1959426,20.9844936 55.0982762,20.999312 55,21 C53.56,21 52.36,17.98 52.07,13.93 C52.42,19.24 54.23,23.38 56.48,23.94 L56.49,23.94 L57,24 C58.17,24 59.245,23.027 60.1,21.409 C58.5746084,22.3411488 56.6173966,22.1567059 55.293,20.956 L55.29,20.956 Z" id="Path" fill="#8394B2"></path>
                <path d="M60.1,2.59 C59.245,0.973 58.17,0 57,0 L56.49,0.06 L56.48,0.06 C54.23,0.62 52.42,4.76 52.07,10.07 C52.36,6.02 53.56,3 55,3 C55.0982762,3.000688 55.1959426,3.01550635 55.29,3.044 C56.6151246,1.84246957 58.5734635,1.65762843 60.1,2.59 L60.1,2.59 Z" id="Path" fill="#8394B2"></path>
                <path d="M26,21 C26,16.581722 29.581722,13 34,13 C38.418278,13 42,16.581722 42,21 C42,25.418278 38.418278,29 34,29 C29.581722,29 26,25.418278 26,21 Z" id="Path" fill="#593A75"></path>
                <polygon id="Path" fill="#EDF4FA" points="39 18.819 36.5 21.38 37.09 25 34 23.29 30.91 25 31.5 21.38 29 18.819 32.45 18.289 34 14.999 35.55 18.289"></polygon>
                <path d="M33.92,31.2 L29,44 L26,39 L20,41 L24.91,28.24 C25.75,28.67 27,28.73 27.75,29.25 C28.7,29.91 29.15,31.58 30.29,31.93 C31.37,32.27 32.72,31.24 33.92,31.2 Z" id="Path" fill="#83D6D4"></path>
                <path d="M43.09,28.24 L48,41 L42,39 L39,44 L34.08,31.2 C35.28,31.24 36.63,32.27 37.71,31.93 C38.85,31.58 39.3,29.91 40.25,29.25 C40.99,28.73 42.24,28.67 43.09,28.24 Z" id="Path" fill="#83D6D4"></path>
                <path d="M24.29,14.24 C24.99,13.32 26.79,13.42 27.75,12.75 C28.71,12.08 29.15,10.419 30.29,10.069 C31.39,9.719 32.78,10.809 34,10.809 C35.22,10.809 36.61,9.719 37.71,10.069 C38.85,10.419 39.3,12.089 40.25,12.75 C41.22,13.42 43.01,13.32 43.71,14.24 C44.41,15.16 43.75,16.76 44.12,17.85 C44.48,18.9 46,19.83 46,21 C46,22.17 44.48,23.1 44.12,24.151 C43.75,25.241 44.4,26.851 43.71,27.761 C43.5450159,27.9686068 43.3323147,28.1332787 43.09,28.241 C42.24,28.671 40.99,28.731 40.25,29.251 C39.3,29.911 38.85,31.581 37.71,31.931 C36.63,32.271 35.28,31.241 34.08,31.201 L34,31 L33.92,31.2 C32.72,31.24 31.37,32.27 30.29,31.93 C29.15,31.58 28.7,29.91 27.75,29.25 C27,28.73 25.75,28.67 24.91,28.24 C24.6676853,28.1322787 24.4549841,27.9676068 24.29,27.76 C23.6,26.85 24.25,25.24 23.88,24.15 C23.52,23.1 22,22.17 22,21 C22,19.83 23.52,18.9 23.88,17.85 C24.25,16.76 23.6,15.15 24.29,14.24 Z M34,13 C29.581722,13 26,16.581722 26,21 C26,25.418278 29.581722,29 34,29 C38.418278,29 42,25.418278 42,21 C42,16.581722 38.418278,13 34,13 Z" id="Shape" fill="#9C59A9"></path>
                <path d="M30.29,31.93 C29.15,31.58 28.7,29.91 27.75,29.25 C27,28.73 25.75,28.67 24.91,28.24 L24.274,29.891 C25.1234994,30.0553493 25.9438154,30.3451898 26.708,30.751 C27.817,31.531 28.342,33.505 29.672,33.919 C30.712,34.25 31.965,33.487 33.159,33.18 L33.92,31.2 C32.72,31.24 31.37,32.27 30.29,31.93 Z" id="Path" fill="#56A8A6"></path>
                <path d="M38.328,33.919 C39.658,33.505 40.183,31.531 41.292,30.751 C42.0549559,30.3429841 42.8752313,30.0527016 43.725,29.89 L43.09,28.24 C42.24,28.67 40.99,28.73 40.25,29.25 C39.3,29.91 38.85,31.58 37.71,31.93 C36.63,32.27 35.28,31.24 34.08,31.2 L34.841,33.18 C36.035,33.487 37.288,34.25 38.328,33.919 Z" id="Path" fill="#56A8A6"></path>
                <path d="M42.092,15.469 C41.508,14.716 40.017,14.798 39.208,14.25 C38.417,13.71 38.042,12.343 37.092,12.057 C36.175,11.77 35.017,12.662 34,12.662 C32.983,12.662 31.825,11.77 30.908,12.057 C29.958,12.343 29.583,13.71 28.792,14.25 C28.001,14.79 26.492,14.716 25.908,15.469 C25.324,16.222 25.875,17.531 25.567,18.423 C25.267,19.282 24,20.043 24,21 C24,21.957 25.267,22.719 25.567,23.578 C25.875,24.47 25.333,25.787 25.908,26.532 C26.0468118,26.7018135 26.2240212,26.8361773 26.425,26.924 C27.2289716,27.1547862 28.0192355,27.4308944 28.792,27.751 C29.583,28.291 29.958,29.657 30.908,29.944 C31.808,30.222 32.933,29.379 33.933,29.344 L34,29.183 L34.067,29.346 C35.067,29.379 36.192,30.222 37.092,29.946 C38.042,29.659 38.417,28.293 39.208,27.753 C39.9798184,27.4304201 40.7702278,27.154261 41.575,26.926 C41.7759788,26.8381773 41.9531882,26.7038135 42.092,26.534 C42.667,25.789 42.125,24.472 42.433,23.58 C42.733,22.719 44,21.958 44,21 C44,20.042 42.733,19.282 42.433,18.423 C42.125,17.531 42.667,16.213 42.092,15.469 Z M34,29 C29.581722,29 26,25.418278 26,21 C26,16.581722 29.581722,13 34,13 C38.418278,13 42,16.581722 42,21 C42,25.418278 38.418278,29 34,29 Z" id="Shape" fill="#774E9D"></path>
                <path d="M28,19 C27.998145,17.3667587 28.499173,15.7725471 29.435,14.434 C26.7996512,16.2569171 25.5063069,19.4764855 26.1482119,22.6159198 C26.7901168,25.7553541 29.2434083,28.2088661 32.3827849,28.851053 C35.5221616,29.49324 38.7418462,28.200185 40.565,25.565 C38.1208402,27.2676856 34.9327642,27.4703877 32.2926402,26.0909675 C29.6525161,24.7115473 27.99818,21.9787668 28,19 Z" id="Path" fill="#422B57"></path>
            </g>
        </g>
    </g>
</svg>