<?xml version="1.0" encoding="UTF-8"?>
<svg width="24px" height="24px" viewBox="0 0 24 24" version="1.1" xmlns="http://www.w3.org/2000/svg" xmlns:xlink="http://www.w3.org/1999/xlink">
    <title>5E5BD399-9AF9-42AC-9241-0B06CCA84896</title>
    <g id="Green-on-White" stroke="none" stroke-width="1" fill="none" fill-rule="evenodd">
        <g id="Assets" transform="translate(-406.000000, -1451.000000)">
            <g id="Swim" transform="translate(406.000000, 1451.000000)">
                <rect id="Rectangle-Copy" x="0" y="0" width="24" height="24"></rect>
                <path d="M14.6039427,4.13701863 C15.131399,3.88005712 15.7433311,3.98702243 15.9964649,4.4368351 C16.2707986,4.92951802 16.101975,5.48628835 15.6378135,5.72187209 C15.173652,5.95744818 12.1566776,7.56364881 12.1566776,7.56364881 C12.1566776,7.56364881 13.4647088,9.44830345 13.6757516,9.70524966 C13.6547287,10.3050509 13.8024767,10.9046609 14.1188902,11.4614388 C14.1611281,11.5256754 14.2032191,11.5899119 14.2454571,11.6541485 C14.6462108,12.232419 15.1948783,12.6607162 15.8488864,12.8749375 C15.9107193,13.0006061 16.1882308,13.5754192 16.4815797,14.1771 L16.6419576,14.505416 C16.6951397,14.6140508 16.7476442,14.7210356 16.79827,14.8238325 C16.6928993,14.8667065 16.5873779,14.888069 16.4818565,14.9309431 C16.0809897,15.0594124 15.7433801,15.166523 15.258158,15.252145 C15.1738403,15.2306104 14.9417408,15.1234998 14.7729359,15.0379008 C14.1610113,14.7380766 13.2116277,14.2669245 11.9668687,14.2669245 C10.7641931,14.2669245 9.85704366,14.6953823 9.1818243,15.0165612 C9.01301947,15.1021603 8.78093495,15.2092709 8.65436805,15.252145 C8.04244345,15.1236566 7.70483377,14.9951873 7.32514062,14.8452026 C7.15632863,14.7808895 6.98752756,14.716653 6.81872272,14.6522673 L6.81872272,14.6522673 L11.4392395,10.5618097 C11.3124993,10.4118211 9.83566322,8.12039237 9.64581287,7.84193837 C9.60372187,7.77770182 9.58252905,7.75618982 9.56148392,7.73482773 L9.56148392,7.73482773 L9.58252905,7.77770182 C9.39268248,7.45653818 9.28714601,6.9853554 9.68805044,6.7069014 C10.1100154,6.40707728 14.0764865,4.41547263 14.6039427,4.13701863 Z M16.8193531,7.37101564 C18.147714,7.37101564 19.2245537,8.46407341 19.2245537,9.8124406 C19.2245537,11.1608078 18.147714,12.2538656 16.8193531,12.2538656 C15.4909923,12.2538656 14.4141526,11.1608078 14.4141526,9.8124406 C14.4141526,8.46407341 15.4909923,7.37101564 16.8193531,7.37101564 Z M21.9462279,17.5864517 C21.861899,17.3079977 21.6719054,17.0724292 21.4187717,16.9439332 C20.2373073,16.3229454 19.4144756,16.0658386 18.6337273,16.0658386 C18.0429763,16.0658386 17.5365806,16.2158233 16.9880638,16.4085291 C16.5661365,16.5370022 16.1442091,16.6869831 15.5322469,16.7939408 C15.4479179,16.8153029 15.363442,16.8153029 15.2791131,16.8153029 C14.8994199,16.8153029 14.5618103,16.6439557 14.1186716,16.4298912 C13.5701548,16.1514372 12.8739126,15.8089035 11.9877861,15.8089035 C11.1439314,15.8089035 10.4687121,16.1300824 9.85690049,16.4085517 C9.39273899,16.622773 9.03406874,16.7939634 8.67543616,16.7939634 C8.61215271,16.7939634 8.52767683,16.7939634 8.46439338,16.7726013 C7.6837958,16.6226166 7.2196343,16.4299107 6.79770698,16.2800713 C6.3124849,16.0873617 5.89055758,15.9373808 5.38412422,15.9373808 C4.68788197,15.9373808 3.94951857,16.194327 2.57805697,16.9225936 C2.32492318,17.0510667 2.13491837,17.2866467 2.05060072,17.5651121 C1.96628307,17.8435776 1.98731727,18.1433826 2.11388416,18.4003365 C2.30373451,18.7643895 2.66240099,19 3.08447902,19 C3.25328386,19 3.42208493,18.9571106 3.56970109,18.8715116 C4.58237942,18.3361114 5.0887751,18.1434056 5.3841506,18.1434056 C5.55295544,18.1434056 5.72175651,18.2076421 6.03815867,18.3361152 C6.48129728,18.5074624 7.09307118,18.7430576 8.06366603,18.9357634 C8.27470881,18.9786375 8.48559335,19 8.69665121,19 C9.54050586,19 10.2367858,18.6573094 10.8064762,18.4003518 C11.2496148,18.1861305 11.6503309,17.9934094 12.0091518,17.9934094 C12.4100562,17.9934094 12.7476659,18.1647565 13.1906161,18.378821 C13.739133,18.657275 14.4143146,18.9998088 15.3004411,18.9998088 C15.5114839,18.9998088 15.7223685,18.9784467 15.9334263,18.9355722 C16.6929633,18.8070991 17.2414802,18.6143933 17.6845811,18.46442 C18.1065084,18.3359469 18.3598004,18.2288363 18.6551759,18.2288363 C19.0560804,18.2288363 19.6045595,18.421546 20.4486025,18.8713548 C20.5963619,18.9569538 20.765016,18.9998279 20.9549982,18.9998279 C21.3559026,18.9998279 21.7355958,18.7642442 21.9255931,18.4001797 C22.0094812,18.1647489 22.0306737,17.886272 21.946197,17.5864861 L21.9462279,17.5864517 Z" fill="currentColor" fill-rule="nonzero"></path>
            </g>
        </g>
    </g>
</svg>
