<?xml version="1.0" encoding="UTF-8"?>
<svg width="20px" height="20px" viewBox="0 0 20 20" version="1.1" xmlns="http://www.w3.org/2000/svg" xmlns:xlink="http://www.w3.org/1999/xlink">
    <title>Check / Unfilled</title>
    <g id="Green-on-White" stroke="none" stroke-width="1" fill="none" fill-rule="evenodd">
        <g id="Artboard" transform="translate(-677.000000, -480.000000)">
            <g id="Rectangle" transform="translate(675.000000, 478.000000)">
                <rect x="0" y="0" width="24" height="24"></rect>
                <path d="M12,2 C19.6224919,2 22,4.74231189 22,12 C22,19.2576881 19.6224919,22 12,22 C4.37750808,22 2,19.2576881 2,12 C2,4.74231189 4.37750808,2 12,2 Z M12,3.81818182 C5.53681767,3.81818182 3.81818182,5.58747124 3.81818182,12 C3.81818182,18.4125288 5.53681767,20.1818182 12,20.1818182 C18.4631823,20.1818182 20.1818182,18.4125288 20.1818182,12 C20.1818182,5.58747124 18.4631823,3.81818182 12,3.81818182 Z" fill="currentColor"></path>
            </g>
        </g>
    </g>
</svg>
