<?xml version="1.0" encoding="UTF-8"?>
<svg width="19px" height="19px" viewBox="0 0 19 19" version="1.1" xmlns="http://www.w3.org/2000/svg" xmlns:xlink="http://www.w3.org/1999/xlink">
    <title>38595B94-9F98-4B23-A6A6-03D0691E3656</title>
    <g id="Green-on-White" stroke="none" stroke-width="1" fill="none" fill-rule="evenodd" stroke-linecap="round">
        <g id="Assets" transform="translate(-808.000000, -1718.000000)" stroke="currentColor" stroke-width="1.6">
            <g id="user-plus-copy" transform="translate(809.000000, 1719.000000)">
                <g id="Group" stroke-linejoin="round">
                    <path d="M6.5,7.5 C8.57,7.5 10.25,5.82 10.25,3.75 C10.25,1.67 8.57,0 6.5,0 C4.42,0 2.74995532,1.67 2.74995532,3.75 C2.74,5.81 4.41,7.49 6.47,7.5 L6.49,7.5 L6.5,7.5 Z" id="Path"></path>
                    <path d="M6.5,16.5 C2.99,16.5 0,16.02 0,14.12 C0,12.22 2.97,10.49 6.5,10.49 C10,10.49 13,12.2 13,14.09 C13,15.98 10.02,16.48 6.5,16.48 L6.5,16.5 Z" id="Path"></path>
                </g>
                <g id="Group" transform="translate(12.000000, 6.000000)">
                    <line x1="2.5" y1="0" x2="2.5" y2="5" id="Path"></line>
                    <line x1="5" y1="2.5" x2="0" y2="2.5" id="Path"></line>
                </g>
            </g>
        </g>
    </g>
</svg>
