<?xml version="1.0" encoding="UTF-8"?>
<svg width="11px" height="12px" viewBox="0 0 11 12" version="1.1" xmlns="http://www.w3.org/2000/svg" xmlns:xlink="http://www.w3.org/1999/xlink">
    <title>5DC0AA5F-09B2-48BA-ACE4-4F272EFE43DF</title>
    <g id="Green-on-White" stroke="none" stroke-width="1" fill="none" fill-rule="evenodd">
        <g id="Assets" transform="translate(-730.000000, -810.000000)" fill="currentColor" fill-rule="nonzero">
            <g id="Users" transform="translate(730.000000, 810.000000)">
                <path d="M0.704433498,12 L10.2955665,12 C10.5339901,12 10.7110016,11.9279778 10.826601,11.7839335 C10.9422003,11.6398892 11,11.4570637 11,11.2354571 C11,10.9325946 10.8880131,10.544783 10.6640394,10.0720222 C10.4400657,9.59926131 10.1041051,9.12465374 9.65615764,8.64819945 C9.20821018,8.17174515 8.63924466,7.76915974 7.94926108,7.44044321 C7.2592775,7.11172669 6.4410509,6.94736842 5.49458128,6.94736842 C4.55533662,6.94736842 3.7407225,7.11172669 3.05073892,7.44044321 C2.36075534,7.76915974 1.78998358,8.17174515 1.33842365,8.64819945 C0.886863711,9.12465374 0.55090312,9.59926131 0.330541872,10.0720222 C0.110180624,10.544783 0,10.9325946 0,11.2354571 C0,11.4570637 0.0577996716,11.6398892 0.173399015,11.7839335 C0.288998358,11.9279778 0.466009852,12 0.704433498,12 Z M5.49458128,6.08310249 C6.00032841,6.08310249 6.46272578,5.94829178 6.8817734,5.67867036 C7.30082102,5.40904894 7.63316913,5.04339797 7.87881773,4.58171745 C8.12446634,4.12003693 8.24729064,3.59741459 8.24729064,3.01385042 C8.24729064,2.46722068 8.12446634,1.96491228 7.87881773,1.50692521 C7.63316913,1.04893813 7.30082102,0.683287165 6.8817734,0.409972299 C6.46272578,0.136657433 6.00032841,0 5.49458128,0 C4.98883415,0 4.52824302,0.136657433 4.11280788,0.409972299 C3.69737274,0.683287165 3.36502463,1.04893813 3.11576355,1.50692521 C2.86650246,1.96491228 2.74187192,2.46722068 2.74187192,3.01385042 C2.74187192,3.59741459 2.86650246,4.12003693 3.11576355,4.58171745 C3.36502463,5.04339797 3.69737274,5.40904894 4.11280788,5.67867036 C4.52824302,5.94829178 4.98883415,6.08310249 5.49458128,6.08310249 Z" id="Combined-Shape"></path>
            </g>
        </g>
    </g>
</svg>