<?xml version="1.0" encoding="UTF-8"?>
<svg width="24px" height="24px" viewBox="0 0 24 24" version="1.1" xmlns="http://www.w3.org/2000/svg" xmlns:xlink="http://www.w3.org/1999/xlink">
    <title>B9AE6B54-6CFC-453E-BD4B-D35D8C504470</title>
    <defs>
        <rect id="path-1" x="0" y="0" width="24" height="24"></rect>
    </defs>
    <g id="Green-on-White" stroke="none" stroke-width="1" fill="none" fill-rule="evenodd">
        <g id="Assets" transform="translate(-406.000000, -1317.000000)">
            <g id="Walking" transform="translate(406.000000, 1317.000000)">
                <mask id="mask-2" fill="white">
                    <use xlink:href="#path-1"></use>
                </mask>
                <g id="Frame-2-(Background/Mask)"></g>
                <g id="Group-1701" mask="url(#mask-2)" fill="currentColor">
                    <g transform="translate(7.000000, 3.000000)">
                        <path d="M2.84487641,10.9255992 C1.72807401,13.0661372 -0.226330271,17.4588936 0.890472136,17.9056146 C1.26273785,18.0917484 2.11894952,18.1289752 2.56567049,16.7888122 L4.5200747,12.3216023 L6.19527831,17.3472134 C6.28834518,17.626414 6.69783938,18.073135 7.59128132,17.626414 C7.77741506,17.5333471 8.0938424,17.1238529 7.87048192,16.2304109 L6.19527831,10.9255992 L6.19527831,7.57519179 L8.98728486,9.52959611 C9.77202106,9.7720445 10.3304223,8.65524204 9.54568606,7.85439241 C8.5219505,7.10985741 6.70081444,5.5840684 6.47447891,5.34158699 C6.28396645,5.13748412 5.30481143,3.07123532 3.40327229,3.94558394 C2.1003362,5.06238448 -0.393855822,7.46350513 0.052865147,8.13358664 C0.145930744,8.31972039 0.167520334,8.71108216 0.837601805,8.93444265 C1.39600301,8.93444265 1.67520361,8.37604142 2.84487641,7.29599118 L2.84487641,10.9255992 Z" id="Vector-2"></path>
                        <path d="M4.46718073,3.3504076 C5.39237024,3.3504076 6.14238453,2.60039331 6.14238453,1.6752038 C6.14238453,0.750014289 5.39237024,0 4.46718073,0 C3.54199122,0 2.79197693,0.750014289 2.79197693,1.6752038 C2.79197693,2.60039331 3.54199122,3.3504076 4.46718073,3.3504076 Z" id="Ellipse-3"></path>
                    </g>
                </g>
            </g>
        </g>
    </g>
</svg>