<?xml version="1.0" encoding="UTF-8"?>
<svg width="24px" height="20px" viewBox="0 0 14 20" version="1.1" xmlns="http://www.w3.org/2000/svg" xmlns:xlink="http://www.w3.org/1999/xlink">
    <title>658D015D-C609-498A-ABE9-366654C09F1D</title>
    <g id="Green-on-White" stroke="none" stroke-width="1" fill="none" fill-rule="evenodd">
        <g id="Assets" transform="translate(-411.000000, -1251.000000)" fill="currentColor" fill-rule="nonzero">
            <path d="M418.654307,1251.29464 C418.641178,1251.27678 418.623673,1251.26339 418.614919,1251.25 L418.610543,1251.24553 C418.452992,1251.09375 418.238547,1251 418.002226,1251 C417.761525,1251 417.547079,1251.09375 417.39391,1251.24553 L417.389533,1251.25 C417.376404,1251.26339 417.363275,1251.27678 417.350145,1251.29464 C417.083183,1251.57589 416.74619,1251.93749 416.369829,1252.37051 C415.608343,1253.24997 414.680523,1254.42405 413.809642,1255.79906 C412.34793,1258.11153 411.056874,1260.98187 411.004377,1263.97328 C411.004377,1264.03131 411,1264.09381 411,1264.15185 C411,1265.03131 411.170679,1265.87057 411.477034,1266.64289 C411.656468,1267.08934 411.879644,1267.50897 412.142249,1267.90182 C413.389531,1269.76789 415.547108,1271 417.997739,1271 C421.866508,1271 425,1267.93304 425,1264.15189 C425,1258.44214 420.396114,1253.10748 418.654351,1251.29485 L418.654307,1251.29464 Z M417.997855,1268.49982 C417.306392,1268.49982 416.654302,1268.33464 416.076595,1268.04892 C418.960646,1267.40607 421.258268,1265.16053 422.019714,1262.26774 C422.247287,1262.8079 422.378582,1263.40614 422.378582,1264.03556 C422.374205,1266.49983 420.413587,1268.50002 417.997967,1268.50002 L417.997855,1268.49982 Z" id="Water"></path>
        </g>
    </g>
</svg>
