<?xml version="1.0" encoding="UTF-8"?>
<svg width="21px" height="17px" viewBox="0 0 21 17" version="1.1" xmlns="http://www.w3.org/2000/svg" xmlns:xlink="http://www.w3.org/1999/xlink">
    <title>E79985A0-DB28-404F-BE60-C018CB2E5F07</title>
    <g id="Green-on-White" stroke="none" stroke-width="1" fill="none" fill-rule="evenodd">
        <g id="Assets" transform="translate(-291.000000, -665.000000)" fill="currentColor" fill-rule="nonzero">
            <path d="M295.212812,665 L295.212812,665.459416 L296.604837,665.459416 L296.604837,665 L295.212812,665 Z M306.42127,665 L306.42127,665.459416 L307.813295,665.459416 L307.813295,665 L306.42127,665 Z M293.516386,665.689227 C293.151881,665.708136 292.837483,666.053466 292.856462,666.414349 C292.875441,666.775224 293.224377,667.086592 293.588894,667.067681 L298.228838,667.067681 C298.596591,667.072809 298.934817,666.742701 298.934817,666.378454 C298.934817,666.014375 298.596591,665.684099 298.228838,665.689227 L293.51622,665.689227 L293.516386,665.689227 Z M304.724844,665.689227 C304.360339,665.708136 304.045941,666.053466 304.06492,666.414349 C304.083898,666.775232 304.432834,667.086592 304.797352,667.067681 L309.437296,667.067681 C309.805049,667.072809 310.143275,666.742701 310.143275,666.378454 C310.143275,666.014375 309.805049,665.684099 309.437296,665.689227 L304.724678,665.689227 L304.724844,665.689227 Z M292.588647,667.527097 C292.224141,667.546006 291.909744,667.891336 291.928722,668.252219 C291.947702,668.613094 292.296637,668.924462 292.661155,668.905551 L299.157408,668.905551 C299.525161,668.910679 299.863387,668.580571 299.863387,668.216324 C299.863387,667.852245 299.525161,667.521969 299.157408,667.527097 L292.58848,667.527097 L292.588647,667.527097 Z M303.797104,667.527097 C303.432599,667.545685 303.118035,667.891176 303.137014,668.252219 C303.155993,668.613094 303.505091,668.924462 303.869613,668.905551 L310.365866,668.905551 C310.733619,668.910679 311.071845,668.580571 311.071845,668.216324 C311.071845,667.852245 310.733619,667.521969 310.365866,667.527097 L303.796938,667.527097 L303.797104,667.527097 Z M291.660907,669.364908 C291.296402,669.383555 290.981838,669.729046 291.000817,670.090089 C291.019796,670.450964 291.368893,670.762332 291.733415,670.743421 L295.213518,670.743421 L295.213518,676.256908 L291.660907,676.256908 C291.296402,676.275496 290.981838,676.620986 291.000817,676.98203 C291.019796,677.342904 291.368893,677.654273 291.733415,677.635361 L300.085563,677.635361 C300.453316,677.640489 300.791542,677.310381 300.791542,676.946134 C300.791542,676.582056 300.453316,676.25178 300.085563,676.256908 L296.60546,676.256908 L296.60546,670.743421 L300.085563,670.743421 C300.453316,670.748549 300.791542,670.418441 300.791542,670.054194 C300.791542,669.690115 300.453316,669.359839 300.085563,669.364908 L291.660741,669.364908 L291.660907,669.364908 Z M302.869365,669.364908 C302.504859,669.383876 302.190462,669.729206 302.20944,670.090089 C302.22842,670.450964 302.577355,670.762332 302.941873,670.743421 L306.421976,670.743421 L306.421976,676.256908 L302.869365,676.256908 C302.504859,676.275817 302.190462,676.621146 302.20944,676.98203 C302.22842,677.342904 302.577355,677.654273 302.941873,677.635361 L311.294021,677.635361 C311.661774,677.640489 312,677.310381 312,676.946134 C312,676.582056 311.661774,676.25178 311.294021,676.256908 L307.813918,676.256908 L307.813918,670.743421 L311.294021,670.743421 C311.661774,670.748549 312,670.418441 312,670.054194 C312,669.690115 311.661774,669.359839 311.294021,669.364908 L302.869199,669.364908 L302.869365,669.364908 Z M292.589062,678.094654 C292.224557,678.113564 291.910159,678.458893 291.929138,678.819776 C291.948117,679.180651 292.297052,679.49202 292.66157,679.473108 L299.157824,679.473108 C299.525576,679.478236 299.863803,679.148128 299.863803,678.783881 C299.863803,678.419803 299.525576,678.089527 299.157824,678.094654 L292.588896,678.094654 L292.589062,678.094654 Z M303.79752,678.094654 C303.433014,678.113243 303.118451,678.458733 303.137429,678.819776 C303.156409,679.180651 303.505506,679.49202 303.870028,679.473108 L310.366281,679.473108 C310.734034,679.478236 311.07226,679.148128 311.07226,678.783881 C311.07226,678.419803 310.734034,678.089527 310.366281,678.094654 L303.797353,678.094654 L303.79752,678.094654 Z M293.517217,679.932524 C293.152711,679.951434 292.838314,680.296763 292.857292,680.657646 C292.876272,681.018521 293.225207,681.32989 293.589725,681.310978 L298.229669,681.310978 C298.597422,681.316106 298.935648,680.985998 298.935648,680.621751 C298.935648,680.257673 298.597422,679.927397 298.229669,679.932524 L293.517051,679.932524 L293.517217,679.932524 Z M304.725674,679.932524 C304.361169,679.951434 304.046772,680.296763 304.06575,680.657646 C304.084728,681.01853 304.433665,681.32989 304.798183,681.310978 L309.438126,681.310978 C309.805879,681.316106 310.144106,680.985998 310.144106,680.621751 C310.144106,680.257673 309.805879,679.927397 309.438126,679.932524 L304.725508,679.932524 L304.725674,679.932524 Z M295.214058,681.540584 L295.214058,682 L296.606083,682 L296.606083,681.540584 L295.214058,681.540584 Z M306.422516,681.540584 L306.422516,682 L307.814541,682 L307.814541,681.540584 L306.422516,681.540584 Z" id="Shape-Copy"></path>
        </g>
    </g>
</svg>
